<mxfile host="app.diagrams.net" modified="2024-03-21T17:58:04.758Z" agent="Mozilla/5.0 (Windows NT 10.0; Win64; x64) AppleWebKit/537.36 (KHTML, like Gecko) Chrome/122.0.0.0 Safari/537.36" etag="6aWqWUYloCM4b9-oMwI5" version="24.0.7" type="google">
  <diagram name="Page-1" id="Upo47583Tc6m4fWuz4Iz">
    <mxGraphModel grid="1" page="1" gridSize="10" guides="1" tooltips="1" connect="1" arrows="1" fold="1" pageScale="1" pageWidth="850" pageHeight="1100" math="0" shadow="0">
      <root>
        <mxCell id="0" />
        <mxCell id="1" parent="0" />
        <mxCell id="8e7B-ONYr-sdzbZyXvUv-136" value="" style="group" connectable="0" vertex="1" parent="1">
          <mxGeometry x="-480" y="140" width="1750" height="840" as="geometry" />
        </mxCell>
        <mxCell id="8e7B-ONYr-sdzbZyXvUv-1" value="a" style="group;shadow=1;fillColor=#b1ddf0;strokeColor=#10739e;container=0;" connectable="0" vertex="1" parent="8e7B-ONYr-sdzbZyXvUv-136">
          <mxGeometry width="1754.3692052980132" height="822.0000000000001" as="geometry" />
        </mxCell>
        <mxCell id="8e7B-ONYr-sdzbZyXvUv-85" value="&lt;b&gt;1&lt;/b&gt;" style="ellipse;whiteSpace=wrap;html=1;aspect=fixed;fillColor=#0050ef;fontColor=#ffffff;strokeColor=#001DBC;container=0;" vertex="1" parent="8e7B-ONYr-sdzbZyXvUv-136">
          <mxGeometry x="327.71357615894044" y="501.6" width="21.192052980132452" height="21.192052980132452" as="geometry" />
        </mxCell>
        <mxCell id="8e7B-ONYr-sdzbZyXvUv-86" value="&lt;b&gt;2&lt;/b&gt;" style="ellipse;whiteSpace=wrap;html=1;aspect=fixed;fillColor=#0050ef;fontColor=#ffffff;strokeColor=#001DBC;container=0;" vertex="1" parent="8e7B-ONYr-sdzbZyXvUv-136">
          <mxGeometry x="488.80629139072846" y="501.6" width="21.192052980132452" height="21.192052980132452" as="geometry" />
        </mxCell>
        <mxCell id="8e7B-ONYr-sdzbZyXvUv-87" value="&lt;b&gt;3&lt;/b&gt;" style="ellipse;whiteSpace=wrap;html=1;aspect=fixed;fillColor=#0050ef;fontColor=#ffffff;strokeColor=#001DBC;container=0;" vertex="1" parent="8e7B-ONYr-sdzbZyXvUv-136">
          <mxGeometry x="674.2367549668875" y="501.6" width="21.192052980132452" height="21.192052980132452" as="geometry" />
        </mxCell>
        <mxCell id="8e7B-ONYr-sdzbZyXvUv-88" value="&lt;b&gt;4&lt;/b&gt;" style="ellipse;whiteSpace=wrap;html=1;aspect=fixed;fillColor=#0050ef;fontColor=#ffffff;strokeColor=#001DBC;container=0;" vertex="1" parent="8e7B-ONYr-sdzbZyXvUv-136">
          <mxGeometry x="871.2566225165563" y="501.6" width="21.192052980132452" height="21.192052980132452" as="geometry" />
        </mxCell>
        <mxCell id="8e7B-ONYr-sdzbZyXvUv-89" value="&lt;b&gt;5&lt;/b&gt;" style="ellipse;whiteSpace=wrap;html=1;aspect=fixed;fillColor=#0050ef;fontColor=#ffffff;strokeColor=#001DBC;container=0;" vertex="1" parent="8e7B-ONYr-sdzbZyXvUv-136">
          <mxGeometry x="1036.9850993377484" y="501.6" width="21.192052980132452" height="21.192052980132452" as="geometry" />
        </mxCell>
        <mxCell id="8e7B-ONYr-sdzbZyXvUv-90" value="&lt;b&gt;8&lt;/b&gt;" style="ellipse;whiteSpace=wrap;html=1;aspect=fixed;fillColor=#0050ef;fontColor=#ffffff;strokeColor=#001DBC;container=0;" vertex="1" parent="8e7B-ONYr-sdzbZyXvUv-136">
          <mxGeometry x="291.7864238410596" y="645.6" width="21.192052980132452" height="21.192052980132452" as="geometry" />
        </mxCell>
        <mxCell id="8e7B-ONYr-sdzbZyXvUv-91" value="&lt;b&gt;9&lt;/b&gt;" style="ellipse;whiteSpace=wrap;html=1;aspect=fixed;fillColor=#0050ef;fontColor=#ffffff;strokeColor=#001DBC;container=0;" vertex="1" parent="8e7B-ONYr-sdzbZyXvUv-136">
          <mxGeometry x="488.80629139072846" y="645.6" width="21.192052980132452" height="21.192052980132452" as="geometry" />
        </mxCell>
        <mxCell id="8e7B-ONYr-sdzbZyXvUv-92" value="&lt;b&gt;10&lt;/b&gt;" style="ellipse;whiteSpace=wrap;html=1;aspect=fixed;fillColor=#0050ef;fontColor=#ffffff;strokeColor=#001DBC;container=0;" vertex="1" parent="8e7B-ONYr-sdzbZyXvUv-136">
          <mxGeometry x="685.8261589403974" y="645.6" width="21.192052980132452" height="21.192052980132452" as="geometry" />
        </mxCell>
        <mxCell id="8e7B-ONYr-sdzbZyXvUv-93" value="&lt;b&gt;6&lt;/b&gt;" style="ellipse;whiteSpace=wrap;html=1;aspect=fixed;fillColor=#0050ef;fontColor=#ffffff;strokeColor=#001DBC;container=0;" vertex="1" parent="8e7B-ONYr-sdzbZyXvUv-136">
          <mxGeometry x="1265.296357615894" y="501.6" width="21.192052980132452" height="21.192052980132452" as="geometry" />
        </mxCell>
        <mxCell id="8e7B-ONYr-sdzbZyXvUv-94" value="&lt;b&gt;12&lt;/b&gt;" style="ellipse;whiteSpace=wrap;html=1;aspect=fixed;fillColor=#0050ef;fontColor=#ffffff;strokeColor=#001DBC;container=0;" vertex="1" parent="8e7B-ONYr-sdzbZyXvUv-136">
          <mxGeometry x="1021.9188741721854" y="645.6" width="21.192052980132452" height="21.192052980132452" as="geometry" />
        </mxCell>
        <mxCell id="8e7B-ONYr-sdzbZyXvUv-95" value="&lt;b&gt;13&lt;/b&gt;" style="ellipse;whiteSpace=wrap;html=1;aspect=fixed;fillColor=#0050ef;fontColor=#ffffff;strokeColor=#001DBC;container=0;" vertex="1" parent="8e7B-ONYr-sdzbZyXvUv-136">
          <mxGeometry x="1207.3493377483444" y="645.6" width="21.192052980132452" height="21.192052980132452" as="geometry" />
        </mxCell>
        <mxCell id="8e7B-ONYr-sdzbZyXvUv-96" value="&lt;b&gt;14&lt;/b&gt;" style="ellipse;whiteSpace=wrap;html=1;aspect=fixed;fillColor=#0050ef;fontColor=#ffffff;strokeColor=#001DBC;container=0;" vertex="1" parent="8e7B-ONYr-sdzbZyXvUv-136">
          <mxGeometry x="1439.1374172185433" y="645.6" width="21.192052980132452" height="21.192052980132452" as="geometry" />
        </mxCell>
        <mxCell id="8e7B-ONYr-sdzbZyXvUv-97" value="&lt;b&gt;11&lt;/b&gt;" style="ellipse;whiteSpace=wrap;html=1;aspect=fixed;fillColor=#0050ef;fontColor=#ffffff;strokeColor=#001DBC;container=0;" vertex="1" parent="8e7B-ONYr-sdzbZyXvUv-136">
          <mxGeometry x="871.2566225165563" y="645.6" width="21.192052980132452" height="21.192052980132452" as="geometry" />
        </mxCell>
        <mxCell id="8e7B-ONYr-sdzbZyXvUv-98" value="&lt;b style=&quot;background-color: initial;&quot;&gt;S3&amp;nbsp;&lt;span style=&quot;background-color: initial;&quot;&gt;bucket (no&amp;nbsp;&lt;/span&gt;&lt;/b&gt;&lt;div&gt;&lt;div&gt;&lt;b&gt;public access)&lt;/b&gt;&lt;/div&gt;&lt;/div&gt;&lt;div&gt;&lt;b&gt;collects&amp;nbsp;&lt;/b&gt;&lt;/div&gt;&lt;div&gt;&lt;b&gt;Messages&lt;/b&gt;&lt;/div&gt;" style="text;html=1;align=left;verticalAlign=middle;resizable=0;points=[];autosize=1;strokeColor=none;fillColor=none;container=0;" vertex="1" parent="8e7B-ONYr-sdzbZyXvUv-136">
          <mxGeometry x="352.05132450331126" y="498" width="110" height="70" as="geometry" />
        </mxCell>
        <mxCell id="8e7B-ONYr-sdzbZyXvUv-99" value="&lt;b&gt;IAM P&lt;/b&gt;&lt;span style=&quot;color: rgba(0, 0, 0, 0); font-family: monospace; font-size: 0px;&quot;&gt;%3CmxGraphModel%3E%3Croot%3E%3CmxCell%20id%3D%220%22%2F%3E%3CmxCell%20id%3D%221%22%20parent%3D%220%22%2F%3E%3CmxCell%20id%3D%222%22%20value%3D%22%26lt%3Bb%26gt%3BCloud%20Storage%26amp%3Bnbsp%3B%26lt%3B%2Fb%26gt%3B%26lt%3Bdiv%26gt%3B%26lt%3Bb%26gt%3BS3%26lt%3Bspan%20style%3D%26quot%3Bbackground-color%3A%20initial%3B%26quot%3B%26gt%3Bbucket%20(no%26amp%3Bnbsp%3B%26lt%3B%2Fspan%26gt%3B%26lt%3B%2Fb%26gt%3B%26lt%3Bdiv%26gt%3B%26lt%3Bb%26gt%3Bpublic%20access)%26lt%3B%2Fb%26gt%3B%26lt%3B%2Fdiv%26gt%3B%26lt%3B%2Fdiv%26gt%3B%22%20style%3D%22text%3Bhtml%3D1%3Balign%3Dcenter%3BverticalAlign%3Dmiddle%3Bresizable%3D0%3Bpoints%3D%5B%5D%3Bautosize%3D1%3BstrokeColor%3Dnone%3BfillColor%3Dnone%3B%22%20vertex%3D%221%22%20parent%3D%221%22%3E%3CmxGeometry%20x%3D%22-184%22%20y%3D%22797%22%20width%3D%22110%22%20height%3D%2260%22%20as%3D%22geometry%22%2F%3E%3C%2FmxCell%3E%3C%2Froot%3E%3C%2FmxGraphModel%3E&lt;/span&gt;&lt;span style=&quot;color: rgba(0, 0, 0, 0); font-family: monospace; font-size: 0px;&quot;&gt;%3CmxGraphModel%3E%3Croot%3E%3CmxCell%20id%3D%220%22%2F%3E%3CmxCell%20id%3D%221%22%20parent%3D%220%22%2F%3E%3CmxCell%20id%3D%222%22%20value%3D%22%26lt%3Bb%26gt%3BCloud%20Storage%26amp%3Bnbsp%3B%26lt%3B%2Fb%26gt%3B%26lt%3Bdiv%26gt%3B%26lt%3Bb%26gt%3BS3%26lt%3Bspan%20style%3D%26quot%3Bbackground-color%3A%20initial%3B%26quot%3B%26gt%3Bbucket%20(no%26amp%3Bnbsp%3B%26lt%3B%2Fspan%26gt%3B%26lt%3B%2Fb%26gt%3B%26lt%3Bdiv%26gt%3B%26lt%3Bb%26gt%3Bpublic%20access)%26lt%3B%2Fb%26gt%3B%26lt%3B%2Fdiv%26gt%3B%26lt%3B%2Fdiv%26gt%3B%22%20style%3D%22text%3Bhtml%3D1%3Balign%3Dcenter%3BverticalAlign%3Dmiddle%3Bresizable%3D0%3Bpoints%3D%5B%5D%3Bautosize%3D1%3BstrokeColor%3Dnone%3BfillColor%3Dnone%3B%22%20vertex%3D%221%22%20parent%3D%221%22%3E%3CmxGeometry%20x%3D%22-184%22%20y%3D%22797%22%20width%3D%22110%22%20height%3D%2260%22%20as%3D%22geometry%22%2F%3E%3C%2FmxCell%3E%3C%2Froot%3E%3C%2FmxGraphModel%3E&lt;/span&gt;&lt;b&gt;olicy &amp;amp;&lt;/b&gt;&lt;div&gt;&lt;b&gt;Role for S3&lt;/b&gt;&lt;/div&gt;&lt;div&gt;&lt;b&gt;access&lt;/b&gt;&lt;/div&gt;" style="text;html=1;align=left;verticalAlign=middle;resizable=0;points=[];autosize=1;strokeColor=none;fillColor=none;container=0;" vertex="1" parent="8e7B-ONYr-sdzbZyXvUv-136">
          <mxGeometry x="513.1440397350993" y="495.6" width="100" height="60" as="geometry" />
        </mxCell>
        <mxCell id="8e7B-ONYr-sdzbZyXvUv-100" value="&lt;b&gt;Storage&amp;nbsp;&lt;/b&gt;&lt;div&gt;&lt;b&gt;Integration for&lt;/b&gt;&lt;/div&gt;&lt;div&gt;&lt;b&gt;Service-to-service&lt;/b&gt;&lt;/div&gt;&lt;div&gt;&lt;b&gt;trust&lt;/b&gt;&lt;/div&gt;" style="text;html=1;align=left;verticalAlign=middle;resizable=0;points=[];autosize=1;strokeColor=none;fillColor=none;container=0;" vertex="1" parent="8e7B-ONYr-sdzbZyXvUv-136">
          <mxGeometry x="699.7334437086093" y="495.6" width="130" height="70" as="geometry" />
        </mxCell>
        <mxCell id="8e7B-ONYr-sdzbZyXvUv-101" value="&lt;b&gt;External Stage&lt;/b&gt;&lt;div&gt;&lt;b&gt;for&amp;nbsp;&lt;/b&gt;&lt;b style=&quot;background-color: initial;&quot;&gt;Data&amp;nbsp;&lt;/b&gt;&lt;/div&gt;&lt;div&gt;&lt;b style=&quot;background-color: initial;&quot;&gt;Exchange&lt;/b&gt;&lt;/div&gt;" style="text;html=1;align=left;verticalAlign=middle;resizable=0;points=[];autosize=1;strokeColor=none;fillColor=none;container=0;" vertex="1" parent="8e7B-ONYr-sdzbZyXvUv-136">
          <mxGeometry x="896.7533112582781" y="494.4" width="110" height="60" as="geometry" />
        </mxCell>
        <mxCell id="8e7B-ONYr-sdzbZyXvUv-102" value="&lt;b&gt;Snowpipe for Serverless&amp;nbsp;&lt;/b&gt;&lt;div&gt;&lt;b&gt;Continuous Data Loading&lt;/b&gt;&lt;/div&gt;" style="text;html=1;align=left;verticalAlign=middle;resizable=0;points=[];autosize=1;strokeColor=none;fillColor=none;container=0;" vertex="1" parent="8e7B-ONYr-sdzbZyXvUv-136">
          <mxGeometry x="1062.4817880794703" y="499.20000000000005" width="170" height="40" as="geometry" />
        </mxCell>
        <mxCell id="8e7B-ONYr-sdzbZyXvUv-103" value="&lt;b&gt;SQS notifies&lt;/b&gt;&lt;div&gt;&lt;b&gt;Snowpipe (&lt;/b&gt;&lt;/div&gt;&lt;div&gt;&lt;b&gt;auto_ingest = true)&lt;/b&gt;&lt;/div&gt;" style="text;html=1;align=left;verticalAlign=middle;resizable=0;points=[];autosize=1;strokeColor=none;fillColor=none;container=0;" vertex="1" parent="8e7B-ONYr-sdzbZyXvUv-136">
          <mxGeometry x="1288.475165562914" y="495.6" width="130" height="60" as="geometry" />
        </mxCell>
        <mxCell id="8e7B-ONYr-sdzbZyXvUv-104" value="&lt;b&gt;Stream to&lt;/b&gt;&lt;div&gt;&lt;b&gt;Process Newly&lt;/b&gt;&lt;/div&gt;&lt;div&gt;&lt;b&gt;Ingested Messages&lt;/b&gt;&lt;/div&gt;" style="text;html=1;align=left;verticalAlign=middle;resizable=0;points=[];autosize=1;strokeColor=none;fillColor=none;container=0;" vertex="1" parent="8e7B-ONYr-sdzbZyXvUv-136">
          <mxGeometry x="314.9652317880795" y="639.6000000000001" width="130" height="60" as="geometry" />
        </mxCell>
        <mxCell id="8e7B-ONYr-sdzbZyXvUv-105" value="&lt;b&gt;ELT View&lt;/b&gt;&lt;div&gt;&lt;b&gt;flattens Stream&amp;nbsp;&lt;/b&gt;&lt;/div&gt;" style="text;html=1;align=left;verticalAlign=middle;resizable=0;points=[];autosize=1;strokeColor=none;fillColor=none;container=0;" vertex="1" parent="8e7B-ONYr-sdzbZyXvUv-136">
          <mxGeometry x="514.3029801324503" y="643.2000000000002" width="110" height="40" as="geometry" />
        </mxCell>
        <mxCell id="8e7B-ONYr-sdzbZyXvUv-106" value="&lt;b&gt;Raw-to-Stage&lt;/b&gt;&lt;div&gt;&lt;b&gt;Task&amp;nbsp;&lt;/b&gt;&lt;b style=&quot;background-color: initial;&quot;&gt;INSERT&#39;s&amp;nbsp;&lt;/b&gt;&lt;/div&gt;&lt;div&gt;&lt;b style=&quot;background-color: initial;&quot;&gt;from&amp;nbsp;&lt;/b&gt;&lt;b style=&quot;background-color: initial;&quot;&gt;ELT View&lt;/b&gt;&lt;/div&gt;&lt;div&gt;&lt;b&gt;(Clears Stream)&lt;/b&gt;&lt;/div&gt;" style="text;html=1;align=left;verticalAlign=middle;resizable=0;points=[];autosize=1;strokeColor=none;fillColor=none;container=0;" vertex="1" parent="8e7B-ONYr-sdzbZyXvUv-136">
          <mxGeometry x="710.1639072847681" y="642" width="110" height="70" as="geometry" />
        </mxCell>
        <mxCell id="8e7B-ONYr-sdzbZyXvUv-107" value="&lt;b&gt;Persistent&lt;/b&gt;&lt;div&gt;&lt;b&gt;Staging layer&lt;/b&gt;&lt;/div&gt;" style="text;html=1;align=left;verticalAlign=middle;resizable=0;points=[];autosize=1;strokeColor=none;fillColor=none;container=0;" vertex="1" parent="8e7B-ONYr-sdzbZyXvUv-136">
          <mxGeometry x="895.5943708609273" y="643.2000000000002" width="100" height="40" as="geometry" />
        </mxCell>
        <mxCell id="8e7B-ONYr-sdzbZyXvUv-108" value="&lt;b&gt;Stream to&lt;/b&gt;&lt;div&gt;&lt;b&gt;Process Newly&lt;/b&gt;&lt;/div&gt;&lt;div&gt;&lt;b&gt;Staged Records&lt;/b&gt;&lt;/div&gt;" style="text;html=1;align=left;verticalAlign=middle;resizable=0;points=[];autosize=1;strokeColor=none;fillColor=none;container=0;" vertex="1" parent="8e7B-ONYr-sdzbZyXvUv-136">
          <mxGeometry x="1047.4155629139073" y="639.6000000000001" width="110" height="60" as="geometry" />
        </mxCell>
        <mxCell id="8e7B-ONYr-sdzbZyXvUv-109" value="&lt;b&gt;ELT Proc Pulls&lt;/b&gt;&lt;div&gt;&lt;b&gt;from Stream,&lt;/b&gt;&lt;/div&gt;&lt;div&gt;&lt;b&gt;Identifies Type-2&lt;/b&gt;&lt;/div&gt;&lt;div&gt;&lt;b&gt;Upserts&lt;/b&gt;&lt;/div&gt;" style="text;html=1;align=left;verticalAlign=middle;resizable=0;points=[];autosize=1;strokeColor=none;fillColor=none;container=0;" vertex="1" parent="8e7B-ONYr-sdzbZyXvUv-136">
          <mxGeometry x="1232.8460264900662" y="643.2000000000002" width="120" height="70" as="geometry" />
        </mxCell>
        <mxCell id="8e7B-ONYr-sdzbZyXvUv-110" value="&lt;b&gt;Stage-to-EDW&lt;/b&gt;&lt;div&gt;&lt;b&gt;Take Calls ELT&lt;/b&gt;&lt;/div&gt;&lt;div&gt;&lt;b&gt;proc (Clears&amp;nbsp;&lt;/b&gt;&lt;b style=&quot;background-color: initial;&quot;&gt;Stream)&lt;/b&gt;&lt;/div&gt;" style="text;html=1;align=left;verticalAlign=middle;resizable=0;points=[];autosize=1;strokeColor=none;fillColor=none;container=0;" vertex="1" parent="8e7B-ONYr-sdzbZyXvUv-136">
          <mxGeometry x="1462.7334437086095" y="638.4" width="140" height="60" as="geometry" />
        </mxCell>
        <mxCell id="8e7B-ONYr-sdzbZyXvUv-111" value="&lt;b&gt;&lt;font style=&quot;font-size: 16px;&quot;&gt;FIG : SNOWFLAKE AUTO-INGEST WITH KAFKA&lt;/font&gt;&lt;/b&gt;" style="text;html=1;align=center;verticalAlign=middle;resizable=0;points=[];autosize=1;strokeColor=#36393d;fillColor=#ffcccc;container=0;" vertex="1" parent="8e7B-ONYr-sdzbZyXvUv-136">
          <mxGeometry x="625.5612582781457" y="800.4000000000001" width="390" height="30" as="geometry" />
        </mxCell>
        <mxCell id="8e7B-ONYr-sdzbZyXvUv-5" value="" style="rounded=1;whiteSpace=wrap;html=1;shadow=1;fillColor=#96FFB9;strokeColor=#23445d;container=0;" vertex="1" parent="8e7B-ONYr-sdzbZyXvUv-136">
          <mxGeometry x="535.1639072847682" y="156.00000000000003" width="1066.225165562914" height="252" as="geometry" />
        </mxCell>
        <mxCell id="8e7B-ONYr-sdzbZyXvUv-6" value="" style="rounded=1;whiteSpace=wrap;html=1;rotation=90;shadow=1;fillColor=#cce5ff;strokeColor=#36393d;container=0;" vertex="1" parent="8e7B-ONYr-sdzbZyXvUv-136">
          <mxGeometry x="529.3692052980133" y="294" width="115.89403973509934" height="84" as="geometry" />
        </mxCell>
        <mxCell id="8e7B-ONYr-sdzbZyXvUv-7" value="" style="image;html=1;image=img/lib/clip_art/general/Full_Folder_128x128.png;imageBackground=none;imageBorder=none;shadow=1;container=0;" vertex="1" parent="8e7B-ONYr-sdzbZyXvUv-136">
          <mxGeometry x="561.2400662251656" y="336" width="52.1523178807947" height="48" as="geometry" />
        </mxCell>
        <mxCell id="8e7B-ONYr-sdzbZyXvUv-8" value="&lt;b&gt;EXT&lt;/b&gt;&lt;div&gt;&lt;b&gt;Stage&lt;/b&gt;&lt;/div&gt;" style="text;strokeColor=none;align=center;fillColor=none;html=1;verticalAlign=middle;whiteSpace=wrap;rounded=0;shadow=1;container=0;" vertex="1" parent="8e7B-ONYr-sdzbZyXvUv-136">
          <mxGeometry x="552.5480132450331" y="288" width="69.5364238410596" height="36" as="geometry" />
        </mxCell>
        <mxCell id="8e7B-ONYr-sdzbZyXvUv-9" value="&lt;b&gt;Storage&amp;nbsp;&lt;/b&gt;&lt;b style=&quot;background-color: initial;&quot;&gt;Int&lt;/b&gt;" style="text;strokeColor=none;align=center;fillColor=none;html=1;verticalAlign=middle;whiteSpace=wrap;rounded=0;shadow=1;container=0;" vertex="1" parent="8e7B-ONYr-sdzbZyXvUv-136">
          <mxGeometry x="567.8807947019868" y="180.00000000000003" width="87.78973509933776" height="24" as="geometry" />
        </mxCell>
        <mxCell id="8e7B-ONYr-sdzbZyXvUv-10" value="" style="edgeStyle=orthogonalEdgeStyle;rounded=0;orthogonalLoop=1;jettySize=auto;html=1;entryX=0;entryY=0.5;entryDx=0;entryDy=0;shadow=1;flowAnimation=1;" edge="1" parent="8e7B-ONYr-sdzbZyXvUv-136" source="8e7B-ONYr-sdzbZyXvUv-11" target="8e7B-ONYr-sdzbZyXvUv-6">
          <mxGeometry relative="1" as="geometry" />
        </mxCell>
        <mxCell id="8e7B-ONYr-sdzbZyXvUv-11" value="" style="sketch=0;html=1;aspect=fixed;strokeColor=none;shadow=1;fillColor=#3B8DF1;verticalAlign=top;labelPosition=center;verticalLabelPosition=bottom;shape=mxgraph.gcp2.key;container=0;" vertex="1" parent="8e7B-ONYr-sdzbZyXvUv-136">
          <mxGeometry x="562.6539735099338" y="210" width="45.086092715231786" height="21.192052980132452" as="geometry" />
        </mxCell>
        <mxCell id="8e7B-ONYr-sdzbZyXvUv-12" value="" style="edgeStyle=orthogonalEdgeStyle;rounded=0;orthogonalLoop=1;jettySize=auto;html=1;entryX=0;entryY=0.5;entryDx=0;entryDy=0;entryPerimeter=0;flowAnimation=1;" edge="1" parent="8e7B-ONYr-sdzbZyXvUv-136" source="8e7B-ONYr-sdzbZyXvUv-115" target="8e7B-ONYr-sdzbZyXvUv-16">
          <mxGeometry relative="1" as="geometry">
            <mxPoint x="754.2036423841063" y="335.40000000000003" as="sourcePoint" />
          </mxGeometry>
        </mxCell>
        <mxCell id="8e7B-ONYr-sdzbZyXvUv-14" value="&lt;sub style=&quot;&quot;&gt;&lt;b&gt;Snowpipe&lt;/b&gt;&lt;/sub&gt;" style="text;strokeColor=none;align=center;fillColor=none;html=1;verticalAlign=middle;whiteSpace=wrap;rounded=0;container=0;" vertex="1" parent="8e7B-ONYr-sdzbZyXvUv-136">
          <mxGeometry x="674.2367549668875" y="355.2" width="92.71523178807948" height="36" as="geometry" />
        </mxCell>
        <mxCell id="8e7B-ONYr-sdzbZyXvUv-19" value="" style="sketch=0;outlineConnect=0;fontColor=#ffffff;fillColor=#000099;strokeColor=#006EAF;dashed=0;verticalLabelPosition=bottom;verticalAlign=top;align=center;html=1;fontSize=12;fontStyle=0;aspect=fixed;pointerEvents=1;shape=mxgraph.aws4.data_stream;shadow=1;container=0;" vertex="1" parent="8e7B-ONYr-sdzbZyXvUv-136">
          <mxGeometry x="894.4354304635763" y="315" width="29.13907284768212" height="29.13907284768212" as="geometry" />
        </mxCell>
        <mxCell id="8e7B-ONYr-sdzbZyXvUv-20" value="&lt;b&gt;&lt;font style=&quot;font-size: 11px;&quot;&gt;Stream&lt;/font&gt;&lt;/b&gt;" style="text;strokeColor=none;align=center;fillColor=none;html=1;verticalAlign=middle;whiteSpace=wrap;rounded=0;container=0;" vertex="1" parent="8e7B-ONYr-sdzbZyXvUv-136">
          <mxGeometry x="888.9304635761589" y="352.20000000000005" width="40.56291390728477" height="8.4" as="geometry" />
        </mxCell>
        <mxCell id="8e7B-ONYr-sdzbZyXvUv-21" value="" style="edgeStyle=orthogonalEdgeStyle;rounded=0;orthogonalLoop=1;jettySize=auto;html=1;entryX=-0.034;entryY=0.496;entryDx=0;entryDy=0;entryPerimeter=0;flowAnimation=1;" edge="1" parent="8e7B-ONYr-sdzbZyXvUv-136" source="8e7B-ONYr-sdzbZyXvUv-22" target="8e7B-ONYr-sdzbZyXvUv-78">
          <mxGeometry relative="1" as="geometry">
            <mxPoint x="1019.8675496688743" y="342" as="targetPoint" />
          </mxGeometry>
        </mxCell>
        <mxCell id="8e7B-ONYr-sdzbZyXvUv-22" value="" style="html=1;verticalLabelPosition=bottom;align=center;labelBackgroundColor=none;verticalAlign=top;strokeWidth=2;strokeColor=#0080F0;shadow=1;dashed=0;shape=mxgraph.ios7.icons.looking_glass;textShadow=1;labelBorderColor=none;fillColor=none;container=0;" vertex="1" parent="8e7B-ONYr-sdzbZyXvUv-136">
          <mxGeometry x="940.7930463576158" y="312.00000000000006" width="34.7682119205298" height="36" as="geometry" />
        </mxCell>
        <mxCell id="8e7B-ONYr-sdzbZyXvUv-23" value="&lt;font style=&quot;font-size: 10px;&quot;&gt;&lt;font style=&quot;font-size: 10px;&quot;&gt;&lt;b style=&quot;&quot;&gt;ETL&amp;nbsp;&lt;/b&gt;&lt;/font&gt;&lt;b style=&quot;background-color: initial;&quot;&gt;View&lt;/b&gt;&lt;/font&gt;" style="text;strokeColor=none;align=center;fillColor=none;html=1;verticalAlign=middle;whiteSpace=wrap;rounded=0;container=0;" vertex="1" parent="8e7B-ONYr-sdzbZyXvUv-136">
          <mxGeometry x="945.4288079470199" y="351" width="46.35761589403974" height="13.8" as="geometry" />
        </mxCell>
        <mxCell id="8e7B-ONYr-sdzbZyXvUv-24" value="" style="edgeStyle=orthogonalEdgeStyle;rounded=0;orthogonalLoop=1;jettySize=auto;html=1;entryX=0;entryY=0.5;entryDx=0;entryDy=0;entryPerimeter=0;exitX=1.022;exitY=0.518;exitDx=0;exitDy=0;exitPerimeter=0;flowAnimation=1;" edge="1" parent="8e7B-ONYr-sdzbZyXvUv-136" source="8e7B-ONYr-sdzbZyXvUv-78" target="8e7B-ONYr-sdzbZyXvUv-28">
          <mxGeometry relative="1" as="geometry">
            <mxPoint x="1112.5827814569536" y="331.20000000000005" as="sourcePoint" />
          </mxGeometry>
        </mxCell>
        <mxCell id="8e7B-ONYr-sdzbZyXvUv-26" value="&lt;b style=&quot;text-wrap: nowrap;&quot;&gt;Raw To Stage&lt;/b&gt;&lt;div style=&quot;text-wrap: nowrap;&quot;&gt;&lt;b&gt;Task&lt;/b&gt;&lt;/div&gt;" style="text;strokeColor=none;align=center;fillColor=none;html=1;verticalAlign=middle;whiteSpace=wrap;rounded=0;container=0;" vertex="1" parent="8e7B-ONYr-sdzbZyXvUv-136">
          <mxGeometry x="1022.3592715231788" y="366" width="98.79966887417218" height="26.400000000000002" as="geometry" />
        </mxCell>
        <mxCell id="8e7B-ONYr-sdzbZyXvUv-32" value="" style="sketch=0;outlineConnect=0;fontColor=#ffffff;fillColor=#000099;strokeColor=#006EAF;dashed=0;verticalLabelPosition=bottom;verticalAlign=top;align=center;html=1;fontSize=12;fontStyle=0;aspect=fixed;pointerEvents=1;shape=mxgraph.aws4.data_stream;shadow=1;container=0;" vertex="1" parent="8e7B-ONYr-sdzbZyXvUv-136">
          <mxGeometry x="1227.0513245033112" y="320.40000000000003" width="29.13907284768212" height="29.13907284768212" as="geometry" />
        </mxCell>
        <mxCell id="8e7B-ONYr-sdzbZyXvUv-33" value="" style="edgeStyle=orthogonalEdgeStyle;rounded=0;orthogonalLoop=1;jettySize=auto;html=1;entryX=-0.02;entryY=0.536;entryDx=0;entryDy=0;entryPerimeter=0;exitX=1.012;exitY=0.576;exitDx=0;exitDy=0;exitPerimeter=0;flowAnimation=1;" edge="1" parent="8e7B-ONYr-sdzbZyXvUv-136" source="8e7B-ONYr-sdzbZyXvUv-123" target="8e7B-ONYr-sdzbZyXvUv-79">
          <mxGeometry relative="1" as="geometry">
            <mxPoint x="1321.1920529801325" y="334.8" as="sourcePoint" />
            <mxPoint x="1355.9602649006624" y="334.8" as="targetPoint" />
          </mxGeometry>
        </mxCell>
        <mxCell id="8e7B-ONYr-sdzbZyXvUv-35" value="&lt;b&gt;&lt;font style=&quot;font-size: 11px;&quot;&gt;Stream&lt;/font&gt;&lt;/b&gt;" style="text;strokeColor=none;align=center;fillColor=none;html=1;verticalAlign=middle;whiteSpace=wrap;rounded=0;container=0;" vertex="1" parent="8e7B-ONYr-sdzbZyXvUv-136">
          <mxGeometry x="1216.1920529801328" y="355.2" width="53.60099337748345" height="12" as="geometry" />
        </mxCell>
        <mxCell id="8e7B-ONYr-sdzbZyXvUv-36" value="&lt;font style=&quot;font-size: 10px;&quot;&gt;&lt;font style=&quot;font-size: 10px;&quot;&gt;&lt;b&gt;ETL Proc&lt;/b&gt;&lt;/font&gt;&lt;/font&gt;" style="text;strokeColor=none;align=center;fillColor=none;html=1;verticalAlign=middle;whiteSpace=wrap;rounded=0;container=0;" vertex="1" parent="8e7B-ONYr-sdzbZyXvUv-136">
          <mxGeometry x="1267.614238410596" y="363.90000000000003" width="46.35761589403974" height="13.8" as="geometry" />
        </mxCell>
        <mxCell id="8e7B-ONYr-sdzbZyXvUv-37" value="" style="edgeStyle=orthogonalEdgeStyle;rounded=0;orthogonalLoop=1;jettySize=auto;html=1;entryX=0;entryY=0.5;entryDx=0;entryDy=0;entryPerimeter=0;flowAnimation=1;" edge="1" parent="8e7B-ONYr-sdzbZyXvUv-136" target="8e7B-ONYr-sdzbZyXvUv-40">
          <mxGeometry relative="1" as="geometry">
            <mxPoint x="1485.4950331125829" y="338.40000000000003" as="targetPoint" />
            <mxPoint x="1442.614238410596" y="334.2352941176471" as="sourcePoint" />
          </mxGeometry>
        </mxCell>
        <mxCell id="8e7B-ONYr-sdzbZyXvUv-42" value="" style="shape=image;verticalLabelPosition=bottom;labelBackgroundColor=default;verticalAlign=top;aspect=fixed;imageAspect=0;image=data:image/png,iVBORw0KGgoAAAANSUhEUgAAATYAAAFWCAYAAADjSLHzAAAACXBIWXMAAAsTAAALEwEAmpwYAAAF0WlUWHRYTUw6Y29tLmFkb2JlLnhtcAAAAAAAPD94cGFja2V0IGJlZ2luPSLvu78iIGlkPSJXNU0wTXBDZWhpSHpyZVN6TlRjemtjOWQiPz4gPHg6eG1wbWV0YSB4bWxuczp4PSJhZG9iZTpuczptZXRhLyIgeDp4bXB0az0iQWRvYmUgWE1QIENvcmUgNy4xLWMwMDAgNzkuOWNjYzRkZTkzLCAyMDIyLzAzLzE0LTE0OjA3OjIyICAgICAgICAiPiA8cmRmOlJERiB4bWxuczpyZGY9Imh0dHA6Ly93d3cudzMub3JnLzE5OTkvMDIvMjItcmRmLXN5bnRheC1ucyMiPiA8cmRmOkRlc2NyaXB0aW9uIHJkZjphYm91dD0iIiB4bWxuczp4bXA9Imh0dHA6Ly9ucy5hZG9iZS5jb20veGFwLzEuMC8iIHhtbG5zOmRjPSJodHRwOi8vcHVybC5vcmcvZGMvZWxlbWVudHMvMS4xLyIgeG1sbnM6cGhvdG9zaG9wPSJodHRwOi8vbnMuYWRvYmUuY29tL3Bob3Rvc2hvcC8xLjAvIiB4bWxuczp4bXBNTT0iaHR0cDovL25zLmFkb2JlLmNvbS94YXAvMS4wL21tLyIgeG1sbnM6c3RFdnQ9Imh0dHA6Ly9ucy5hZG9iZS5jb20veGFwLzEuMC9zVHlwZS9SZXNvdXJjZUV2ZW50IyIgeG1wOkNyZWF0b3JUb29sPSJBZG9iZSBQaG90b3Nob3AgMjMuMyAoTWFjaW50b3NoKSIgeG1wOkNyZWF0ZURhdGU9IjIwMjItMDUtMjVUMTE6MTU6NTMtMDc6MDAiIHhtcDpNb2RpZnlEYXRlPSIyMDIyLTA1LTI1VDExOjE5OjI0LTA3OjAwIiB4bXA6TWV0YWRhdGFEYXRlPSIyMDIyLTA1LTI1VDExOjE5OjI0LTA3OjAwIiBkYzpmb3JtYXQ9ImltYWdlL3BuZyIgcGhvdG9zaG9wOkNvbG9yTW9kZT0iMyIgeG1wTU06SW5zdGFuY2VJRD0ieG1wLmlpZDo5NTY4NzdlNS00ZWE4LTQ5MWEtYjQ3MC04YzBlOWQ5MDAwMzAiIHhtcE1NOkRvY3VtZW50SUQ9ImFkb2JlOmRvY2lkOnBob3Rvc2hvcDoyY2JmNTg2Yi02YWZjLTM2NDUtYTUyOS00N2QyMzY1NjZkMmYiIHhtcE1NOk9yaWdpbmFsRG9jdW1lbnRJRD0ieG1wLmRpZDphOTZlMmEwNi1kNjI2LTRjZmYtOWVhMy03OTU2ODg1MWEwMjQiPiA8eG1wTU06SGlzdG9yeT4gPHJkZjpTZXE+IDxyZGY6bGkgc3RFdnQ6YWN0aW9uPSJjcmVhdGVkIiBzdEV2dDppbnN0YW5jZUlEPSJ4bXAuaWlkOmE5NmUyYTA2LWQ2MjYtNGNmZi05ZWEzLTc5NTY4ODUxYTAyNCIgc3RFdnQ6d2hlbj0iMjAyMi0wNS0yNVQxMToxNTo1My0wNzowMCIgc3RFdnQ6c29mdHdhcmVBZ2VudD0iQWRvYmUgUGhvdG9zaG9wIDIzLjMgKE1hY2ludG9zaCkiLz4gPHJkZjpsaSBzdEV2dDphY3Rpb249InNhdmVkIiBzdEV2dDppbnN0YW5jZUlEPSJ4bXAuaWlkOjk1Njg3N2U1LTRlYTgtNDkxYS1iNDcwLThjMGU5ZDkwMDAzMCIgc3RFdnQ6d2hlbj0iMjAyMi0wNS0yNVQxMToxOToyNC0wNzowMCIgc3RFdnQ6c29mdHdhcmVBZ2VudD0iQWRvYmUgUGhvdG9zaG9wIDIzLjMgKE1hY2ludG9zaCkiIHN0RXZ0OmNoYW5nZWQ9Ii8iLz4gPC9yZGY6U2VxPiA8L3htcE1NOkhpc3Rvcnk+IDwvcmRmOkRlc2NyaXB0aW9uPiA8L3JkZjpSREY+IDwveDp4bXBtZXRhPiA8P3hwYWNrZXQgZW5kPSJyIj8+C0r8IQAAVM1JREFUeNrtnQVYVGkXgIfukO5uKWkRFcTE7u6utddaddW11lXXXRs71u5GBRWDdujuHlK6xP+eEfxx1yDuzNyZOe/zkOIw3O+775yvzhH4+PEjDeFP1uzzFqn/QJMtqGowhq9zy2vNaxoaZUsq67TyK2qN//3zDY00CU4+X2FBWvW/v6cqLZbYSUo0S1xYsExdRiwWvqcsKZwoKiRQtmPZrHpsZf5EAMXGmyzedUyrsLrBOOt9jXUio6L7h48fhb8hp748egl8viZFYUGBaiNl6QBtOfEIJUKAf/08Jwt7C4oNoZC4Uktr3SJzyryq6htk+UxaLJWftJhwsZWazH1defHAv1ej+FBsCKms3ntcIv19Xfd4RoVb1vtq66/IC8XFJvE1S09LTiLCTFXaT09O9BUOdVFsyA+YuuWwS1Bm6bjCyjo9lBf3SU9ZWizNWUf+3Klf5oXipUGx8SXTth62D8p8P7mgohYlhrJDUGzcx/TfjtgHZpSixFB2TNnBKq6Tjvylkyg7FBs3MWbDgb6v00qm131olGghMpQY8h/ZgehEhQSruxkonLqyeaEPXhYUG3VEtvFg39epxSgyhBTRiQkJlrkaKJxH0aHY2CuyTQf7vkkpnlT7oVEWRYawQ3RuBornL21egKJDsZEH7Bd7mFC04X11nSqKDOG06OQkRPMHmChuxf11KLY2M+HXQx6+iYULYbd+k8xQZAilRAeSExIQaOhlrHTwn18X+OElQbF9FY/l+xZG5ZX1wagM4dZozlJN9onf3mUH8ZLwsdiW7fZWfZRQuPZfG2JRZghPSE5JSjStv4nSjn2rZuej2PhAZrdjC3aU19Qr4BAT4Zchq4y4SPEwC+VVe1fOLkKx8RBd5v++Bc5aoswQfpccnHV9d/jnjSg2LqXHsr1LYvPLPXCYiSBfH66aq8r4vdy3fD+KjeIMW39g5OvUoskosw5B//c3NBRkc4SFBBvkpMTL5CTFS0WIz9UVZHPJ+oUfGhsFs4vKNFt+L7vovdaHxo+C8HnDh0bhnOIyja/8V1tsLnIk191A4diN3xY/QLFRhFnbjljfi2FsxK0ZP5aVtIRohaqcNIOQUo6Wkly2qrx0noq8NKOTlESptrJcBvyMooxksbm2ShXV/6DItDzZ91U1snUNH0TzSyrUSiur5cuqamUJIWpU1tZLM0orlIvKq5SKy6sU8ksrVFCGrRuqwhaSQRYqW46vnxeBYuMA/VfvnxyaWToSZfZJWmIiwnWG6gpJhmqKKTrK8ukgLDVCXBqKsjkQcRmoKTTy+50blpyjQAhPhfG+QiW3uFwji4gKMwtKtTMLmR916onIEOX3f8nZa8tff7RryTkUGxuwm797S+b7Kn5cCGAKTFtJLstEUynBUF0xmZBYEiGzFE8boyQMOMghOCFLJbOwVCs1v8QgIafQJCWvWD81r9iAiP4U+FB6TMHpdpIIDTn481YUGwswmrnjaItjTbwsNKbAdFXkM6z11CNsDdTfGakrMQXWWUe1AtXD2YgvkZBdTEa+BSE949hMhkU6o1SHD4THFFwnSZGshOPrFqHYSMBwxvajZTX1vCq0zxKz0Ven2xlqvrPSU4voZW2YghrhHt6l5ChEpedbRqfnWxCfd4nOyLesrKmT5EHZcY3gKCs2gxnbT/LYRlqmxPRUOqVZ66tFoMR4m4TsQlEQXFhytl1oUrY9PTXXtrq2XpxHZOfTfCA/6cTauSi2VmA1d9fuvPIaYx4QGlNkxhpKSW6d9fzdLPRejejaOQxvef4lIi1PNjgh0ykkKdshJDHLPim3yIjLh7GU3fRLGbG5L9+3MPr/h9C5UWgoMqTN3HgbbfcmNt2VeOsWm8kw41LRMQVnoyH34OkfS4+h2GifEjf6JRYu4EKhNYlMMYmQ2CeRuVqiyJAOcSsgxvZ5ZLL788gUj6aFCW6SHFNw/cyU/zi/ccErvhWb5uStF6vqGxW4SGh0cVHhmu6d9V95OZjen+Zp/xxvRYRVpOQVCxKCc38WnuQJH6tq67llQcJHRlQoP+PsL1P4Smxdf9qzNqmwwplLojS6ipwUo6+dyZMB9qYPCKHF4C2HcIJn4clG90PivHzCEvplFzGPmFFZcj6cPI/KVrEt2HnM+GpE7m6KC405xLTQUYkhRPawXxcTH0cTLQbeVgiVgCNlILmbb6OHJ2QXmlBYckzBTeyiMfdPNuaGY5vYWpwYGEpFmQkJCjTCPNlAR7P7s/s5YeEMhGuIzyoQvxUQM+xWQPTQuKwCMypKjpDbbQNFqcDAv1fu4AmxrdzjLXsmNOcsRaM0up2hRtioblbX53u5PMBbBOF2YjIYkpf9w8ddfR05Ore4XI1ikmNGb7MdNUdvXzarnmvF1iInGpWiNLq+aqe0Md2tLxNCu2akrtiAtwPCizyPTNG77B8x7nZgzFAqbQ6G6M1WU/7Bk91LWLY1hGVi05267WxZbYMqRaI0urKsVOGwrp1vjnGzuuJgrFWI3R7hJ074BPc+/Sx0Khz9oojgfBQkRdKST65jyckF0sVGoaEnXVJMpGqQk/l9kBlmwEAQGi00KVuJENy0q68iR9fWN4hyWHKfhqZOxNB0KblDU1LFNuKXv738U4rncHjoSYdD5XP7Ox/FebMfAzvf4ZhPeGquTUZBqU7TNoL/ADnd9NU6pdnqa7zzsDZ4zq4XCv/oNJ2X0ak9ItPyrBKyC0wgk25t/QfRf/8cZPeF52iupRxrZ6QZ1tvG6KmplnINtvC32XPTf5T346DZTYk4OSY4GJr2MVHeT2Z9VNLE5rZ0z5J4RgUn59PoTibaQYsGdT042Mk8Arvtt0nKLRLefePlz7feRg+FDLTt6NR0BRmJ4gVeXQ+vGN79Giue4+aLz6ad9Q2dXFxerdDOm44OeesWDux6cEovu5fY6t+GiN6c/rr7ejEnh6kgNzKPZJEiNos5O//MLas159DQk97L2tB35Ygee7qa6eRgN/0+dwJjrecdunm0urbehYxr72iiFeKzZeZssp4fcXNJj9554WpeCWkrevRuFrpv7m2cthBb//s8Dksw23PLf0VwQpYDhwTno9dJIpCMA/UdFpvOlN/Oltd94MQiAX2AvekjQmi77Qw1irFbtg6taTteV9bUuZLZDjun9V9LDP0fkfFgHuuOnaKn5E4ju6+sIvrJujEe/2APaN3w//frL1a9iklz44DgfOQlhLNTT62fwTGxaU3eerayvpHdUqP3tNR/uXF8780otLaRmFMo6rT8YCDZnXV2P6eFv08fcIiMx1Kb/Ftgbf0HJ7L/9oGOZtvPrxi7HntB6/GNSDb47ZLvhncpObZsFpyPrJhwfvqZ9e0+a9pusXHgADu9i4EGfeN4z83uVgZp2O3aDiQ/dF5xsJbsxyVTbKqTfgusa0CxUW36YuulZxua8sexS3CE3ISy08/80q7IrV1iY7PU6Kry0oxNRIQ2vqfNG+xmKDYUG2c4cO/toN03XqyCModsEly75dZmselP33aytLpBkx1SExUWClrg5XJ404Tep7FbodhQbNRgybG7y8/7vZvY+PGjHTvkpiwtktjWGgttEluX+b9vSSupdmaD1OguZjoBf80ZvMRYQ6mOVzrEw9B4C1hSj0jNtYrPLjCDkm5N2xk+RcKKsjmmmspxBmoKqYbqikkORpohZJ6SQLGRK7Ybb6LsYrMKLNIZJTrpjFLdppVcJlDnVUtRNstUSzneUlctylpPLcJKT62MV/pyYHym2k/H7uxnU2YRHxNlqedtOUDfarH1XvnnnNCs9yNZLDW6jIRYxa8Tem+a0cfBl1dkdull+NjHYQn9mzaWtqUT0MVEhOqs9dUjHI20gkH2Hdmjh2Jrv9jgRg5OzHIIjM9wDkrIdGK8r2yuLt/a9mROqYx0tbw+2s36iq2Beikv9O9d116M23vLfxkr2qwlsM/NUafT9Qc7f2pVAedWiW3ejqPG1yPzdrN48y0d0gbd3Th1MS80ONH5VSbvuXyu6QYg6xWNDu+gaLKjsVawo4l2kLOpdlAXg9atDqPYWi82mDAnJOZCtKNjRFqedTs3Mn+zHQmx0b0Xj5zNC0kYIDfcnAM3jrI6ZRLIbYKt+tz9P8/5YV63VolNecLmW6yUmoiQYMi6sb22LR3S7RavhOrGc3Y/KSyr6s2GX8VMVw4rxiA7OH1B3MRRKLbWi42ekisfmEBILD7TKSgxyzGr8L1WG6OxdqGuIPMo5tDyAbzS59ecfjTv2OPAuYRSWCq3gn82Deuw2Fi8AZcO0cfZ5WMn80poDsRmMiRdVx1+TePM7m1mVAf1Sx1NiKjOWCvE2VQnwFpPrQzF9klsMD3QLLF3KTl2HEzpQ3+xc25Pax6ae4PTC3MP3jz6vrKmB4t+Rav2uH1XbJ4r9s0Jyy5j1bwac6PtrV+mLKHxIMN+O7v/RVRqDxo1UsQwM50Qw54kYlhFeoENbhCbsqzUUzkp8VIK1fLk2f6fml8iCNMw0Rn5Fiy6zj4uuvLnH+5acq5dYmPhEJQO2zi2Tel3jMbD/HbZd9LhBwHzuai6EM+KjUIwF4Tme3U9vGm852le7v9T913ZfCcwdggr+v6PhqTfFJvu1N9OltV+IH2/mqCAQBghtPXzBpBztpAbuOIf4QTn7gLiM7om5nB99W8UWztkJiwk2ADTAl4OZvcXDep6j1/6/tozj+YdeRg4lwX9/btnSr8qtmlbD9vfjmZsJ1tqsOH26KIRc4e5WNBpfMz94DhLQnIuAfGZzhGpuWSvuKHYKCAyWUmxMkdj7RBY0HEghOZpY8i3iU7hxMLGCz5byV5UgKhtmKXaRu91cyNaJTZWDEFh5fPM8jFTB9hjXc5/8zYuQyMwPsOJEF1XEN77yhp2HVlBsZEgMXhnpqUc1ywxiMzMtVWqsGf/n2OPgvquPv1wF9n9+ltD0v+IbdLmQ273Yws2kBmtgdROLh09fdA3tiEgXwKrqoTkXEB2QQmZzqn5JXpUHr7ymdiaojEtOBXCXHXGtPOt4+ijwP5rTj/aQXI/9hnaWWXd6Q3zQ78rNhZEa/QD84Yunuhu+wqbtv3AhlHm8DUuo2tkep5lw4dGYaqIjofFxozGTLWUE5jRmBEzGguy0MForL1sv+I3YfeNl6vI7Ltfi9q+ENvs7UcsrkXk7yMxWqMvG+a2b+M4z7PYpOQCyQCbh69wxKe8ulaaU6Jb4OUyl6wVbuWJW4MJaTtwSmRwpA/O6DqaaAfDxz5djBOwt5HL3IM3113xjxhNYn/1GWujtujI2rmJXxWb+qQtF2saPo4jq5P0tzd5dHHV+LXc3AgRaXmyMMEPh9cJecDcF620slqu/kOjqK6yfLquSqc0HWX5DMivb8bB4iGQUvvTgkQGMYTNdGbX7nlo5+vrJo3sZW2YQsaD9f7l+InQpGw7djxveAft1nJurLOOagWn2hCO4aUzSvVyS8rV4ED9+8oaefi+irw0Q1xEuKaTtEQxFPjmhfKRnuu9T4Ql55DWzpIigpeyz20Y/1WxkTkMVesk8yj2MHceF/nnBd2VeEUZ+zo23bUNQz46VEpyNtEOcDbVDoSjTW4Welmc/DugAlXgp+GrM4i58eNHQRKFwdyPtW1yv/Uz+zo+JfN5D916dj9UpiJZbnRpCdEKGE4SYgiFIWVfDkZjMI8KAifeHEKSsuyjM/Itm27FH/3NdAEBWKxQieveWc8fDtQTkSVXik53xs4XZVW1pJxQ+Pdw9LPYPJbvW0jPKRtCxjCUuPD0G+smD+e2TLfzD91ac/Nt9HCS6i0y9y5Z6qpGuZjqBMKxJk5vc4FUzzBshYguODHLqbKmrj0bh+nEi1beiK6db7JygzUMtS/7h495Fp7s2SIdUGufK/M6G2soJX2aG2MOLYOItuBYNAZHjUIIiYUlZXchROZAYrJGuoGaQsr4HjYXV47ocY2b7jeojgWH50m6Dj52mrLXn+1ZduwLsZEYrdFHdrO8fnzxyN+46SL3WHP0XGRaHivLjzFvNi0luSwimgt2MtEK6mqm+4aT5wTDU3Pl38ZluMCNll9SoZpd9F6rpKJaXlZSvAyGP0qykoUK0pIlzFdXFfk0uIGs9dQjiOEb23PkvYlN18grrVCrrWsQ/9HPQmnAfnYmcZy8rsSLh1NocrZDaGKWfXJesQEbpgXonjaGvtfWTlrBTffd8G3n9j2PTFlKdtT2WWydxm1+TEa0JiUu+ibr9Npu3HRx36XkKPRa5/2Mxv7JdzpxvaogoiBkxxy+9rbFrQPcBqxYQyRMvEA4ElKzrvkkX1sOPBV68L5FjtyUCikxp0jU7efD/iSthPuUXNrU77PYZm8/an0tIm83CWKjLxnSbf+vXJjK22bx/ttQCZ3G2S0UzKius45qjBPM0xlrBYHsiEipkZuu5Tm/dz3uBMYMrvlBdAXZR8Z1t7nEiQiwvcBmapgbg/2FkHiyHcNklqGpKPsg6uCygdx27y3zvrf09LPQfWSIbbS12rJj6+bGMMVmNHPH0aLKujkdfVQxEaGgvHO/OHPrKy8bV+TaJDtlWalCQnRBLqY6b50J0RFCYFDt2sFQ8cJz+qSbAdHD25gGiA4rfWO721ye09/Jh2rRRFhytl0IITBIOBmTybCg0v7BltcQElceWzRyrrGGItel0k/JKxZ0Wn4g+ENjx2soKEuLHIT6CEyxkTW/Nqqb1QbvxSN+o3ExtwJibE/4BM98HZvm1spVKrZ3YsinDx3ZyVg7EDLoDuTgiY69t/xHEEKbmPJpHqkj14ouIiTY4Glr9HRcD5vLQ53Zv9DyLDzZKDQpC1Yq7WFoWfppu4UtRbsqvZO0RKm7lYHfGDfrK/3tOTenSAYT/7i07UFI/LqOPk7zPBuZYqNfWDluopcD75wFhawcAQmZLsHEq3UbluM5Mnw1VFNIcWraZgJRHSvPKoL8z/u9m/w8MtmdeJUVZME1YW6dGe7S+SYhuUuEvPPI/htg318wc14s2yE0Ods+PqvAhCpDyq9dD9jiYaGtGuNgrBlsb6QVBttVOLlvkmygMM7Mv66f6Oj1/0JsZCwcSIqJvMk+s64bjYd5EZWqB6/owYlZjoHxmS6wgkjVGwHEAJJzMNIMtjPUDOvoogRsVL7w/N2ka68jRzZV1mLX302HbMAQxa0e1fNSR9vvnF/YpEehCQPaudWFbe0HK7vOJjpBzSLraamfRuNx1CZvC6ytb+joIgJzAYE0sXU10zny4Nfp82l8RFJukTDMv8CrPkwmR6fnW5C8CZa0GwW2b/zajqLTkJWBENpEKGjSxr+LDmcsx7pZX7bSU4uA0xlwcgMWaJ5HprjfeBs1vKK6ri3HwJiRKVTqGtvd+vI0T/vnrX0iUGxk1akHu2ELBhXbBobgnXVVowiRBRIiC4EXIm5bMCKDvhtPeAcnZM0iRWyr/jgm4R2cc6ujYpvv5TJ3O49nxG0NsLEUZMeM6hIynNgc3fzwJprT38l717QfH1hfceL+TyC0NpYMpMtLiZeOcLW8OaGn7T/2P9gRD0P9iy/Dx7+ISnFvY64u5jzj3Q1TB/9oIeXUk5Bea8482kGRg/VMOWsoyOYQ1yaMkPRbe0JirBhqcyOrTz9cQLyQHuyo2GY7agwTWLTzqNb5d7mZHX1SxM3Sj2qrWlQgOa9YODSROXwNJKI6WnRGPu1D40eO3lwwrDu8YNjO7/3Q4C1n/n4Vk9am6tvt3W4AOfIn7L74IS6roE3/z81C78D3yjVCpOa+9pgfmyqWfxNpCVHaaDdrmoeVgU1H6sLyOk1pjR529HEmdVHXFpix9bD1jaj88A4/qYXDncd0tw7C5vkvkDGXkFokMWSFzcC06tp6jj4fYw3Fa0F7F43+3s80FaP5qS2PqyAj4bt+TK9tbSl2HZPBkPz59IPdr2PSF7T173A11z10f9O0hd+V7dTtr6tq61053QeEhQRpFtoqZ51NdQIhWiPeQnihpiiZXPaPcJl38Obbjj7OcEtVB4HJmw+53I1hdPjBzi4fg69GtP/XqITNm8SQ1DGdwdz0S6PIcJSur9op7eSS0dN/VO4wNClbadGR23+3owguM/XPJI8u5743NQFnJyEXPsy3tePa0C10VGJgzvBHaYUC4jLUZvx17VRuMXMjrS2Vugps14AFHkJyoSA6sjKkcCt3g2Ktp+y90uEga7CFSlfSxPb33CHdic7Md8kkIRqDSengpCxHekqOLQeP03z3JlKVl2bM93I5vKSNRalBcBeev5tw/U3UyDYe3KYLCQo0elgb+qrISX8xxoTNrk1l8NokTFgAGd3N6urY7tZXrNp4xvaXcz6zjvsEzyYpwQFL2gjemWurxDFXsomojtNplNjNhed0N+LF1J9SYvt1Qu/hS3iokvvXgDOlTIl92v9k33QEi0aj8N42e2Ot0GEuFrfIqDUB2RjO+72b6B+T2oNNe/qYVe4HOprdh6NXZJyjPfQgwOthSPwAOFHABWURmamWYIHB3kgrFFZMeblmCBR92XDe5y6lxEa8iq49snD4Tl660PegmtSn7BecPtz8wxsA8vBDrjHilf4dcSOEsHon+o6rzyf884I+vimhJZnXhCllNwu9V7Ctg5WjAFhcgBMGocnMvGj2CdmFVN6k+/nawHQCZPglhq6+xDUK4JX7bfHROyuJF87dlBKbsYbStaC9C0dz+8WFfVuX/cPHNmX3pGQ0BrvQiSFKFCEy5twMTEZzqirS88gUPTgjejcodnAHh3l0qFQPK7YrhnfnWF6xp/Qko+bkj5CzjuIVw+iiwkJ1g53N764b7bGd2/e+NaUOm0QpsUFyyeKLm7pw60WFtMwz9l87lV1UpkGhjsx8hYa8aDDJDEkTYe6lR2f9DCpew5NPQnrB3rc2pHxm7rAf0dXy5tgeNpeomAk2MadQNCSReezKrvloHYuOkXUIYsgecGzRiLncvIBHVr0LUsUGnXTrpL4buLXKtc70nf7l1bVunBYZpNu21FWLcvxU2i1ohKtlGLddS0h7/Sg0oX9TIehvAtmFB3JhSUbIZAKnTUB0ENXll1aoUCG65+ZjjZDq6qejd/aTcQ3JFht01PP+u+ZN5raLSrwKS7v9fMSfzR2TGY3BUSMiUgmF1NVQUIRb89fzO7cDY2yD4j8tKoWn5tpyaPWVXnKJO0dN7dk3yTaxwYW9tnbSaE8bQ67LAjvzr+sbb7yJGs7CzsjMlgu5x+wNP4mMCplQErILRWF4BQsj1XX14gXvK1UkxUWqlGSkPgtWQ1E2R0xYqMbFTIftR3/giNrbuHQXYnhrn5JXZJCcW2zQdB73m8C8k5WeWlRzVmJO1Jpo3s8Iw9iw5OwuKaxPD04fYG/66J9V47iuKhwEFt1XH/Fv47E6toqN1s1C99C9jd/fDU5VjvsE9z7rGzaVhNoHzBvJTEs57tPmy09pZjhZTKR5iAh/G52IKOgpOV2g8HIbDqLTm4Y7VSANyAM2qpvVNVbtnt988dm0C37vJhaUVSqR0RbqCjJ50Aaw8x8yE3OihB0xPDeD+hKwAgsLFCTVgqXrqshnDO9qeXPTeM/T3HjfzTt4c81l/4gdZD0eS8QGF/rcirGTB3Hh3EnLKObq68gxvuFJHrFZBRY/yAjLvHFa7iKH7AycjlrhVRC2qESk5lmHpWTbQ+YRFuzbog92Mr93dvmYDWQ9YEhiltLEPy5dYBCRIyujG5jLtNJTjyAkFwzZiTmR2BKOkzELviRl2RGRnWNMZr7FD/YHMp8jpKSCF003Cz1/uP42+t8/RUJlYMuNx7pjfmRkz2W12GjaSnL3Ig4sHcwr8ydxWQXicLSIEJxkDTFcg5tOTFS4BubHdJTkMjhdwBZypb1LzrEjZGZB3CT2kMKajXvu6BANxRwip4Zs5wX77ucUl3mxe+TIHHIryObAbn+oC+v4KZcd29sVEgJkF73XyCx4rwMfYRpAgCbA/DdFWcnCvjxWmd7r11OH38ZlzCPzMVkmNugos/s5ef8+/cfpcZC2z93ArvkoYhgJ805xWQyzNqYWYsnTWjPKfVdHE0EyI99xm9/RKHKuFlIjWeurRTgaaQVDHjg8C00up5+Fui/zvreP7PZmpdiY+9rOr+CtVOHsBs5pgsSa5sW6xGUyzOqpWUyERohtPI+J7atRHdSFJSK5MGdTnbcQ3dnjKna7gEI57muP+rEi8wpLxcbspNISz1OO/+yBzfhjYIPwu5Qcu6Z5MZtYQmIUzcbLr2L7ZlRno69Oh32HENVx89wyO+m55uiZiLS8Kax4bJaLDRreWEMpiReOWpHJ65h0rYi0XGtCZLZR6flWILGmf7Ll1r+JT8X21ahOm4jqmBusobCOqXZQFwONYuz1/2favqubbwfGDGFVO7NDbMzG7mah+4Zbt4CQgV9kisHDkPj+L6JSenLBQWsUG8n9HzKUuJrpvhnZzfL6hJ62b2h8zJZLz6bsu/VqGSvbmF1iYzZub1ujp1fXTFzFT40IOf23X/Vb35Rs0paX/1YUW+vuA9iqMaOPw4mN4zzP8pvUCKGNIMS2gdXty06x8Z3coBjKySch03ldaCi29t0LmoqyObC49qNMxrxCU661rexoW3aLjdmgPS31X976ZcoSXm7ElLxiQfulf4dS4AalwzvI3wWJCqF6/C/nWNO5qC42My3lSzDRH5ORb0GVlWVlWamnCcdW9uF1qUHuvt+vv1jFrmvOCbExbzbIV//69/kTebkxOZQthFlvwMFIExJOhkLiyX8nnGSVOKgutoUDu87+bXLf4/B5YHymGhxtIj46hyZl2+UUM1NV0TggO3rQ3oXOxhpKdbx6Hyw5dnf5Wd+wyey8tpwSG7NBYZf3hZW8G4pD1fHZf133JuGs4zevYcuEk5CnDTLnEi8aVZwQBzeJ7WtAIZFAZnYOtmVL5tpD661l1I4Le56FJ/Vi9wsGJ8XGhBgaBO2e4bVqskeXl7zauOf93rkdfRQ4Nyo9vyMH6+lNQ5dCRxMtZsJJOFjfvbNeBlXEwe1i+zeE3OSbRMc8tE5idg5mdaqZfR1PrB/jcZ4X+zycgZ2059KF1PwSPU4M+TkutuaGntLL7tz+OYP38vLQ9G1chsa9oNhBgQmZzhFERPCdeR76J+kL1VnpqkVAbnvY4T68a2dSEk6i2NpPB7JzfK7YNaGn7UWy2pKKXHoZ7rLixP09nKzlShWxMRseNvJ6Lx4xm5szFbQFqHdJvKIxo4DK2jrJorIqJXUFmRwDNYUUNwu9LFb9XhQbeUAGFSgjmJJbbJCQU2iSVfhe8/+jEaE6HZVO6eZaynFdDDXD+CGB6Mz91zbeeBvNypyGXCc2JiJCgiHrxnhsWzrU7RYNQbFRXGzIJ15Gp+osPHz7IAsqlvGG2Jqjty4GGnRiaLqkrUVxERQbio29NJXMm0ij0N5DqoqNiTARvRGd8eCvE3qfxu6DYkOxUYsbb6Ls1p55tIPFCUF5T2zN0RscKN48sc8mXp5wZScqE7cG15NQ4uzfbBrvOZyMKQRWiW3RoK6zt05CsXUUyHi79uyjHa9j0l1pFD0hwg1i+yw4V3PdNzum9l9rjcPTDsGKojVQ9s1v+xwPE82ObzS1WLD3YW5xeX+y+8/5FWMnD8SUQh1imfe9pef8wiaTmcab38XGRFBAIGy0m9XVIwuH78Ru1n7gHOuppyHTSagKRDfWUEw6NH/YfLLSo0PNg0l7Ll9oqtXZYfnCgtQv4zy3/jTY9Q62fPvYfsVvwqEHAQsra+rIrpmBYmt5M0F5tcm97M79McPrAHa79pGcVyx80id4xv2QuIFtzD5Ch0pV7lYGz8f1sLnMqnTZcL7w9LPQqYz2CY4uKylWBhXmFw7qeoBVlbR4nf13Xg/76+7rxcXl1Qo0LkpMwK1i+9x5Ic/VNE/7M8QQ9Qh2w/YDBUQg8WVcZoFZRkGpDuzHalm7U0VOqgBSYmsry2fYG2mGsTNxYnBClkpQYqYTnOkknpsubCloUXmdCZyPZRbWId66GGq8gzJ7hHjTsGXbx95b/iMOPwiYX1hWxarjgCi21kZw43vaXPxpcLe/DNQUGrFrIkjb2XrJd8pxn6CZZVW1sjQuTh3FK2L7jJCgQNggR/N7Cwa6HHQy0WZgV0WQ7xOVni995GHAvGuvI0dToNoZ9cS2bozH2KuvIkcn5hQaUeDiMDf5guBGdbMKwe6LIF8C2Uy8HwfN9o9Oc6PC/QpHKmFhcPsVv8uUEtvFVePNIfcXxXYi01XlpRkT3G0v8GMqZgRpCRQRuvo6YtTtgJihpZU18lS5Ryd5dLnw99whf0CSgfG7L8ZSUmzwOexKXup9b38bsh+w/OJB7rJe1oa+Uz3tz2DhW4RfgBRCV19FjLlKDDWzi5gJNaky1GQmRf1z9qAlI1wtmZvvKS+2Znr/cvwErGZRbNxOV5KVLBze1fLm2O7WV7DgLcKL/Hnn9TBCaKMJsVnQqDdvRofV9ae/zZrZ8ptcIzZg04UnMw7ce7uw8SMldyszN5iOcbO+vHJEj2t4OyDczJlnYe7EUHP0m9h0148fmd+imtCYm+wXDep6cPPEPif//W9cJTbgVUya1vLj9/Yl5hQZ0ai56kKHdzb66hFDnM1vE9HcLX3VTrhtBKE8hx8EeD0MjR8QEJfhQpUiNd8LIvbOGrTsW/kGuU5szfx+/cWYvbderaitb3CieH+hW+mpRQ1yNLvbz87Eh1+SXyLUBxKU+tAT+94PjhvILcW3oQTA8mFue34e2fPK936Oa8UGQGk6SB38PDLFncYde2aYhWf62Rk/9nIwe9Db1igJby+EndwJjLV+HJbQ3+ddQh8uOw1Ah6N3e2YOXNGajfNcLbZmrr2OdFh/zmcbg6TDzuxqKDjG5Wqm+8bd2uBFbxujp+ba368KhSBtJTGnUPRlVGqPByHxA17Hprlx4cZZuoq8NGPb5L7r27KPlCfE1gxkmoC6gw0syBHGjgaEfXIe1oZ+bhZ6rya6277C2xJpj8heRae5vYphvnWjYvLG1gIJYqE4ExGl/dXW/8tTYgOScouEd157vubmm+jhFF09bZXk4B0MW13Ndd92s9B9BZEdGTnKEB4VWWz6J5Fx16jlq8Bq53DXzjfXjHLf2d5sKjwntmZiMxmS2674rb8fHOdF44EzayA7OSnxMsg2AUWN7Y00Q3COjv+A85jBiVlOnyMyHhBZyz7u5WD64JexvbZ1dFqGZ8XWTFhyjsK2y77rfSOSe/FQB/gc1cG5OCtd1Ugoy9ZZVzXGw8ogBW9/3pEYPSXHNiItzzo0Kcs+JpNhwYaq8hzpy3CSZz0hNDtDctJY8bzYmnkTm66x4+rztfBKx4Md4wvZQW0Ha331CFNN5XhLXdUoYgib0FlHtQJVQW2JvUvJsYtMy7PkcYl90V9hPnntaPcdrua6OWQ+MN+IrWUH8n4cNOfKq4jRfNBxPncgqB5ORHcJIDkjdaVkYw1F4qNiEllpuJHWAQVMkvOKDZJzi4zisgrMiI+GILHa+gZRfumLsBtgjJv11dn9nI4RL7wsecHlO7G15O97b4Ycfxw8EzK98kmn+mqEB3N3BqoKKQbqCsmQOVZbST5LR1kOPmbggkXbgQWslCZ5NUnMECSWV1Ku1vQjfNnXoG/N6ud4YvEg1teM4GuxNfMgJN7i+OOg2X7cs9GXreKDg/6wQgv7iVTkpAugg376XAq+ZjiaaPFNIs7EnCLR/NJylcyC9zr57ytU8glZwQQ+8bkq8T2t3OIyDYofR2J7H/KwMng+q5+Tt5eDaQy7fimK7V+dlhiijrniHzGaj6O4dsmvGZCelLholaKMZCHUNxAXFalRJgQoQXyUlhCtUJCWLCaGxQ0airLMORUhQcHGrmY6Oex+0vFZBeIFZZWw856WXVSm1dj4UbCkslq+vKpWtv7DB+Hc4nKNuoYPokSUpcqsjfC+Qq26tl6cjyOuNkdnY7pbXyWGnFeMNRTZHvWj2L4BnKMDyd0KiBleUlEtj52ZPWL8EYICAo1QDKb564qaWummykftAduUxHbsJC1ROqxr55tjulldcTHTyePkk0GxtXKoSkRxYx+FJfTno0leBPmhzMREhOsG2Js8Gu1mfZmdQ00UG8mc93vndpmQHJy7o2qeKgRhpcwggzRs04Dcg5M8ulDy6B+KrQNAZtGbb6KGwwZKHNogvD5dYK2nFjHC1fLmkiHdblH9CaPYSOK4T3BvyGsFGUdh0hklh3C7zKDGbjdz3Tdejmb3Z/V1fMpNTx7FxgKgAM3jd4n9fcIS+lCogg+C/FBm8lLipX3tTJ70szN5NKJr5zBu/UNQbCwGUpk/DIn3gnxYaYwSPZQcQjWZ6at2Shtgb/pwgIPpg2+l2kaxodi+Ceyduh8S5/WEntQnNDHLATdyIpwQmYiQYIO9sVZIX1vjJwMdze7x4ukSFBsH8Y1INoBD+f7Rad0hi0MDig5hgciECZHZGmjQu3fW84fVzF7WhjyfAQbFRiGe0pOMPokulRBdrm3jx4+CKDqkrSKDhAc2+uqEyPSZIuPHvH0oNgrzOCzBrDmii0jLtcZ9c8jXRAb7ykBkhMReEzJ72beLcQK/XxQUGxfxMjpVJyI1zzokMcsRRJeaz1yMQNnxkcTgHUz2W+upRzgYawVb66tF9Oisn4GXBsXGU8A8XSQzw2q2fXhqrnXT4X2UHY9IDA6TQ/FteyPNUEgeihmSUWx8C8zVQUQXlpxjD4Vwk3OLDHC+jtoSg8P9huqKKaaaSnF2hprvIBLztMGaFig25LsQghNNYiY+JN4I0cVmFphDIsSi8ioFjPDYF4FBbjsDNcUUc23lWBCZoZpiEmQyxoSeKDaEZEKSspUSicguIbvAJDmv2DA1v1gvv6RCrTlfGYqv9eJqlpeqvAzDQE0hhZBXMkRhUHSHGE5iGnYUG4qNKryNy9CAtNb5pZ8yxuaVVqhlFb7XhGyx8HllTZ0kj8uPKS1IoKkmL52nriCbo6Uklw2fq3aSyYNC12rER04kzERQbAgLSckrFswhRAefQ/ZZ2GzcnJG2pq5evKkiOS2zsFQbtq0UEtFgVW29ZMvHAHk2JRAgFQUZiWJpcbHPRUMkxUSqlGSlCmGbhLaSfCZ8D9Kci38jyy9Iq72FexEUG4oNQRDeFdvxxSMdR3azDMHmQRCkPVx/HeUw6+/rwZQS265pA/rN6e/kg82DIEh7OPYoqO/q0w8fU0pss/o6Lt49w+sANg+CIO1h+Yn7P516ErKfUmKz1FU9779r3mRsHgRB2kO3nw9fiMlgTKCU2AQFBMKKLm60x+ZBEKQ9KIzf/O7jx45vPyJVbAT0dWM8dqwa0eMKNhGCIG1h2xW/SX/ceLmCRqOe2GgaCrIPog8tG4jNhCBIWzCd+8djxvvKvmQ8Fulig6ht66S+GxYN6noPmwpBkNZARGqjiIhtPY2kUzCsEBvsGPdN9v7ZE5sLQZDWoDN9p395da0bWY/HErFB1DbQ0ezB+RVj12OTIQjyPYZvO7fveWSKO43EM8usEhtTbvvnDF4ypZfdS2w6BEG+xt/33gzZeP7JZhrJiRhYKTaamIhQ0O1fpg51NtXOwyZEEKQlz8KTjcbuunD5Q+NHO7Ifm6ViA5RlpZ4+3jqzn75qp0ZsSgRBgKj0fOlBW07ff19Z04MVj89ysQFaSnL3Ig8sHYzNiSBIYk6h6MBfT98vKKvszarfwRaxEdB1VeQz6H8tGYrNiiD8S1xWgfjwbedu5pWU92fl72GX2Jhyg4ylV9ZMHG2tp1aGTYwg/EVgfKba+N0XL5ZUVLuz+nexU2xMpCVEX51eOno6VvJBEP7hVkCM7YLDtw5X19a7sOP3sV1sgJCgQNiaUe47Vo7ocQ2bHEF4m80Xn0378/arJTQ21tbgiNiah6b97U0eXVw1fi02PYLwJiO3n9/jG5Hci8bmgkGcFBtTbuoKMnkH5g1d2MvaECtlIwiP8DgswWzxkTt/N5WCtGX37+e02JgICNDos/s5ee+aNuAQdgkE4W6asuBOp3GwrCMlxNYcvWkryWXtnuG1qp8dVrpCEG7jYWi8xcoTD3Y3lXO05eRzoZLYPgtuiLP5nTPLxmzCroIg3MHUfVc23wmMHUKjSPFtKoqNKTdxUeGaRYNcD64f43Eeuw2CUJMdV59P+Ovu68U1dQ3iVJEalcX2WXAq8tKMdaM9dkz1tHuO3QhBqME5v3c9dl59vpoKw05uFNtnwemrdkr7eWTPXeN62ARgt0IQznDzbbTdjqt+axNzioyoKDRuE9tnwRlrKCUtH+a2BwWHIOwV2t5b/sui0vMtqSw0bhXbZ8FpKcllLRrU9eDc/s6PsNshCGv45wXd9c/br5ZRPULjFbF9FpyijGTxFE+7MxvHeZ7Fbogg5LDv1qsRxx4Hzc4rKVfjJqHxitg+C05YSLDBy8H0ARHBHXU1183BrokgbSM6I1/6hE/wjIsvw8dTbZWTX8X2heRMtZQTJnt0ObdwIJYARJAfceE53e30s9CpIYlZDtwsM5aJTV5KnFZaWUMZwYkKC9URUdyjSYTkME0SgvyfZ+FJRrCh9lZA9NCyqlpZqgiNLIeQKrYzy8bYvEvJsfv77uvFrCjQ0BHJqchJMYZ3tbw5ys3qmoORZiF2bYTfuPE22u5hSLzXo7D4fhXVddJUis4gldniwd3+7mKgETZ135VwSont4qrx5v3tTeIC4jLU5h26eTSdUapDwdCWuSduZDer64OdzO9gNl+E14eZdwJjBr+ISnWvrW8QpeL9CGUDjiwYPtfFTCfvUWiC2fjdF2MpKbbmrxcdub2SuLATKTxuZ17Uoc4Wtwc6mt1zMtFm4K2AcDtHHgb2vx8cN/BtXLorMXISpPL9N9Hd9sKBeUP/aP4GV4gNuBccZ7n02N39ReVVCjRqT0wyj2/1sTV60reLic8QZ/MIvEUQbuB5ZIoeVFL3jUj2jEzLs2z6NqXvNdim9eecwUsGOZpFtfwHrhFbM8ST3UE86f407lh1YS48uJrrvvG0MXrWy9rQ10JHpQpvIYQKRKTlyfpFJPciZNYzID7Dhcu2Znw3czbXiQ2ArJprzzzakZpfokfjrmVl5uJDTyuDF+5WBs8n9LR9g7cXwk5grswvMtn9BSGzwrIqJRr3bctgzm3vmNp/7ffyLXKl2JrZc9N/FJw7q6qtl+TGBoJ3MDdHRHSvXc1033Q11w0wVFNowNsPIYsbb6LsAuIzXZ5HJns0HWei0bhzjxldUkykavmw7vtWDO/+w+JNXC22Zmbsv7bx5tvo4TTu3xTIrJnqZKIdRLwFOhhphsAKD96eSGsISshUCU7McgqIy3CGj/mlFSpcLLIv7ovhXTvfPLlk1JbW/geeEBvwKiZNa9XJB7vjsgrMaDyy65nWdMTLQlslhhBdsJWeWoStgQYdt5YgANTYJGTmRLw5w2R/XcMHUR7q+8z+b6alHPf7dK/V3TvrZbTlP/KM2JqBLALEEHVFSl6xAY818ufGhgUJaHBCcuGWuqpRnXVUo/BcK+8Sn1UgHpddYAbyis1kmNNTcm2bEjPSeLWPG6gppMCwc6K77av2PADPia2Zy/4RLntuvlzBbWlS2tsR4B0sTBBRXZSppnK8iaZyAkR6jiZauKeOi/CLTDEg5GUWk5FvEZWebxWfXWDC7QfJ29KPjTUUk1YM77FnbHfrDuVJ5FmxNXPtdaTD7hsvVyVkF5rwSef4j/DkpcRLDdUVU4zUFRMJ6SXoqnZK01WWz7DHI2EcITGnUDQtv0QvjUG8ER/jsgpMI9JyrZtWKWn82E9NNJUSVo3osXtUN6sQMh6Q58XWDJxv+4MQHLwa8mHH+ab0YKVJV6VThq6KfJqOsnymuoJsjkYnmRwNRdkcNwu9LLxM7SMkMUsJxJXOKNVLzS8m3kr0QWI8PoRscx8011aJW0kIbUTXzmFkPjDfiK0Z/+g0ndNPQ6bdC44byIOTraSLD1CSlSyE0xQK0pLF2spymfCxk7REqQYhQWVi+CslLlrV1UyHL+b4ghOyVOD0S3FFlUJmwXud5s/zSypUIZlibkm5RmVNnSTK69v9CuaIBzma3Z/W2+F0WxcFUGyt4K+7b4YQkpvOhRt9KStBQFpCtKJZfjISYmXQkdU6yeTDvynISBRLi4tVCAjQGrWV5L+ICNUUZPJEhATr/v3g8PO2BuqlHX2SsHIOH2HOquB9JXMrRElltXz5p3Q7tNySMrX6hkbRD42NgtlFZZrwvYyCUh0QV1MWCxoKq/19BDbWTvW0P7NkSLdbrP5lfC22ZmDC9szT0KkPQuK86j80CmPHpbY4Owi2LRvbjXihahjgYPqAiM7OeFgZpLDrF6PY/sXJJyG9bgfEDH0Tl+7agJJDkDbLDPZewkmaoS4Wt2f0cfDlxJNAsX0H2BN3JzB2KGQ8oGgOKgShhMzERITr4PzzEGfz21Q4A41iayXXX0c53CeGqo/DEvpx6dlUBCFVZrBo1K+L8WPIQTjC1TKMSk8OxdYOHobGW9wNih30MCR+QGlljTxKDuEXmcGC0AB704eQNZrK9yiKrYNAcj7f8OReT8OT+jTtkaOh6BBeERm8s9BRiekN+QRtjHx7WuqnccMTR7GRzMUX4a6Q7+p5RIpHQVklN+a7QvhcZnA0z8Pa0I94e97Ro00oNh4RW0sgQ6lveFIvP0JygQkZLrX1uCEYoZ7IYOK/q5nOG3crgxeeNkZPLXVVK7j9j0KxsRGowfiMGLb6RSR7NKVXwmErwrHhpae10TN3a4PnvawNU3jtj0SxcRBIcR6YkOkUnJDlGJacbYerrQgrRAarl5C01NFEO9jJWCuoTxfjBF7/o1FsVOqBKbnyMGQNis90IoTnnF2EB6aRtkdjOsryGZCY1MlEK8jZVCeAHxOTotgoDmRJDYzPcAmMz3SOycy3wHk6pKXIxEWFayx1VKNAZC5mOgGDnbDcI4qNC4nJYEhCNtXwlBxbyOMVnppry0O57ZHvRGKairI5kB7eTEsl3kZfnZk2m3irwcuDYuNZXkSl6kHW1eimzKuwOIHHwLhTYhJiIjVmmspx1vpq4ZCvzFJHLaqbhS7mxkOxIUBsJkMSUqOn5hcbNGVs1YVaEJCKByM8zspLQIBG01dVSNFT6ZSmp9opnXhLg6+N1RWTTDEKQ7Eh7SMpt0gYZNcsPWaGVwbza72mHPsovg4OHWE1EsSlr9opBeTFFBkhMPiegZpCI14mFBvCZsJTc+UhBz+jtEIF0lkXllUqQbbY3OJy9fzScjX4t5KKavkW/4XXJUhv/gQyCivKShUry0oxtJTkshVlJAvhe6ryMgx1BZkcJVmpQl7Y5IpiQ7HxNSFJ2UrFhPSKCNl9pH2kQcps+H55da00IT8F+Dy3uEwdknjW1DeIM5oWOwhRKrVIo80WZCXFyuSlJErhc6jrICwo2AAriypy0gXN0pIUE60SFBRo1FKUY85rqchLMRRkJIu7GGgUY2uj2FBsCIKg2FBsCILwrNjOLBtjM8QZNxoiCNI+7gTGWk/ddyWcUmLbN3uQxzRP++fYPAiCtIfTz0Ldl3nf86OU2FaN6DFx3RiPf7B5EARpD9uv+E3YfePlBUqJzcPK4M8b6ycvw+ZBEKQ9jNh2bp9fZMpSSolNWkL0Veaptd2xeRAEaQ/a03f4V1TXuVFKbAT0Ez+NnEm1yjcIglCfG2+i7Gb+df0EjYRN42SLjdbTUv+vW79MWYLNhCBIWxj229n9L6JSfyLjsUgXG0RtD36dPrCrmU4ONhWCIK3hbVyGhtevp+7TSDrixwqx0VzMdI48/HX6fGwuBEFaw4BfTx0OiMuYR9bjsURsELXtnTVoxfTe9r7YZAiCfI9TT0N7LT9+bw+NxIQMrBIbTUZC7FXGqTW4QoogyHfRmb7Tv7y61o3Mx2SZ2CBqszVQp/ttnzMdmw5BkK/hse7YKXpKri2N5PRZrBQbU25jultfPbpw+HZsQgRBWjL34M11V/wjRtNYkBOQ1WJjym3pkG77N03ofRqbEkEQYPM/T6f9eef1EhqLEp2yQ2xMuW0c57l12TC3G9ikCMLf7Lv1asSWS8820FiYvZldYmPKbc0o912rR/W8hE2LIPzJrmsvxu289nw1jcUp6dkpNqbcZvdz8v59+oBD2MQIwl/8fOrhAu/HQbNpbKizwW6xMeXm5WD64MLKceuxqRGEP5j4x6VtD0LivWhsKh7ECbEx5QbVsP9ZNX6ivmonLGeGIDxKan6J4ITdFy9AIXAaGyuicUpsTOSkxF/unzN4yVBnCzp2AQThLW4HxtguOXZ3//vKmh7s/t0cFVtz9DbV0+7Mn7MH/4ldAUF4g6Xed5eeeRY2lcahurVUEBtTboZqCikH5g1d6GKmk4fdAkG4k4C4DLVFR24fTM4rNqBxsBg3VcTGRFBAIGxGH4dTu2d4HcAugiDcxaqTDxadfBIyvfHjRztOPxdKia05etNUlM3ZMqnvhhFdO2MmXgShODfeRtttPO+zNbuoTIOTURrVxfZZcG4Weq9+nz5gtbm2ShV2HwShFrGZDMmfTz3c9SomzY0qQuMGsTERFhIMGd/D5uJfc4fsxa6EINTgp6N3ll98GT6+4UOjAxWfH+XF1hy9iYkI180f4HwYD9MjCOeAw+uHHwbOr61vEKValMaNYvssOBkJsYpZ/Ry9N47zPIvdDEHYw5ZLz6Ycfxw8u7y6VprKQuNWsX0WnKSYSNXMPo4ntkzqcxK7HYKwho3nn8w48SR4ZlVtvSQ3CI3bxfZZcKLCQnUjXC1vLvByOWSlp1aGXRFBOkZUer70wftvF914EzW8ruEDpYecvCq2LyTXo7P+yzn9nbwHOppFYfdEkLZxPzjOErJvvIhK7cGNMuNVsX0WnLqCTN6UXnZn1oxyx9xvCPIDIEfaGd/QqbnF5WrcLjSWiK2/vQnNNzyZRoSvlBCcsJBgg7uVwfNhLp1vT3S3fYVdGEE+ceE53e1WQPTQ55Ep7g0fGoWpIDRRYSFaLxtD2qPQBGqJ7eKq8eZwamD2gRve8VkFJhSyP12EkBxs+B3WtfNNIpp7iV0b4TfO+ob1uPU2ejhsqK2niMya709TLeUE70UjZsPphfG7L8ZSTmxE1BYHn68+/Slb5sePlAtt6UKCAo3dzAnJuVjcnt7HAYs6IzzLqSchvW4FxAx9HZvm9qHxoyDVhpoCAp+yau+a9imrNhGtmVFabMCz8CSjBYdvH2SUVqhQdOxOFxQQaOxqrhMwxMni9pz+Tj54KyDczrFHQX3vBMUMfRub4dL4kXoya773VOSlGQfnDV3Y29YoqfmbXCG2ZtidFri9FxreOZpohfSyNnxGvPk6mWgz8DZBqE5QQqaKb0Ryr2fhyZ4hiVnNR5wofa8NsDd99M+qcWv//Q9cJTbgnxd0143nn2wtKq9SoHHHygtdTkq8zJOQnAchuUkeXXDxAaEM5/3euYHMiDfP95U1stxyTynKSBZvnthn07cW87hObM0sP3H/p7PPQqcS4307LupHzGgO6jT0sTV+0svG0NfdyiANby+EXfhFphj4hSe7+9AT+zUtzFE9KvsCIUGBsCme9mf2zhz41/d+jmvFxrRESq78qpP3d4ckZTvQuHPfDF1CTKSmm7nuK2LI6udqrvvGRl+9FG8/hCzCU3PlX8emu/oSw8s3cemu1bX14tx6r9gbaYbtnuG1qouBRvGPfpirxdYMLD9vvvh0U3F5tQKNuzcG0qXERascjDRDnE11Ap1MtIM8bQyT8PZEWsuz8GSjwPgMp6CETOfgxCwHbjub+bV7QkFGonjT+N6b27K9iifE1swy73tLzz9/N5GquZ3a06gCAjSapa5alIupzltnQnQju1mG4O2LNHPtdaRDYHymSyAhsqj0PMuPH7lraPk9IIfiJPcuF/bNHvRnW/8vT4kNSMotEv79+oufb7yJGsll82+tEh2801CQzXEx1Q7sYqgZZq6tEodRHf9EY7GZDLOw5Gy7gPiMrk1Hl3hGZM3APNoIV8vrP4/s+buRumJDex6D58TWTGJOoeguQnA330QPp0JRCFbLTkVOimFroAEFpONtiI/mWspxmAqdO4FU2SAwekqubVx2gTk9Oce2oKxSiRcl1hIowjTctfPN1YTQjDWU6jryWDwrtmbiswrEQXC3AqKHU/D0AkuFJy4qXAMrsNZ66pEWOioxhOhienTWz0B1UIcXUal6cVkMs+j0fIuItDwbqHRO9ayyZAOnBoa5fBKaqZZyDRmPyfNia/kquOvai9X3Q+K8Gqh1vo3t0R2kR9dX7ZSir6qQRnxM1VPtRHxUSIGP7Q39kW9PjaTll+il5hcbpH76qE98NEjLL9arrWfmKKPxa1+E5BIDHcwerB7VcxfZowu+EVtLfrvsO+mcb9hkxvtKFT7tVN8Vn/7/RZeuKi+dp60kn6VMDHUVZCSL7Qx/vNTOT4Ql5ygUEcPEwrIqpczCUq280gq1tDymvPTSGCV6fCyub/YxmDaZ5GF3YcO4XixLy8+XYmvmxpsou2OPg+YGxmc6YedrvfgAJVnJQkVZqWJlWSmGlpJcdtPXhapy0gwpcdEKWKKHn1OVl2EYayjWccMfl5hTJJpfWg4vdjTYOlRZUycNX4O0isqrlLIK32sy3leoFH36WqHFf8W+04q+42yqHTSnn9PREa6WLK/zy9diawZSGJ98Ejzjkn/EeC7ewEh5GTYDR8zkJMVL4XMNRdkcYUFBtgx/6z98EG1eSSytrJYvq6qV/cqPYduT2PawAX1cd+uLM/o4nrTUVa1g1y9Gsf2LK/4RTneCYoc+C0/qVVPXgJJDkDbKDBatPG2MfIc4md8e0906iBNPAsX2Ha6/jnK4GxQ72Iee2BcjOQT5fmTW19bYZ7CT+V0qbCJHsbWSm2+j7e4FxQ56FJbQjweOqSBIh2UGpSv725k8HuxscWeYiwWdSk8OxdYOiCjO+k5g7JCHofEDKmvqUHII38gMzjJ7OZjeJyKze8RbBFWfKIqNhAsIQ1Xf8CTPdEapDkoO4TWZ6arIZ/SyMXrWr4uxTz877rkvUWwkAZsxn4Un9X7yLqkPl6eIQfhYZM2ptCBnoKetka+hmgLXbdpGsbEQSOpHRHK9fN4l9knILuS6pH4If4gM3kF1p762xo95Jfkpio2NQN44SPgHqZjLq2ulUXIIp2QmKylW1sva8DkMMSd7dOG5MpIoNg4RmZYnGxCf4RIAubTiM5yhDiJGdAirIjItJbksZ1PtQMjp52KqE2Clp1bGy380io1CwL65T7LLcI7OyOeppIEI+0TWMjmpi6l2ADuOMKHYUGytBuqpNkd0oUnZdrh/DvmayGA/mYORVggzIjPVwXTyKDbuIiaDIRmTmW8RnpprG5vJMIdEhC0OY6Pw+GBICWXnIKGoubZyrK0+fFSJsdDBhKIsFdvULYfsb0czOnyc4p9V4zoPsDeNweZpHT7vEk0I0VnQU3K6xGUVmECyQpQd9w8nTTWZWZBjbZsyIvfpYpyAl6Z13A+Os5y053JkRx9npJWajcD8HUf0LtLzUjv6YN6LRziO6maFRUs6wLuUHAVIKZ2YW2QEyQ1T8ooNIOFhXQNfJzekXAQmJiJUp/cp4Sck/kw10VRKsNFXj2hNiTnk21x6Ge4y/9CtDo8eJ9upawss231M8VRITmFHH2z3DK8+s/o6PsXmYQ2QjvqT6Ir1UvNL9FM/fTRoOh6G0iNZXtISohX6LeTVlLE4raelfhpeItZw5GFg/7VnHj3s6GBotpPmaIG1e71FDgdm3yO+0bcjj7ZsmNvUjeM8z2LzsJ/A+Ew1EF1eSblawftKlcLyKqWcojL1/NJyNUi4WFJRLd/ix/lVgPTmTzpJS5RCkk1VeZk8TUXZbCVZqUL4Wl1BNg9E5mSizcBexX5Wn3644NijoIMdFVvJpU39BD5+/EjrNG7z446KzdPGaO+1tRNXYPNQl+CELEJ6n1JiE+LTABHCMDe3uEy9/kOjcE1dvXhT6nVaQVmlStPxsn/DKTHS//0NOEYE2YDhc0hdLS4qUiMiJNhACCqXGC7WQCZgSIoJPwPicjDWKsReQF0G/HrqcEBcxjxKiY3oPE8Tjq3sg83Du4Sn5so3nb74LhXVddJElKjQmseEBIdQm+FHPycrKV5mzeMbVPkdrWk7XlfW1Ll25DGEBWm3C/7ZNIwpNuUJm281NNKGdvQV9elvs/rYG2niqyKCIG3iKT3JaPTOC1c7OiJghdhoS4d0m75pQu/T2EwIgrTJHd53l555Fravo48jLyF8KvXU+hlMsXVftndJVG75nx0OJZXk7kUeWDoYmwlBkLagO2Pni7Kq2h4dfBifIRYqm85snB/AFNvPe7wlvINzbtE6OM8Gw9ETP42cyY/n3BAEaR9N2zx20Dq+MMVcOIBPmGIDyBqOdjHQOO27ffZ0bC4EQVqDzeL9tzMKSod09HGa59e+EJvKxM236j90XGwYtSEI0lr233k97Nd/nm4iIVqjacqK/RF1bM2qL8Q2ZsOBvk8Si1aQMBylaSvJ3YvAuTYEQX4ASXNrzGHoPGeNQTuWza7/QmxkDkchals8yPXvLZP6nMSmQxDka0zec3nrveC4QWREay2Hof8Rm+7U306W1X4gZX5MUEAg7M6GqUO7WehmYRMiCNKSpgPvh2nknGTx6aIpe913z7JjXxXb4l3HtM6/yz1BxnAUh6QIgnyNxJxC0d6/HH9C0hD0P9Haf8RG8nCUOSTt0Vn/5e0NU5ZgcyIIAjgtP3A1MadoFEkP56MuKxYbc2zN0u+KbeqWwy53YhibyYraQG6z+jqe2D3D6wA2KYLwN6N2XNjzLDypF0lD0K9Ga18VGwuiNqbcfhnba9uK4d2vYdMiCH8y58CNdVdfRY6mkZchxkdBUiQt+eS6ua0S26Qth9zuxxRsIDFqY8pt57T+a+f2d36ETYwg/MXy4/d+OvU0dDqJUvtmtPZNsQGak7derKpvVCBTbgICNPquaQNWz+7n5INNjSAotY5Ea1bqMg9e7lu+v01iY9GQlBm5rRnlvmv1qJ6XsMkRhLeZuf/axhtvo4eTLLXvRms/FJvDwt83JBdVu5E8JGXKjYjavH+fPuAQNj2C8CYjt5/f4xuRTNpCQUupDbNUXee9bl5Mu8TGwqiNKTdPG0Pfa2snYTpxBOEhkvOKhSfsvnghIbvQhEZ+KnkfHXmJ0PAjP6/73g/9UGxr9x0XOR6cfZVVcjNSV0z6Z9X4icYainXYJRCEu/GLTDGY8efVE6WVNe6sePwfDUFbLTag/+r9kwPTSyexYEjKRFpC9NXemYNWjHazCsKugSDcydZLvlP+vP1qSePHj3asktpMR43RO5sOundYbIDhjO1Hi6vq9VglN4jeJvS0vXhw/tDfsYsgCHfRf9PJo4HxmU40FlUxA6l101c8d2vbouut+flWiw1Qm7jlWu2HjzKslBsMTQm5LcTajghCfS48p7utP/d42/vKGlka60oz+hgrS70K+nvl1tb+hzaJDWDhYsJnhAQFwub2dz66bUq/Y9h1EISajN55YfdTelJvGmtrzfrISwhnQ4GWtvynNosN6iOcCs25yGq5QfRmoKaQsmfmwBXuVgZp2I0QhBocexTUd9sV3/VlVbWsjNKYUhMXFijOPb9xfFv/Y5vFBizadUzvcnjun2yQG1Nww1ws7pxaOnoTdikE4RyB8ZlqK0/e3x2Vnm/JYqExpSYiRKtmXPjxCihpYgPm7ThqfD0ybze75CYpJlK1Ynj3PcuHdb+BXQxB2Mv8Q7fWXPYPH0vowpYNv85HWJBW3ZptHaSLDZi17aj17ei8LWySG1NwmoqyOWtHe+yY6G77CrsbgrCWzf88nXb4YeD82voGUTZEaaRIrcNiY5qciNyusS9y+yw4c22VuE3jPTf3szOJw+6HIOTy1903Q/bfebWkuLxagU1CY0qtvXNqpIsNWL33uMTJkGxYUJCgsW4ryFcFZ2ugTv95ZM/dA+xNY7A7IkjHgHJ4B+69WVhYVqXERqExpSYrJpSdfuaXGWQ8GClia6ZpKwi75cYUnLWeWsQqQnCDHM2isHsiSNvYe8t/xKH7AQuLyqvYGaF9lpqKtGhi/PG1i8h6QFLFBmhN3nq2sr5RlQNyYwoONvjO93I5PKOPgy92VwT5PmtOP5p3zi9sclVtvSQHhMY8UdBZTfbJ873LDpL5uKSLDXBctHtDWnGVPZvn3b4QnKKMZPHMvo4n1o52/we7L4L8nzex6RrHHgXNvRccO+hD40dBTgiN1rRIMMRCdeOJX+ZFkP3gLBEbMGbTwb5+iYULOCg3puBEhAQbvBzMHszo63CiR2f9DOzWCL/i/Tio78knIdPjsgrMOCSzL6TW0ZVPjogNWPfncRHvIGbKI07Mu/1HcsYaSknTe9ufIoaqD7CbI/wAbKq9+JI+DoqocGq4+e+hp6q0WGLUsTWrWPl7WCq2Zmzm/b49p6zagsPR22fBiQoL1fXpYvx0Qk/bC14OuJqK8B57bvqPuviCPj45r9iA0zJrGaUNMFPZeXbj/ABW/zK2iA2Yte2I9e3o/C0Uid4+S05JVrJwpKvV9eFdO99yNtXOw1sC4VZOPwt1v/EmauTrmHTXxo8cmzv7qtRkRIXyM87+MoVdv5BtYmvGYMb2k+U19QoUid6+kJyWklzWcJfON4e6WNyxN9IsxFsFoTqQNuj668iR/jFpbg0fGoUpJLPPUVo3PYVTt7Yvvs3OX8x2sQEzfjtifzcmfwPForcvJKerIp/h5WB2nxiqPnCz0MvCWwihCocfBHg9DI0f8DYuw4WCMmMCc2my4iL5XytmzLNia8Z63q7tuWU1FhSM3r6QnLyUeGk/O5PHxJsPMWQNw1sLYSeEwDSg2tODkLgBMRkMi6Zv21L06TKjtB9VkeJpsQEr93jLng3LOVv/gbLR2xeSExYSbHAw1grpZW3o52Ft6OuAQ1aEBcB8mW94sufzyBT38upaaQqL7AuhmanK+Pl/o4gxX4mtmRb73rhBcJ9F10laotTdysCvm7nuG2LI+spUS7kGb0ukrVz2j3B5FZPm9jomrVtqfokexaOy/ww7FSRFs8g8EsUzYmum60971iYVVjhzmeA+iw5WWQnBvelmoefvYqoTYKmrWoG3LdKS2EyGZHBilkNQQqbT65j0bmkM7hJZyyhNUkSweIqd+pQdy2bVU+mJUU5szZjP3vFnYWWdHpcK7rPopCVEK+wNNcOI4Wuwg5FWSH97TLPEbzx5l2gSkpTtEJqUZQ9CY0NKbZYLTUxIoHysrfrS/atmU3JhjbJia6bF9hBuFtxn0cE7fdVOaVZ6ahFdDDXfWeqoRvW2NUrC2583eBgabxGRmmcdkZZrRU/Jtc0pLtPg0mjsq0KDdN3jbdTn7v95Tj6VnyjlxdaM7tTfTlbVf+AVwf1HduoKMnk2+up0Ew2lREtdtSgzLeU4Qn5lqApqQgwhtWIy8y0SsgtNojPyO8P5y5KKankekthnmcE7iNBGW6st/Xv1HK7Y+sQ1YuPRCO6HwjPRVEogZJdgqK6YrK+qkAZfdzXTyUG1sJ7ItDzZlPxig5TcYoOk3CKjxNxC49S8Yr2mJIy8JrD/CA1WOaXFhIvbWvoOxdYBrObu2p1XXmPMB4L7qvBg7s5AVSEFZKetLJeprSSfQXzM0lGWz+isgwsWrSEqPV86s7BUJ7PgvVbTR23ioxbxUaegrJIf5PVNoekqSIaGHFi1lVv/CK4VWzOuS/asTCyocONDwX1XfHJS4mWq8tJ5xBuDkF6mCvERvlaRk2LA5xoKsjkGagqNvCir0spq+dzico3K2jrJ/JIKtfzScpX80gpVxvtKFUZphQpIrEW3t8Uu80lmQgICDf3NlHec3jA/lNv/IK4XWzM/7z0ueze2YAsPrKSyVYCAgoxEsbS4WAVEfFJiohVKslJFAgK0RkKIzPkUkKG4qEiNjKRYGZzCaP5/6gqyeYZqCg2t/YWvYtK0vvVvJRXVChXVddLNXxdXVH3xdV5JuVpdwwfRsqoamdLKGvn6Dx9ECXmpwb/lFpdp1H86WoSyaoPM4B0IzVlX4dK9HYsv8dIfxzNia8nCnUf17sUWbOTRxQZKyrENoHQoEJ3pK0qFBv29ciuv/pE8KbaWTNly2OVRPGMN/JkoOYSfZQaH0od3Vl71x4rZPL/azvNia8nAtX+NC0ovGdckOBpKDuF1mQkLClQPNFfZcXw9+XUFUGwUlhx8jpEcwmuR2QBTpR0HVs9J49cLwbdia8n0347YP0soXFLd8EEWJYdwk8jgHchMT0EytJdBpz92LZ9VjZcFxfYfVvzhrfgkqXhFU544HLIilJWZvbb89Ue7lpzDS4JiazO9V/45JzznvRdKDuG0yGC+zNNE6eD5jQte4WVBsZHGgp3HjF+mFM/Jr6g1RtEhrBYZfOyqp3DuzvbF1/GyoNjYBuyXe5FSshBFh3RUZs0icyCGlw9xeIliQ9Eh3ByR2WjIPXDUlDq1Y9nserw0KDauYNGuY3rheRVD4/LLPeBrlB1/SqxZZHISovlO2nKX/vl1gR9eGhQbT7F41zGtyPzKodF5ZX1QdrwbjUG6H0ctuUtXti7ywcuCYuNb2cUwKr0icsu8/iU7FB4XRGISwkJlDjpyl8yUJJ5sXzoLh5QoNuR7zN5+1DqlqMolMq/Mq8VZVxQeB+QFH9VkxBPNVaWf6MqJBexeMQuzG6PYEDJZu89bJLu8wT6WUdEnrbjK/itRHoqvDeJqKS/YK2atIedjqCDud2jN3DS8TCg2hCKs2nNctqi6wZhRWW+cV1ZtnF5Sbd/8b3wgwP/MaTVLC+a9dDtJhurIi4cqSQon7l05uwh7C4oN4TEgOWcj0f6MygYL+Lq0pkGzpLqemQwynlHu8bWu8RUxspxmMbXEQFEqUFRYsKqThEiWvLhwNhFp1StKCCfCv+EwEfkfAJQD7c3yKhcAAAAASUVORK5CYII=;imageBorder=none;imageBackground=#FFFFFF;shadow=1;container=0;" vertex="1" parent="8e7B-ONYr-sdzbZyXvUv-136">
          <mxGeometry x="1555.0314569536424" y="136.8" width="57.6317880794702" height="63.57615894039734" as="geometry" />
        </mxCell>
        <mxCell id="8e7B-ONYr-sdzbZyXvUv-66" value="&lt;b&gt;3&lt;/b&gt;" style="ellipse;whiteSpace=wrap;html=1;aspect=fixed;fillColor=#0050ef;fontColor=#ffffff;strokeColor=#001DBC;container=0;" vertex="1" parent="8e7B-ONYr-sdzbZyXvUv-136">
          <mxGeometry x="545.2698675496689" y="199.20000000000002" width="21.192052980132452" height="21.192052980132452" as="geometry" />
        </mxCell>
        <mxCell id="8e7B-ONYr-sdzbZyXvUv-67" value="&lt;b&gt;4&lt;/b&gt;" style="ellipse;whiteSpace=wrap;html=1;aspect=fixed;fillColor=#0050ef;fontColor=#ffffff;strokeColor=#001DBC;container=0;" vertex="1" parent="8e7B-ONYr-sdzbZyXvUv-136">
          <mxGeometry x="535.1639072847682" y="276.00000000000006" width="21.192052980132452" height="21.192052980132452" as="geometry" />
        </mxCell>
        <mxCell id="8e7B-ONYr-sdzbZyXvUv-68" value="&lt;b&gt;8&lt;/b&gt;" style="ellipse;whiteSpace=wrap;html=1;aspect=fixed;fillColor=#0050ef;fontColor=#ffffff;strokeColor=#001DBC;container=0;" vertex="1" parent="8e7B-ONYr-sdzbZyXvUv-136">
          <mxGeometry x="888.9304635761589" y="289.20000000000005" width="21.192052980132452" height="21.192052980132452" as="geometry" />
        </mxCell>
        <mxCell id="8e7B-ONYr-sdzbZyXvUv-69" value="&lt;b&gt;9&lt;/b&gt;" style="ellipse;whiteSpace=wrap;html=1;aspect=fixed;fillColor=#0050ef;fontColor=#ffffff;strokeColor=#001DBC;container=0;" vertex="1" parent="8e7B-ONYr-sdzbZyXvUv-136">
          <mxGeometry x="945.4288079470199" y="289.20000000000005" width="21.192052980132452" height="21.192052980132452" as="geometry" />
        </mxCell>
        <mxCell id="8e7B-ONYr-sdzbZyXvUv-70" value="&lt;b&gt;12&lt;/b&gt;" style="ellipse;whiteSpace=wrap;html=1;aspect=fixed;fillColor=#0050ef;fontColor=#ffffff;strokeColor=#001DBC;container=0;" vertex="1" parent="8e7B-ONYr-sdzbZyXvUv-136">
          <mxGeometry x="1227.0513245033112" y="291.6" width="21.192052980132452" height="21.192052980132452" as="geometry" />
        </mxCell>
        <mxCell id="8e7B-ONYr-sdzbZyXvUv-71" value="&lt;b&gt;13&lt;/b&gt;" style="ellipse;whiteSpace=wrap;html=1;aspect=fixed;fillColor=#0050ef;fontColor=#ffffff;strokeColor=#001DBC;container=0;" vertex="1" parent="8e7B-ONYr-sdzbZyXvUv-136">
          <mxGeometry x="1272.25" y="292.2" width="21.192052980132452" height="21.192052980132452" as="geometry" />
        </mxCell>
        <mxCell id="8e7B-ONYr-sdzbZyXvUv-72" value="" style="shape=image;verticalLabelPosition=bottom;labelBackgroundColor=default;verticalAlign=top;aspect=fixed;imageAspect=0;image=data:image/png,iVBORw0KGgoAAAANSUhEUgAAA8wAAAEACAYAAABmnf+IAAAACXBIWXMAAAsTAAALEwEAmpwYAAAFHGlUWHRYTUw6Y29tLmFkb2JlLnhtcAAAAAAAPD94cGFja2V0IGJlZ2luPSLvu78iIGlkPSJXNU0wTXBDZWhpSHpyZVN6TlRjemtjOWQiPz4gPHg6eG1wbWV0YSB4bWxuczp4PSJhZG9iZTpuczptZXRhLyIgeDp4bXB0az0iQWRvYmUgWE1QIENvcmUgNS42LWMxNDUgNzkuMTYzNDk5LCAyMDE4LzA4LzEzLTE2OjQwOjIyICAgICAgICAiPiA8cmRmOlJERiB4bWxuczpyZGY9Imh0dHA6Ly93d3cudzMub3JnLzE5OTkvMDIvMjItcmRmLXN5bnRheC1ucyMiPiA8cmRmOkRlc2NyaXB0aW9uIHJkZjphYm91dD0iIiB4bWxuczp4bXA9Imh0dHA6Ly9ucy5hZG9iZS5jb20veGFwLzEuMC8iIHhtbG5zOmRjPSJodHRwOi8vcHVybC5vcmcvZGMvZWxlbWVudHMvMS4xLyIgeG1sbnM6cGhvdG9zaG9wPSJodHRwOi8vbnMuYWRvYmUuY29tL3Bob3Rvc2hvcC8xLjAvIiB4bWxuczp4bXBNTT0iaHR0cDovL25zLmFkb2JlLmNvbS94YXAvMS4wL21tLyIgeG1sbnM6c3RFdnQ9Imh0dHA6Ly9ucy5hZG9iZS5jb20veGFwLzEuMC9zVHlwZS9SZXNvdXJjZUV2ZW50IyIgeG1wOkNyZWF0b3JUb29sPSJBZG9iZSBQaG90b3Nob3AgQ0MgMjAxOSAoV2luZG93cykiIHhtcDpDcmVhdGVEYXRlPSIyMDIxLTA5LTI0VDEwOjMzOjA2KzAyOjAwIiB4bXA6TW9kaWZ5RGF0ZT0iMjAyMS0xMi0xNlQxMjoxMzowNSswMTowMCIgeG1wOk1ldGFkYXRhRGF0ZT0iMjAyMS0xMi0xNlQxMjoxMzowNSswMTowMCIgZGM6Zm9ybWF0PSJpbWFnZS9wbmciIHBob3Rvc2hvcDpDb2xvck1vZGU9IjMiIHBob3Rvc2hvcDpJQ0NQcm9maWxlPSJzUkdCIElFQzYxOTY2LTIuMSIgeG1wTU06SW5zdGFuY2VJRD0ieG1wLmlpZDozZTdhMWI2OC05ZTBjLTdjNDYtOTlhOS05ZDg5YWEwYjI3MzYiIHhtcE1NOkRvY3VtZW50SUQ9InhtcC5kaWQ6M2U3YTFiNjgtOWUwYy03YzQ2LTk5YTktOWQ4OWFhMGIyNzM2IiB4bXBNTTpPcmlnaW5hbERvY3VtZW50SUQ9InhtcC5kaWQ6M2U3YTFiNjgtOWUwYy03YzQ2LTk5YTktOWQ4OWFhMGIyNzM2Ij4gPHhtcE1NOkhpc3Rvcnk+IDxyZGY6U2VxPiA8cmRmOmxpIHN0RXZ0OmFjdGlvbj0iY3JlYXRlZCIgc3RFdnQ6aW5zdGFuY2VJRD0ieG1wLmlpZDozZTdhMWI2OC05ZTBjLTdjNDYtOTlhOS05ZDg5YWEwYjI3MzYiIHN0RXZ0OndoZW49IjIwMjEtMDktMjRUMTA6MzM6MDYrMDI6MDAiIHN0RXZ0OnNvZnR3YXJlQWdlbnQ9IkFkb2JlIFBob3Rvc2hvcCBDQyAyMDE5IChXaW5kb3dzKSIvPiA8L3JkZjpTZXE+IDwveG1wTU06SGlzdG9yeT4gPC9yZGY6RGVzY3JpcHRpb24+IDwvcmRmOlJERj4gPC94OnhtcG1ldGE+IDw/eHBhY2tldCBlbmQ9InIiPz7FVcWdAABm0ElEQVR42u3dLYwc1xbo+5Z1TCxZMjDwk8Ez8fXMIEtXRgbPyCTEyMzQwMQkLMTEwMQs5AYFhQS8HPlN9xDrAaMQE4OgSCHRSfVk9CRfBVhRdN5e+6Onp6eran9W7er+g6Wc5MxMf9SuXfu3P9aa/fe//50RBEEQBEEQBEEQBHEx+BIIgiAIgiAIgiAIAjATBEEQBEEQBEEQBGAmCIIgCIIgCIIgCMBMEARBEARBEARBEICZIAiCIAiCIAiCIAAzQRAEQRAEQRAEQQBmgiAIgiAIgiAIggDMBEEQBEEQBEEQBAGYCYIgCIIgCIIgCAIwEwRBEARBEARBEARgJgiCIAiCIAiCIAjATBAEQRAEQRAEQRCAmSAIgiAIgiAIgiAAM0EQBEEQBEEQBEEQgJkgCIIgCIIgCIIgADNBEARBEARBEARBAGaCIAiCIAiCIAiCAMwEQRAEQRAEQRAEAZgJgiAIgiAIgiAIYtfBPBsg/o935p8H8+XsaH6m/tnMDt+dzg6Om9nBYjk7XDSzo+Pl7N7iP7O7/8+Z/vlD+e/q5w5OTs3PqN/9n//rv+a/qfgfiz/1v5eM//Huf+v3pN+PfU15bfXf7qj38+JosfxJvc9P6nM16jN8UT/zm3qvP9+bL79T7/sr9XvX5DP/n//3/6d/34X8Dfm8oZFyDfRrH5/q9yLvSd6b+m9P9HtV71neu3wG81mWn/RnU59RPqv7vuVvyHch34l8N8W/f/t9y+uaa7/UbUHahHrfuo3I+1lvO9KW9M8c2zYm37Vqc/I31tviLsa27/Dev//UcSBtSNquufbqn3/Y9m3aorQN27b1z+nvWoV8p+b7/kP/DfkZc88uV/eu/Ky7Nof2usjfk78r/01+V18b+zfln3JtVRvT10beg3lP5vf0P+316oqYe0i/p5NT22bc/Sjvs9HvW74reU//1//73wsh71feo/tO5D3qv3Vs/ob8+z3b9s6/z6X+zs7vfft92e/swL2++zvqd/T3vTB/697idPX+9GsuzPVx96F8DnnPcp3196vau/5e1fuXf0+596SfCA3dL6jXl/et34f9vuX70+3Ftr3DVf9vnwfqn9IWdbuz359rg65dHNj/79C2DfnuDta+z4O179O1wYO19i7/Tbd56VMW5u8f2fa8+qf0E7YN6Da/aFbfrftcq75HvX/vsJ/3cH7+vDu0fZT53JfbW+nwbQfy3ty9oq/ju1N9neX+k//m3n/JdpUSct3kPR64fsnd5+qf+l6bL1fP+DHD9X3SJqSdSltz/bTpd8y4Qb53/Sw+PrV9y3I1VnL3weHxHxf6F92nHS87X7/rmsk112OI49O1/tL2+fZ9yXdYejwQG/rZtbDjt2Pzfrf2K4tlYr9ir5195lYXc9PP3pufP7v19TtuLlznGuPAfv9H9v0e2OeAG88e2WesudfN/6/v/YRYH1e5/k63Jffst23fPPvOx5lyL7gxjblnzPfuxjZujHDgxjv2Oqy3PzdOWo15bbszY40/zPhqbvqvI/s8c88Y+d+mb1s3y6n+OTMmXq76dve6+vP9+0+v/mA9ADNg7gLzA/XaJ+qB9F+vWDSf1Wd+rW6oGxWB+Ya8J3lvvp9DPrN8dsAMmAEzYAbMgBkwA2bADJgBM2AGzIB5E8yyGvu9N5Q3Y748k9XcCsD8VL+X6M/RfC/fBWAGzIAZMANmwAyYATNgBsyAGTADZsBst183H6OReRGcb0YC8xX92nk+w0f5TgAzYAbMgBkwA2bADJgBM2AGzIAZMO83mG+qBvxrFmiuoTkWzPLdhIa9Id7m/Azynch3A5gBM2AGzIAZMANmwAyYATNgBsyAeT/BfFW9zoesWD4/E/x8QDA/L/QZPsh3BJgBM2AGzIAZMANmwAyYATNgBsyAuUIwSyMsFarRfV0Cmi4ZmPq8twYA8+2Q5F6hId9RyWsAmAEzYAbMgBkwA2bADJgBM2AGzIC5PjDfTEqO5RFSzikY8YEwSEpU5gl/+a4AM2AGzIAZMANmwAyYATNgBsyAGTBXBmZ5YOgOKn98UxSaekvz8p9QbAbC4Ja8RunPId9ViWugB9GAGTADZsAMmAEzYAbMgBkwA2bADJgTwCwD/MiBc+uAerH8uTQ03Vlmd9MViOdDfAbJmp37+5drCpgBM2AGzIAZMANmwAyYATNgBsyAuT4w3xoEmnIGeLH8STf2MvHTYJ8j4jw2YAbMgBkwA2bADJgBM2AGzIAZMAPmAcCcemNsxIOhoKk+46fDhXuQZ49PQ30O1Qk81GDIFYAZMANmwAyYATNgBsyAGTADZsAMmPOA+XxAmiWeDAZmSSy2dmNkjrPBPsfx6VPdMeQI2+EAZsAMmAEzYAbMgBkwA2bADJgBM2DOBGZz40zo7O95zArFYJ8h11lsuYaAGTADZsAMmAEzYAbMgBkwA2bADJgBM2AGzIAZMANmwAyYATNgBsyAGTADZsA8DJjdoB8wTw/Mcu0AM2AGzIAZMANmwAyYATNgBsyAGTAXBLP8DGCeFpj1dQXMgBkwA2bADJgBM2AGzIAZMANmwAyYATNgBsyAGTADZsAMmAEzYAbMgBkwA+ZRwHwImCcD5kPADJgBM2AGzIAZMANmwAyYATNgBsyAGTADZsAMmAEzYAbMgBkwA2bADJgBM2AGzIAZMANmwAyYATNgBsyAGTADZsAMmAFzrWB2jQUw1wfmSxgGzIAZMANmwAyYATNgBsyAGTADZsAMmAEzYAbMgBkwA2bADJgBM2AGzIAZMAPm8cG81rABcyVg3oZhwAyYATNgBsyAGTADZsAMmAEzYAbMw4NZAwwwVwHmVgwDZsAMmAEzYAbMgBkwA2bADJgBM2BuBfMt1dDuqAt9W/38NcAMmD3BfG297QBmwAyYATNgBsyAGTADZsAMmAHzLoD5rmr4r1RD+FnduJ8vQWyx/KQu/vdqgPJVDjC7jg4wjwfmw3xg/kp1PN/pNnKp3TSfpU1J29JtDDADZsAMmAEzYAbMgBkwA2bADJgnBOYjdZFOgkC2WP6iGs4LdYGupoDZ3FyAeQww92K4H8xXpQ3othD23k6kzQFmwAyYATNgBsyAGTADZsAMmAFzzWC+oi7Ua9UA/o6GmYZz8wQw7x2Yn4RC+UJIm5s3b6QNAmbADJgBM2AGzIAZMANmwAyYAXNtYL6mLsyPGYH2QTWEBzFgdjAAzMOB2Wu79fafeSDXOtf7VB3GT9IWATNgBsyAGTADZsAMmAEzYAbMgLkWMF8J3YLtDbXj5Q+S7CkUzPIzgHkYMHufT774M3fk2hZ6ryfSJgEzYAbMgBkwA2bADJgBM2AGzIC5N1IbVV+oi/tNUbAtmi+y3VY12huAefJgviHXUl/Tku/3uHlVut0PHa2DBcAMmAEzYAbMgBkwA2bADJgBc7VgfqAuzj+DwG2+PFON6GVrYrANMB8C5uJgDkropa6duYZDvN/lP9I2ATNgBsyAGTAD5gmB+Yo8u+R5qXdhzZfvbUWR33SFCDfemi//VvfDrzIBrdrz9QxgvmKe0c1H9Rp/qXb8u3qNY/fsB8yTAfNNqTCir59uL80HWUDQYzDADJgBc3cEPfgDI+e55eTEYIC5VjCnJfSKf88/lmz7QwdgBsyAGTAD5p0E8zX7jD3ZWoKzd0zU/Kqu4f0EMN8VKHfllJFjVIC5ejA/1FDeulNz+UmuM2AGzIB5HDDfHWx12ScxGGCuDcxZE3rFrDLrgQBgBsyAGTADZsBcH5iv6SNtGXZeyaS0/L0IMF/twvLa3/9ZfhYwVwvm63oXQs81rDW/C2AGzFWA+ch+wQXi67EwtDUxWAuYXYMCzPnAPFZCr+Cs2aqNFmz/g0XnYAEwA2bADJgB89TA/KgPODG5OzQ2wuKV798X3Ov3XlMIXgYGs2tXlcXrXCVCh47DkwYwA+ZKwLxYloqfakDRKjHYYvm2NTEYYB4CzIMk9AotM1Ww/Q8WgBkwA2bADJh3BszfFNmdJ+ed1wbih9sG5ZfD/7iUbOtduO+5jhgPzE1t8cF3gck8j+oJwAyY69mSvRrMZY/fqgGzR2IwwJwJzCMn9AprD6qNlmv/g0TvdjTADJgBM2AGzFMB86ui458WMK/6pcvxJWxhoplVE/PxwHy0WM6q+i58z77XNukh4ATMgLkeMC9LRX1AWkuCsS0xGGBOA3MtCb2yDCAmEoAZMANmwAyYdwLML0uPe/R9syUyjiNmNYQuvTUymE35rz9qiWkuIgBmwFwVmMee0RoTzhuJwQBzNjCPmtArYEb8c2WzwEHhlfAEMANmwAyYAXPtYH4opaBKV4ZoPScKmAEzYAbMgLk72mYcM8Sv1YNpS2IwwBwH5toSeqXOuE8hADNgBsyAGTBPHszXhjjCpj7r47akUDsFZvt8qQHMGimAGTADZpJ+TSbpV0BisBGye08ezKb0RV0JvXY96Zd3SQ3ADJgBM2AGzJ1glp8ZK3wzGKc9o5ffdWVR3hUwOyjXBGbzPADMIeFADJgBc1VgLpjS/5tJgXm8mDyYpxpVlsHwDMAMmAEzYAbMkwfzTfUe/iqYp+NvSSTWVV838zgCMANmwAyYdxTM+uIWiTtFSiMAZsCcZ3vaP9JGC7b/YhECH8AMmAEzYAbM3WDW95UMboePl2nHipa/SLkoOZ8sq8jqc30rsdot9+70rrSzrn50V8B8bw3KtYH53nwJmD1D97OAGTDvGZjlYpyAM8BcacK3k13HMmAGzIAZMANmPzDrzzpwqPbwc0yyUqlAoT7fDdfnHqz1QffsZzxa3We7D2bd/1QOZnmPgBkwA+Ypn2Eu+0A4Kp35ETAD5phtatI2xxggpQZgBsyAGTAD5p0A81Hoc0vh4ZkbOGssJIK5wDgCMAPmeCzrawaYAfN+gnmQhBaAGTAHbsd+vQ9YBsyAGTADZsDsB2azK245ZASNjfQW6xUeAPN5nE4IzKeAGTAD5qmCeYCH878mlzEbMO9sSFuUNjn0AHWoAS5gBsyAGTAD5kgwL5ZDhvd2bDmrvP7cygHmQuMIwAyYo0L3sYAZMO85mOWLvaou/DFgA8wjb8U+lrZYqp1Lh2M6xT9WaJSOKzVS4AOYATNgBsyA2Q/MQ4Z6L5/9n1+nL9evH2B2NZeb6YFZv2fADJgBM2BueThLWQNTr5czzYB5+DPL0vakDUpbzNm2pYOSv6k7MsAMmAEzYAbMgNmjikjIM0y919ubz4UUMBccRwyGwFVfMkEwy+9uQ9qB6yv2DMzyHQFmwFw9mF3nqy/s4nzgJl9eZjDrC60ayn2d5RHIAeZhsmF/kDYnbc91fjnatHtoAmbADJgBM2DeHTAPhIQnIduxtz0XAPMOgzn/KjRgBsyAuSSY1zGQEczmIh2fPlWN41dQB5iLQFnalhqUuAFxLjCvHqKAGTADZsAMmHdzhXn+R+n4JgAx33eDIwzMhccRw4BZfa6dB/NiuRdgdn0MYAbMOwNm17lkBLM523x8+lI1ijPADJgzbb8+kzZlzs03s1xgPlicgwcwA2bADJgB8y6DeVk6vgvJjn1kB8JtAZh3FMyLBjADZsA8VTC7ziQTmF1nd0O99lv1d78AZsAcFdJ2VBvSbcm1rQxgdoMRwAyYATNgBsz7c4bZDYgLxY8BiHniX5KnG8wDjCOKY1n3i/sE5jzbs+sE87tTwAyYdx/MbsCXCcz2IfafO2rw9ANgBsxB269Vm9FJVBbnD6UcYDadOWAGzIAZMAPmfQNzX//j4nyQHhQnvs831d4eeq9cA+adBPO99JVmwAyYAfPYYHYD8UxgNoOnxZ8P9igxGGBOSOil28rx0pbpyANmA5UlYAbMgBkwA2bA3Avmo4Ud6Beoway+87u+bW2FDt2PXQTzQOOIolg29+V+gtmga3fArJ9lgBkw7yOY5UJkBLNrHE/2IDEYYA5O6LX8xSX0Mg/BfGB2nQtgBsyAGTADZsAcBOZjB53e+OR9hvl4ecurb1uvZWv7fReAGTADZsAMmCsC86Ft7BnBvA+JwQBzQkKvnGB2HQhgBsyAGTADZsAcA+YDPzD85r0l+99/Xt8E8GYc9IDZPJumDubTvQezQdb0wWyeZ4AZMAPmS9m0E8G864nBALNPQq9582ZbQq8cYF4BCDADZsAMmAEzYE4E85Ft7x3R+D7/ZIK48xotloAZMANmwAyYpwpmN1DKCOZdTQwGmH0SetmOKTeYpb0DZsAMmAEzYAbMOcHcg+YsYF69jgeYI9FcxXjG4QIwu+fLdMEs7x8wA2bAvAHme3aglxnMu5YYDDD7JPQqAGaNDsAMmAEzYAbMgLkAmDvQnAzmC68BmAEzYAbMgHn6YHZZGjODeS0x2PIXwLwbYG5N6JURzPJP99AEzIAZMANmwAyYS4G5Bc1JYL709z3BHIHm0ccz67gAzOfPsSmCWd8rgBkwA+ZuMJvBZlMCzFNPDAaY9YqyDCA6EnplArM8cAEzYAbMgBkwA+ahwLwFzdFg3vq3ATNgBsyAGTDvFpgdWjKD+Twx2Lx5M7HEYHsNZtWe/vJK6JUIZv2AmS8BM2AGzIAZMAPmwcG8geYoMLf+3QAwB6J51PGMxidg3grmQDSPDmZ5/4AZMAPmGDDbi5YZzK7BTikx2N6COSihVySYDdQawAyYATNgBsyAeVQwr6E5GMydfxMwA2bADJgB8+6C+ej4vNFnBvM0EoPJFvK1GyNznFX8ud8HJ/SKALODBmAGzIAZMANmwFwDmC2ag8Dc+/cCwRyA5tHAPLPjU8DcDuYANI8KZmlvhcB8Q/3vx+q/fy25b9TfvwmYAfNOg3n9wZUZzHUnBlssPx0u3IM8e3yqNaGXe6AVA7MdMABmwAyYATNgBswDgfmRuqavVFv6Uf37T10Rcmys729JyG4tQYNMRANmwLwnYH6yuTAkR/zUzz4HzIB598H87z8vXOSMYJaH/b8kqVTIzG7psA+7WaH4qaqEXvPlC30NbMdXAswOw4AZMANmwAyYAfNAYL5Z0/NWtc/vVBu+PmUwu+8WMPeD2RPNo4HZtbfMYH7dM+Z8DZgB816A+fxnsoL5QmIwnWxq/FrDz91NVyCe15LQSx7ecr31NSgA5k0MA2bADJgBM2AGzAOA+Yq6pj/XmB/ECzSAGTBPD8yvPMae/8huC8AMmPcIzMsSYK4jMdh8+bf6/Ld8B/nrJRY845a8xnifr/neJfQybSk/mNswDJgBM2AGzIAZMKeA2dxrvblCXtSbK0S2rE4PzOt9PGD2A7MHmkcBs/6e84L565BJI/NsDY/1NgiYAXMImKUu7hPZ5iMJtPT22kXzWc4OqIv7qzs7oy7E3RJgDk4M5g/mVWIwSUI1xrapECi7cB2Jz+/Ka4yV0Mt9xxMH811p23ImTdq6Pi+j2r7cA3Iv6O9X3RuudvSOgvm2+s6+Uj//jX4AzZsTvaKyWH5S//zd9gV/m/5Azqire2mxfKv+3lOZtKkYzLfU636rXuejPvck11e9b9kNkQHMt+Tzy7Ywu9Lz0QxEdPv5osP2n/r19YNdZs1Pn+rvGzCvg/ma+m4f6h0z0q7my2P9ncmzxzyL9Pep70n7feqfUT8rvyO/K3+jAjDflUlEfY/IPSP3j7rmejsvYC4N5pt6C6fOGWK+e7n39b2WDub3tYJZb82em3FYW+wxmC/3K/qZltKvZAOz7itW7VW9trRX2473GcwvwnLmqGu5sJOrgTEAmG9JsjI5JirXVsZV6+3P7M5cjat+l+eGTmAsC1FqLKbHV/OzI8BcD5iv65rGntmWZQuEdCg68UUBMHsnBgsHs1u1GCwxmNwM8rDug9LBvB3Mnhi7PdTWc31DK1idP6wKgdm2k8JgfiRtWbdp72znduv59MF8x2ScXL7Pcd5fcC0dvLTFisD8VVu/Jg8seRBFgPmhfvBl6EPkb8jfMu1wL8F8f60NpvdfZoLivbRDnZ1/eDA/af0caoC6rb0B5mxgfqAn9ra3C5n8fNwFZg8011uNwiepaGVg3uzjM4P5gU3K9iHL7rtL/UoWMD9v7ysUniQj9HEUmgcHs9zvGcH8/HCgKjSbbTATmG8KcvXCY0ZnyBhN50JaLVoC5jHA/LT1IeN3NvdEBj1FwPzv8w4xM5hNYrD58kXxxGAnzbMuILlOtQ/MrnPu/FvqtYZK6OWuWSkwm98vCuYjPdMXD53fTac4OTDfMgnxypVgcxNqelZ1XDDf6h3kzpuP0p49wHxLrwzLIKPctsrfZHVMJhx2HMw39UN/gOz+MmCR1zKz/MXBfLcP/fJ+NtsbYM4SN3qf5QrNMknYDeZOGPxWK5jNjsDuXCd7AOY7eneUrBIX71eaX93kcCSYH/RCXj27uo7y7SiYn3kvXmzsdhwZzNdkPGh2RQ10PFKNXeTZZhbLAPMQYH6Va4Assyn6whUAszy8tyYGSwOzw9b1YonBZPvPSdO+qmxX+H3B7MDXAeaZ2SKbf5VcBvLrCb1KgPnSNSwD5tvmyEFEp7x1K9wf30wEzDfNtuSBz7rbbfupYDaADI5vfSe19L1zYu61DTC79jJc4sBF88WsOpu8ADsE5iOzbX34fAtyv+sSQMfL+zFg7tvuauM7T9yUTAB5KcYC85Dh+9wz91V7n9EzwD6udkt2z+fSn60iMG/r4xPA/CBol1jmfkVW/VbPuBYwb05i+W7v77qutYDZ3YMZwPw09hrqSVG74uob29pgBJjv6HGGbKcfL+GufrbpnQ+AuRiYy8BKIVxmW8qAeVkCzKuGr8+SZMtc2bzSkGoBsz5fEwHmLjRbMGebCHEJvVbnv7Zcjxxgbr2GecF8zWzRKjQxUi+YrxnUj9ehr8qqKTDFgtlc6+CH+cfQ839rYL6mzyWPmWFfn2tq3uj3Mm0w3zVn4ocf0LaA9UdpiyFg9jwP96vnqvfPeuA4QIS0gwmD+arvTrG+s46ribPt8axeMJ8+kjbbFTsI5gc1TWLoZ5zdbdkD5n95P1dMTozQJG5TBPOT6InUxfKT9AGh/UYimI+0F8ZMttuy00T6AsCcF8xPC2+D+11m0XUZhsxgvpAYLC+Y9T9TE4O5rboawy1gdvCNBXMbmtfA7GbrmpSVQen8+67HBMB8Ra/oJBw78AudxKk2MD8s/7kDd6Ismm9tEpYIMAdvufo7dDujBfODqrZfylZtOYs9PTBfs7kx/j6sbgurwrtN/OYDZp3IxWU9b4/P/isiZ0f7AObcZWta4knA7o3PndfwpCdqTPylq1R0Y7kmMLf17wFgvjFKktOABGy6pOkamDePboRNmrY83yoAs0NmIpgf6zPicePUM+lLc2DZE8w3TOKuOiZ/uyZv7BEhwJwI5tuDrTZJJjibHCo3mLsSgyWC2WX4fRz0cNxIBtUG5nX0poB5G5o3wByczM1B2Z099bkeKWDunfRIB/NXQ5yTdAMxn+RuA4L56xqhcn7+a/kwFMz6eocNzvyTldn+SM53Rz+8y/enb2UmfSJgfjzEWcJckxE+YF6V/GiPnwNe941vm0+JscHsBs4lQ3YMhNzrXdfQ4/VupuS+KIFlmZhyg9+2yNlfjgzmp8XzzmRaNDJnWs/BvDaRdVT4e54SmB9F7+IyZ7zvh/ZJff1lB5ifT6HtrU+2yC45GTMA5oiwiX++HeHCbV2tzALmLYnBMoHZ1oI7O9KJJHSJHZ0G/i8bneWGtoF5E7ypYN5E8xYwt5YLW30O/ZmaE3MGRLaZrH32QmD23lYfD+b7o5QPU/dWbDZnFxnAfH3UmuMhM+dSZqEeMF8PGXiPOBD7WU961gvmf5U47jPEvesmI9rAbFaZOzMRvw0ZUMvuF8CcHDeDJrjkGvVkk/YA+sxi6HuzxVuXgmmPgNWo3r9ly87oZ7lejGhmfViuCcxdbbUHzNdyHpkbekLD3EunOwXmzT4mAswPoxfv1O/pc+M2mWQOLHeA+VZVk2RRycF0klvAHAjmm2OdyTOZcy+eh80J5nOgZQezvXGaC4XGTTSrFbLV9uIWMG/Dbg4wr6O5A8yr+rEH843PYAupH7lEOIXAHJXpPBzMt/UgZqTtMnJvdWW1HADM14NWuSrZvhYC5kA0+68yDlRmLteqqGy3qhDMt2quVes7GdEF5p77935gf/H44vMkb4S2g1JnmGOy1wZEUL1WGWRvK/FzIfzAbJ7bth57ZwSsSunz2P07Gcyz/OR8y++Og/nuYDvFSpX8Up8BMF8A84MULAu2V88dzz7Jd4JxA8yPazrWlpa4V9chB8y+EfpwKXfhTMblMmBeVgfmNujmArNDc41gTqql7Q/m66MnaDpfOX0RO/hLTXwzWazMm+9DVtuyDxwm+Z0tz/QMez1gvr8jA4tGvtc2MPehOWRgLztB3ACzRFQD5pA61oERNEGork0vlnODeR4OZvnOcoK5YH+ZDcsdYH40dsLKXP213n58croTYN62iyUAzPdja5rLGE8nuHPlKj3BHLIjZw3M3+zcuGGxfCtjLcDsETVt1bRbmnsTg8WA2W0BrgHMXch1yblky8S2VVG7Kv/R1fvt/Vu1gXmxLA3mK4PU0g7Kjr78QT5LTPgkbmlN6JJ7G6w+/2KOHMh2fT07edI8M/97+dqsDOuag2fZVpo9M41PBswmwdDnkoMwGXxVAOYHudrB1gnWxfIXDSNTa/O9PYf6S7EJMl2v1wxut4HZwLG1XMnXQYO/f/95HTBHx92Q6xpSeiYLmOfxYO5D856A+atS9/gY/Yp+TfWZ9hzMR7HjNbvY9liPeQLAHHqERYNyqKOr6lmjc31IvidzVPKfASZvjuW5A5j7wFxjEpaexGApYF4hbiQwe8Qrf1D88Y3P36wBzEcusVdZMH9V4zbavrIlXZEA5ke5EpVYuD6VbJCufR+5DNInjf3ftgTTXG/vuWISbyhIJ28H9880XhOY9Vb8xfInmVTQ10K230nCPZt5V/9vsyXvkUw66LPSuSCtBj2yjXhEMOddAZIVWpn8kZwLi//c0ROqFgluJ4b7dz1hJmjSP9t8m7M/cIPbVjC3rzLfCkm2V6omc0w7KFlWqtC289dB9XIDjsskg3meDuYuNPuCuQi0IiDng5UNMD/NmrQysF+Rn7FJQ99m3Q4uE9HhZT+rAnNbngQPMN+N3oW0aL7YCZRZCJgjcj5c1RmmC4wL9Rl8WXSQ8ZLqi/SuQFfOzvYZ0vbk6KwtW/XE1HjOfxxBFkNcskDA3AbmmjO8eZYxigGzy8pcGZhfha9eNq88IT4OmG2pqMJgvl/z1mM7Sxg3ADw5jYtEqLoycNKBu3JPcm08wWwfWo0byD00eIyYKQ3IND42mOXz6R076qEmD56jhe0PbJIa3W7PwTxzSV/0EQ2biE/PlssERWpW7nnzMaYOZQYwP8iBZT2Ikmz+5qyiOcpi+wV9ZKd9YGtWGvXPmvZn6yu/zfGs0yvAkphmC5g70Rww4DJ1M/8zyx21gTll90zrrpqQ0m/z5XFILokkMM/zgbkNzTsO5sc5sGwTrr2O6Vf0mOTkdJUITgNaxmzjlBvcBTDficayLq3VPNFjnQAwRyRJvJITy9K3C5B13qaF/f5Omgv5araAedXPuueaTUR402SIz5h8TI2jZewCmNvOMFd+FmRbYrCcYL6UGKwQmEtgORTNQ4JZP+QWy9Jgvj2JLJl9dT5bIhrLMguegHtZGZZO061KZQCzgMHVMv4Ygb83Xg/uMcEsg2/ZWmbvDxkoRIB59T2awVjacRk9E237n9CIBPOdZJRKsjU7UaOv6bvzAWoCmGe2XvVVycKefK5atppLgrUWPCXXBdbX7j93AHPhXTVyTQJhEAXmeX4wb0OzD5iLQSsQcr5gsWC+nzxOtf2KZOw/sDtEMoBZj6v0rhbZJTTs7rZqwNyVib8DzLdjJxrMxLspzxUKZu/jIvZezlHbW2/nV+NUndPDjpn0+DkdzGYhzozTj2wt6L9yoNl3sn0Pt2RPIynLemKwEmA+KAjmklgORXNpMOsHi/puCoNZ15KuIqGXf1mQWWjEnlOMnRGV2U+9RdEOuAqA2czYypnOkBVUQXatYF4sP+mBuu0XMoLZ1M42D9kPCQPFJwOB+UbKgFFvYVftwqyyn/dPmcGs27GeDJI+N2EVX7bTyQz/Njx1JOA7K7FzyCdiB48lwewG1LkiaPJUXYuYHRjBYJ6XA/MmmncUzLeTxqgK2uv9ih6n5Aez7sP1lm6ddXiQRagpg/lW7LNihWV3r5UF85scpQn1SrA9OlgQzPq/y3PY7qb6J32y3XyfXX3uHm7JnlYtMf2gmS9f6JnCzGB2EM4J5iGwHLzSXAjMq2yC5cD8r9oSenlC9CTmzGEkmK/HTCTIGVp9VsdCtyCYTQKdxZ8PvPMn+D7EBwazTEwIvsxW0GJgntlt8d/FTtbEJJGypU68wrbXH5O2qb07vXu0+g6Kg1n3g3pHQMrRBUlwp/6ebym4kKQxcm/cc20hQ+wBmK+FQMXW2J4VBfO8PJjX0dwH5piSTyUgF7IdNm2ycPledmqs9yuFwWzGTTLpXODMa41g7qv1vgXMN5PO3540z/R9Vh7MT5Mn0ufLh66PHBDM5v+L3c23Ud0FMF8+w/x6SvhYGwj+4pMYLAbM7oZPAfPq3wfCciiaJwjmJ5Oqi3txkuf1gOeXv4q4l35251YGBLOeDfUZWMjPyO/3xZBglmsqr6kHBOXB7K7By6hzfJKkJiDTcAiWLZifp2RC16uv+nUHB7M5N5609f30ZcA52PuB383DXQezruKQJ55lr70cUGLqEpjnw4HZoXmXwHzPjJ1epayQyQS7tNURwGyeRxlWKHcMzDdTEGercswGAPPd6F0C6vksyXhd7pcRwawXmHQZrNidVOqzSD8JmNciIp39pBKDpYDZ/X9hYN6IAbEchGb7/nKAWb6ngmB+kDTLXEHIPRaKEIOvqO2Xwe1K7h+XGXFgMOv/3tWp6626JoNkL0iGArPJYmw+08BgntlJwr9DH3x6EFAGzEexRyPkujvMjQhmU8ItduJYtVvf9hlak1kmE3KsvqZkSy8NZgnfLPidCf9Ckj761l6OBbPfhGhWMLs+og3MkVgeE8wPY7aV6szn8+Zr115HBrOZTMyZ2bsiMPeVYtoA8/XE3Twv3HijMJivRq+ASzkonbTzj9X9ODKYzY7ZhKoVskjlMmcDZgPmWXrplxrgvD0xWCqYJXzAbBquN5hfFV/V7EPz2nu89N49wey+n0JgvlNTjfCEnRA/x2BZh8eq6pb4KRB/P8q1GhnMFl4bEyM6UcvysTdGBgCz2S1gPu9IYDYrzRH9o3eCKM9t2/Zh/SEGma6OfEVgjh7c6lqttn9bj9SazDLI6RqsjADmf5lSaKYET0Vgvh2Cq5Day771mB2YA3YQZQezbsuVg9l3K3YMWmxypSdH9t6vBMwmw3f+c81TAvP1lEUP3WfOz7HpC+aYOu6xY3M5+mTyjZjxTGVgNrlQost3Ld+2TR7uHZhz1mytMTFYDjC72Abm1c3rD+ZXg30fXWjeAPOFz+AB5s3vJiOYb+itTKlldSoJubciy6PERtCWJ13HcMvW7hHAbP6eraErOwtsmaWcWE4Csy2NNasAzOHZO2WrmG/mZX8wP41ZAdIDSP0ZqgNzcDbr9V0H25KhpdZkXiW4SYgMYL51KQOrAoBLaJMKZtMOkuKbUrWXfUtMRRy5KQLmbWfDE7CcHcxdpblWWeajJgSlf5Pki+Z5VBmY7U65rElKRwWzR+1i1w6vpZT8lHv7yI7hQ8Acg2W7FftLzCqsPit/7HZtVglmV8brl5hndtsRln0Fc5b06TUmBssJZpelWTfcLQMTDzC/Gvy7aENzC5jPP0s7mLd9LxnAfNWe0TzblXYo91RsiZSYrNo2wmYRe7bqjgDm1TEIB8gqwLxYfmpb7RsCzNu2jgXP2i+Wb722Q/oml4uYsZbVAtfnVArmqH5anjky2ecB5tCazCcpq68pkLVgPuos/6L+P/mZlNdI2h4tu79CViMDay+3RVROigHBfOFM5rTAfDNuDHD60k00Vwrm4HP2OwDmqylJhaUfNmODMDDHluOMgb3cx24iegJgji79qMcaW677/oH54gDo513Bipv5MbUW84FZ/3zLTH4PmF+N9j1sQ3MPmF2sg7nt+8gA5ifeGZMntBU7Jjuxi4SB2F8hs/Ky/a03+cqiWQHDdeLm+jarznlMMBceALoH4+O2La8jgdlkwgzcNtZ3vSV8tvmGrOqd90PLH9zkSuVgnpkM2OHb9beuxCfUZJbZfdlyPBKY/c7zqZ9JQV0imB+ErUSG117ejAxY3lsw95Wn0wkKI46b6P6kfjAHZcqvFcw+k6664kZCpnB99EnKoA4H5q+idjXoTNhmZ1YuMG9WS8kM5pktg/l3xH32BDBfrL15IzkVeaWJwfSWmPHA/Gp0wG2i2RPMLvqwHAnmySf0aqsbLPdSLJbdGfzICOoI21Dvtt57g3lhHg7SOe8cmBWe5H1UCOZZ6Dl/gX/fYN6nhE/wLHXHCv3YYG6vKx04iTdfnm27n1JrMqecuU3oRyRehKzwjbFlPAggkbWXL50TBsxRkPOp5R581lc9a9v6lTHB3DUJlWnMUzOYr6SUGbR1hGcxYI6+HyMWC+UYjntWh4C5RASCOerYgyxAbk647zuYZ+b8r8zY7Rhi7AqHbEkYGMyv6vn8a2geF8w7kdCrNbmSuofsvTT06vIsFDKbpWv0zOdxkwzmezYZnum0y4G59ADQZF31z3KeE8yecSfk3JU+JtBTgqhvQBT8sJVB8LvTu11JqSoEs9mOHHimTXDbdaZvhZiQlbSErM4HaYPIX0IGU7Gvk7ICHtLfxdZeBsx5IOdxlv2b0H5F+r+2fqVSMLs8BmdTBLMXlhPGdnoCbHG+2BQC5oR78XHMcTt3PK0LzKWA3BceYJ5FXaeNHTqA+XwL2ZPOs0sTTgwmSaX0bGZ5ML+ub9LAonkcMN/QA8UdSei15UGjO5P1eylqddk9yOMiKLuo3jZ1ct7RlgKz2y41OTDrbcQhpcAGB/MsZIJTVk37/l5vBtvA54LuB9+dziYI5uAtlG3b3lNrMsfWDR5yEOmze2FbJGyPfjLEd5h1EgIwZ5n8WB2BUP3BBMEcdaSlihVm+6wyx/XOF18O3fM/IReSyflyfnY3BMyRSb5MZuzQFf/58kzO2nedxR8LypdWnrt3590K39Ghy/iu/gZgXjtzJVtdbI3UzzsI50ZWSlxisAJgzoJlew77jURMhrtWNA8L5qu2NMDZzkFZZrnVPWKyQZr7JgXMiVsoo85eSjKSIcB8aNuDfqhkAPMgA8DIM48pYC59/qo/W3ZnQrpHoYOLbcmw2mIoMAckeLoVmt12GxyTazJHro6GTLysR9T5Q9X3xLyWT+bklkHpj0Os0gPmTJDLOPkR26+UBnNAubdrMcmXKgfzt0k78+wW5oHBfDcmwVztUPaFc8zEjUz2AubtYNYNVmZT9M1QpgB7FYnBMoM5z8ryYvnWnHdbyyQdkxSjtZ7sIGB+umsJvc7LWJiyKvJ5dfmODGAessTKxVI/zfMhwSwrsdWDObEObgyYI1/rWtCkpmRrPbGDjy3R9Vqhx3WkPfoOaisF80xPWAYO/rZ+d5f71ZchE7wxcIoE852Qusbr/Yh36bJ0MN8M2amUWnvZRSYs7yWYu48hhZ15je1XKgJzXPmsMcF8fNoF5rfxCzjLH3ySUZaI0LG6eEEW2baNf2vFsovWsUPgjjEZ95qxHluy28Csvxx9li8h813dK87NB/l8GcD8OhdoV4O89VrFi7yvURDM93ct6/r6NmbdVmxCh1xgzrQC8iDhHvhRMvIOBWZX8zsGzEMMAOVBHovlgcEcWKrofLIsMOFXEMwFBbETDqXAHDLIjk5G1DLRklyTOWK3Q8x3nzQpq3436jULJiTLVXs5UzmpvQRzb4m6gF0ccuwhtl8pBeboLPTxxx5rAvPrlDHHWFiOOl50cvrV1KDcB+fQcmdy/7kxHWDuBrNZETIF4j/u4PbaLzJzKTdSJJjzQrYdzHlhnhfMV/Qq5w7uRpA2L23/yA7Cc4M510Mgaeu+GuzLln0zmB8GzOvnv2oCc99KrE+EgDkxnocMUtr+Ts5tk7KqFzsBUBmYw5M3bsFtak1m+dnQldio3QopR2fU78ZgJvjcYchkbKbay4A5BXKd44unoVtiY/uVysAcmIm+SjC/Sll4kNXalPFOXwLLnngYBsXmV7n+U4XyeqRUbVhPFguY/cDszjM828XEYHIjSyMKBPPTw9xbpbvBnDGpmLz3LGC+GnWGdgoJvUxbNxkH6wZzykP4wuSRPVf0cCgwH3qCeagBYK4kQX1gzjQAfxwy8dM6KOpOKPc2ACl/9yVG8YlcYI49y3shG3nktjUXyZMQEd9pyYmXrnIrIa9Z/txh//PNNwBz5Arzxr2wEd9OoV/ZBubYCbiN3StfJgrmrxMm1o7dGDtpS/V6qdTweBW242y9ysxuRFR5PruTSO4BwBwG5p1NDCarMG1nFVo6lOQV90vJuPrBnKdsVdcA2oYHmP+1c9v11xN6nVgMFwJzytbfrQlFFsvf853zb37Vq866zE5hMNvSVvLfHJgvlzUaZgCYaxunRn4LmHP9/aCsyx2Dos5BZkgGdjUgSh3UVgbmsGyqkmRqy+dJzw4cVu84dNUly84x9dl7EsddikBsvg5Z8c5RezlzSam9A3Pnqn3IjqgR+5VCYJ5FjpsGA/Mqk/1FML9MGFufuDadAubUcVJwdmyZqDNZtXcqYlbb9W5LNYYBzOFg3tnEYBYJl0vHbH8A/pOI1jeXyj35gTk8Kc3WpE/dD3iPrWqvd2dFeUtCr2mBOaosjO9gWK61OaNeFsxuS/gYYJYzdRkxuxXMOQZ+F5IgBSCi7Wxolr+faTv7hYgEc66VxdAkXXqHwpaVsK2gCVq5bz6GlDkruUWxe4X99FEomn0jZFdbrtrLgLkYmG+V3L3Qu7shFsw5+7bAM6QVgPl5wtjqvUzou7YZC+YciwohVhFc7xqUtxzH+i3EDJJ7ADDHg3n3EoOpG0p/no1BSKYHi1fmvU0wt63uhtbfDemAvVa3dmSipDWh1/TAnFbmwXPlWQb7snV5SDAnotn7nnSDpVxRGMwz73tQfq4FzLnq8sZkS/aoNx0E5pwTHjG1k33LS4X+3W3PpLaQe8k3QjMVeyQQ9H7tADAHlTXLdawiYzmpvQTzcCXxyvUrDsy5Xz/0uMeQYHa7P9bA/Cx2cUjQ6fIbpII58exy3PnleXOy0xG4K1H6YsCcDubdSgw2Xx5ve8DnBLOgoyuRlgeYc6zwtpeD6N+qeLLzCb0Kg7lUFkjJ9DxQebbfzbnN00c68dv0wfxzbjCvBmMWzQXic/r9nmF1VQ26CgwqawDzLCw5yvbt0y2lqz6G7Eby7QMC0Ho766Sn+lvyN31f3z+bdkBZs4y1lwHz+P2KecaM168UBPMsIhfQGGB+Go1l9TyVFcn1pI6xYM60ovr8cFd2RI4UclwRMOcD804kBpMOYtuDHzCn1eycXEKvaYJ5UDSvlxMSPMsKm+x+KAHmBDQD5rjkPN+GrC4WO2/lCeaCW9dODgO2A2/7LnPAwbcUS8BW49cF+oHXvq9fot54rtrLBWowk/Qrol/Ru78Wy1mJ8AZzuX7lx9rArJ/b52B+kjKhZsYgJqeCPP+Tkpp2J6b0jbegNxXMy+8Ac34wTz4xmLx3+YzrsU9bsjc/+0Z8sxcJvaYL5pld8f12pB0aZ9Kx6i1QgLl6MOeAYled5xzRP7BtSkbIxMHJtu+y9Yx40Jm6y9u9t4VvPdiwxGP+E2e+2Mt91jNn7eUCJaX2b4W5vZ72+5CdFaF1yEOidyKu4GtH5KEZEsyPIzN5X9pxkwXM4TXbt8Ux6E0e270HzGXAPOnEYNsHPgWSfm38Ta+kX2b2r3DSr6wzo9NM6DVtMJszxSenX5UYGIdskZSHpnz3OcAciWbA3DXgap+R95+Qy53wq63G9cbANnOCr/St6fKdbfku286gh+T+kBUbn36lYNKhrG3BZ9t2GK7y1V4GzBkgl6FfyZ3wqzU2wTxM0qXnNYFZl0M0YH4kCTCzjb3my4epYM40efER9KbnsAHMZcE8zcRgXbXpcpaV2liZ8QTz6wyfr7usVPfWlk9TuY5JCb12A8wzi9UfRl7d/yLvQa+SAea6wNzeD/yWe/UzR6xWDIbB8szU9M363IiqySyDWDkT2NeveJ3NVW095HVDzy76vAefM9Zhk9L5ai9nrr+8pyvMGfoVmfBtTx6WNVZgHuj1QpOfDQTmh7l3hcpxEhmDpI5nDnTJwKT4FfSmT4AA5mHAPK3EYLIdZXNwmjKQ8kSzB5gznTvrHlz0PPj/msCER3pCr90Bs94OLdlja9iWpB9cJ80z2TYeA+YINAPmuK2T3smuZKCVIYupdww4qA0b2LaU78q1Ndpnxc0Dqw/CMqNKboKwJI8+map7jv2EHf3JXHs5czkptmTH9isFS5VtjQH7sIiSbsXAfOTGB6WOUM6X731zMLQn/hru/iPa+9m9BrMMpmWgvwlmuYF8MSwJV/TPrG2Tk077yJ7d0quSNimLdBIhs9tjnnf1ALPURH6VE809YM6CZfOee2bY8w3Sx9pS/0GXPjo2yT3kO5R2fuS+U7l2rs3OTRt2GD6y94HbAroJZn1vTBPMesCi70HZVj/yMQk5x28TiwDmUbdkt/5t7zNsIWWPckS1A9ttE602WnETkIxG+jWdEbwj+kuRBWSdttc2eDVMvUZvWbQeUIfsZMpdexkw59iSnaFfOV7eL5H5vpK4XxGY74dVA4g7gnhox1oppTMT4i/Qm15BCDAPA+a7kzr72ra17jKYs6K5A8zZsCzvuRPL/dsIJ5MBXZ/7k5qHFYK5NJo7wKw/syTIkVWc0bcqmTJut0PAHIhmwAyYRwdztoGzepYmgPlmUDKf+fK9fN86835IP6FeQ14rAcwPcq9oj1xSCjAD5jrBrJ4hg62+ygR5ApgTk379DXqTfPKX9LOAuSyYb+oZ9Ik11rZyBi1gzoZm+a7kYbkG5qu50uFrHNn32wVmj5IMP03qZteD2OVb1c5v1Abmkmj2ALP+HHK+x2zXbt6MhmeZ3XalvgAzW7J3bEu2RHetZ/9jSm7Ssy06+4TQCgd6B4j5m1KyKfR501YS0VWDaIugDP+Zay8DZrZk79WW7KGf8+9O78aCORHNZ8A3YQytxmfSLwLmMmC+qh+wE22kXfUcW8Ccb6XZbFV9YwCj/nfGMll9YPasT/n1RLeTnMl715MQFYG5FJoDwaw/x4FL0Gfu3feDT3SpNu8L5gA0A+YdSvq1yvcwtaRfmTJxy6RW16C/sz77Yvl7yGdx5w7d6nTItkZ5rbbSiT1gDjrXnbv2coH6yyT9mkDSr9V12rekX5FVVqIXcubNRyntGQ/m6CzZv4HfqJ223+tdmidmnAiY84P56ZQbp3QG0kDk7Ou26ABzvpXmQjWl+8Dc9pk34k5ySa2xk06pNloTmEugOQHMZmJIfvbff16XB7tO/JNp8sZjtfI73wQhgHl/ykptnit154KnUFaqq7RUTE3mrpW3LPC3zw13n7n3KfdmtuSSeTKHZ6+9XKCcFGWlKi4rte28uvlve1JWKrZ0XMpRQYWwVYLCwJJTPRVccrW7D7Zf2duQsd9qfCvuAczZwTyNhF4e27G7wNgD5qrQvI7ljGCe3rbsFiDZBFhVgDk3mjOBWf8N/bdsLgIBhE4+VBjN8v33nWUFzOlg7hjQnQTA5XXR1eR3p+1gtvduwfg2YKB10pnBugPNIX2q3B9tKzCt90pITeONM8jR5y7tGeht0fY9BOU6KVB7GTAX35L9PmTHUYb6u+2xpV9xYNY5AUq+tny2KYJ5vnzhykLqXSuBGfTXJ0NiwGzKUUZtyX4fsjtGxj47fH6+N9arJwHmvGC+uwuAcgMFnwQ2PWCuAs2bWO4Dc3DCih1JoqAHaKoN1wDmnGguBGZbdkx3onfM1u1CZeJOmmc+CaAAc9qAKxMUfyy1EtM2sF0HsztnWyJCBlrynXXhO1dNZrnubdsaW+6To5Qs1xcxGTZZ1vY8zZKULHPt5YI1mPcOzDn6lbZcMjnCB8xmq3axFeYfpwZmnQNB+t5zMNvdMRE7SmVSTpL1RYC59MSn/qy25j1gBsy5wHxTN8Idyj4nHYLfIL0XzOEJVgpjOTOYq9x+nlKQXdqytOmxwZwLzQOA2f6cmTTTyYhyJg1TKPCbvALMaQOuDFuR1YDJd3dKUMz/GBvMV8LycMh31g6xriRYct43KFttyzZ46Yc2I3Qr9WbW6bSt3cvvtr2nllWgF2PWXi5YUmr/VpiznNdf/t5XRi0muvqVTTAf2Wdd7ohA5rhg1vlF7M6Bi2B2NZy/RPzN32TMFTWRWfJozUZeDsAMmFPAfE1jcAL1eENXGv3PTnqBeRQ0t2G5D8w9g7mtA7yd2VlwAWnN19LGpwbmow00DAxm07YWOmHOY9kqmeWc+3z5vi+zKWBO3ZLdOsB/HNTvdOR9GALM7rk1ZumXvuRnfX1qYE3mE6lfvhlbcHojMFnXz5sZoy/BPiB5mLy2vIdLYN4CmZAjXSVqLwPmfGDOluyqp4zaRMF8J9/ERHkwm4WxZtYB5pgz2at+zHfcvR4R99/j0AmC9R1Auw5ktzvJbZPXPrTjQsAcD+Znu5htTuAnD6nQ2S0PMA+K5i4sFwCzyYa+a2h22QFVW58amC1YxwazKaMzPzvKUXu9r7QIYE4bcHUmogo8k5Zru6IrHxIKZvkd8+DPljE5qCJAX+3hnECXCSmpX74J5i39QlhVgy0r15v9fugzTd7DpWfoZcjcHbv2cqFyUnsJ5o42fmusfsUl8woF86H7b/mSGD6bDJh1luRm5gHmiKSAa6XypL9XYwrfNt6TRDH5eSZHzbb1D7sGZT1uXTSXwOySssl1Wf8eAbMfmB8VO6s4+pll/TC/IjdhITAPguY+LHeBWW6OSDDrbYt2x8GXXWsfOjGYavtTA/OBPaMlA+gRwew63QdBGZe3TGZt29J5YbUKMJcAc1h94HlzkuMBfpgBzIeZVoWCklhKPeCeQZvn5/8Y2+dvLyXlf0xCULcNa1vRE9Dfy3vYXEXaAsrXQd91ASwD5kHAPAupuJCrX5HnWCqYN/EQG5GLDIODWd5nW2m4tpJwMU6QyT9ZAQ4BcwyaQ99b26Tc1JG8GjMC5uxgPtrJFcTzDJ5HbitrYTAXRbMPlreC+WR9BtbM8EWA2bWZ+6WzJ4+5A0HayhTB7JKZjQhm/SANTbqxPqm1bUsnYC5eVipwi3CeEj8VgflO6LbFvsQzuc/aCTwugS9h+6ugddvAtOU6fR/0tzdq6l7aKRKwc61E7eXCNZhJ+hWdUDBPv1IRmG9G5v0ZFMwyUSHtMLSOuu43g/I+nOckkN8NbuthpaXeho2rt+dfcDFVKAPm/GC+tWsJvdYHGXogYQf1oWA2Dew/LvFVCJiLoNkXy+tgNhMi28F8GLDavAFml9X2yVA1e8dIDKbvjQmC+Wh1f48CZgeGl3Hff182XMAcX/4lU+ZmC5nYNq8f6ot8YJb/7XZYxERwjVH5rnpKyXgPqANWby8l6Fo/ExxWGmzrFm/9HW5fjX0QOgC/cI70IpgfjV17uXBJKZJ+JSSOS+lX3OA/F5gPLDLayrr1RfwzcDgwy8KH5HGRzxwB5pnN5fBPzI6+0LZf8hxzW/6FqaG5dcx4EczXZFHIZi6/CZj9wLyTCb3cdjPJwqm3qZ2czmLALIPfdTC7TL0BYM6K5hAsr8C86Aezq68dCWazNUceDDEzjRNIDCbfu04MNkEwu7NcI4E5Lru6zAx3zRwD5ugBV88A71rQa8gqgS3HMXEw3wz63B1lnjbDD+v+Z/83k1/FngmW19yG5Q4wh21Z30jgdAERIavVhWovA+bMK8zd9/v1oER06ruL7VcqA/O1kIR5o4B53nwUJMr7TQBz9DhXn4M+aVaY64vAe+Nq+Jj09KXP354SlDfAfEMvjm4872SCU/AMmNvB/CThZq4Zyn/JaoF0uIc2IVIomM2MeNMKZhlU6A7VD8xZ0ByKZQOYZRCYZQAbCWaNI7kZdbbB3Tzf/LtbVZoimA8sKIYC80aW3V8CV/fft5ShMQGYkwZcnSsioVtvj5tXQef5js2kRykwS9ttg2BbhG7dk+/Id9DckT04biv1RnmlVT8SWne0I7letuRF6nt17y96UqZQ7eWC9Zf3dIW5G80Knj+U7FfsmdViYNbjqtBJwdAEfAODWR/xePe/b7oJgUQwy/d2HPVZVb/iC+ZQNIf2i5J/wfd+nAqU18B8qyvHhbXTY8B8Ecw3QgdFE4HyP/K5ZJvZwdzVFQsHs3SQ3mCee4M5Cc2hWNZp8SPBLL+XAGZ3nvBO6ANyQhm1v5fJmMmC2Z7dM0mOBgFz8EBbOnX9t1sCMCcObLtLdz0K3YHRly26cjDfDp3g6ysn5VtWKrom89rEnVvBC1shX37qagNdKzZB71N259iVwih0F6y9XLCc1N6COedxj9B+pUIwXw+6V4YG87z5Tfo+t4jWB2ZPzN4ISTq4DjXJieML5sCt0fcj3s/rPojaYzzmuSWVVUYoC+XG4Z5jxis+OYekza7fd/sO5pspGWyrTuglN4ZFQyyYNSJCwbx2FrwEmkOxrFdMEsHsvscEMLtMzQ92MjGY3ca0E2BemLP5bgCeAuaOWph3A+/nM1aYy4G578EaXEpwsXwr11/u/82/p8sSSTu3CeiGArPph0yZtbbVAZncCS2NIjtNQuqI+qI5ZJVbkhKeI0HfEy8C768XXfdXDzJfx7zWajVfdo9UUHsZMOcHc9/22GBAyj0hY7GWZ6Y+8rD4c/XMGwLMB/ZZJ/9/264SM/6JOIo0EJj1bjn1THZHWDKC2SaD9d9+vz5J3nd+OPYscXAm7/nyb/kcIWB2Y+oDe2zMTTzmArJ9Vq3GdOtg1mM4277lfblr6Y4+6Tw2Ae1x3Rz7DObrwWeQqj9fuvy0Suh1fI6GUDC7jjAFzG4QlxPNMSvLOcG8mRAsAsw7mxhMl6CKPGdVK5hd23aA8QWzz+xm0CqeJB8EzGOBOTxRjS7Xd3Y0QTA/CE1Ws63GcPd9euYbRyH3h1sFsPf/LzGrvm3RuyIfkhzUrma73w35vkvVXh6gpBRg3rY9NnDBQMNLwW6CYL6TIS9QkeuoV3Olr3l3OisE5ti603oiUH/Ptr/ob/fexy+exiyKdE2MeoNZ51w5vVCVZtX2towb5HdcHgk39pL/LxHMD4Oec2tH4vYPzG6rVWSR8ckk9IoE84FbWcsAZl802y11H7c1Yru1/KP8TAiWS4FZPn8GMOtthzIQT9ymVFXIPdWzvdUrqgXz/Lwjd2UIpA3ds+1q9fe8ZnlDBtlqsNEFR8Bc7AzzKllN4H3qVggmBOZbwTk8IpKcBYA5cCVE96XBmWB1Oaye99y3jT0kSdnqvHTgZPG2ElqAuW4w+2zZDYWktINt91zFYL4WU5t4sBXmefOb2w1WEMyz2LKSepHIE8xBaI7YWav7KzdWds8v2z4mBOZbwTvGjD/0PbOvYH60I1BuT+hVCZjtTGovbN2NuNnxmZuwCVmxvvBQKAFmh69EMOufMdeueROzbadKNHckzwHMq7gVumWsE6SAOXnA1YfmmOMjkmlzc1a+UjBfjTkqYp89QbtHAhNRvQwZ1OgB/mL5U2zm6rbw6LMeha4c6WsUMGgtWXu5cP3l/T3D7IHm4AR7tv24Z5R+Li2WVYB51Q8du9ri4fXKxwBzXzm8zYhsl1djdrTKgpH0L9nBHLHKbBevnkwYzNdjJm9kQtQ5Ye/ArOE08a3YXgm9AsHstpIWAbMeIA4DZofSIcAsv58BzKvEYLuQfE7urZBVpM2IwXJtYHZozpXwpQ+zgLk8mKNLokiW/BPbxmziqxrAfOgSNM7jVj8EQCFn7CQiy1t5H12Q40ghW+02ayMngDkIv27gWUvt5cLlpPYazF5tPKL8pD6DWT+YX2QcW1QD5lg02/F6E9PXyu/6vo530qsYB6n+WHbxTBDMV0PyRVx6rtgKDvsI5qNJo8Q3oZc3mM8MBEqDuQPNucB8vrVsWDDrB0s6mM371Nc27sauJeQeA8ym45Z25s6ymt0Wy+ByE3qr+9qs7mYA5kHAHHf2y5UJqRfMz2M/UwiWI8Ectt05dHvr2kCoM+aNTzwPHHiG1Pc+Lp1lFjCPBubwHAkXssNXC+ZHQceO9gPM+nsJzRPhns++90VAWaX7MddIdkPKOeAJgfladIkvNRZffxbsHZiDs1pONaFXz89IQ7pny+gMBuYWNOcA88WzWMOD2ZUQygBmcz1kMDfRxGByj8UOrPYAzA8jOu0XJP0qC2YfNNsHdszW5X9kS22FYH4Vu4tE2n0omD1rMMfXZA48Y+6b3duzxvS1mJXCsWsvD1SDeW/B7LvaF1WtxSSDfFEhmJ8WOGJWFZhj0GzBHF2P2uwEOtXfd47EqfbZ8zbOI81nGctMAMw3Y3cUS5+1ubNnD8HcnExsi+vvMnsdnNCr5Wd0o7Ud6Shg3oLmVDBfTl4yHpgP8oHZJAZTD8SpJQaTe8xzVeZCxGJZ7g15COl6xXKuXzrIefNGtjFVBuaoc0yyXV/eX1sA5jwDLt/szbGDQdkpIPd0BWC+Gn38QzKAHy/vx6xiBtRhjq/JXCC7tyeY4wefI9ZeHqik1N6C2RfNkgE9ekVWtTt5BlYC5m8KjSt2CczBiQLXJ898wCzhO9EXvTAj5aYE//WC+W7sZ5NJbtl6vvkM2z8wx5xDGzmhl8NEOpibOsC8geYUMG/P9jkumPX3NV/mALPpgHQb0Ku2f01mkicGVpGrI60Z79XgXmZlZZaxAjBfiXpIzpuPXVgGzIODOX4bs51M0lluxwPzzbQjH6cvY7f9RoI5O0SlH3VlqHyi7/5bizsx2y3HrL0MmKsBcxI2JRGY4GdEMF8tnIOlOjAnls+8HoU59cyTSVvf1/FBsz6mmlL2a7481iu5dYH5ecpncrsk9x7MGerBDZ7QKxXMDmGZwHxDBgZ6lcGcVT2yCQmuBoF5Dc2xYG4vj9EL5lv6jM1J80xuLBPLxzbxVjYwu7NhGcDsgHdb2kbuQVn+4wM9ZZBayyNFgfmpzyqNzISa8kCjgPlGcPbeNaB0f/4/AHPGAZcnmBNWCGxpGHcGbFgwP5JdGCkDI70lMPasbHwywKx5R2SCLeQcdQCYZ9Fn5UaqvTxAOSnAHLBTKmkya7H8JO1lBDAfDZBItzowp6I5FqptpcUSwBxdK/riTtjl4wrAfCt+rHU++dR2XGcfzzA3NW9l3ZbQKxbMKyymg/muzHR3rc6bLQzNB8Gnrb3XD2aL5hgwdw8AtoL5SM8a9Q0YVQeqz4qoz5wNzLacSgYwTyIxmNxjUYOq46j4IfR4g5ncGQzM8UhR0Jd7qftcLWDOOeAKOJN7IzXHgMBNlxgrD+bbqas/0oZDVmW3RUr2/JwD8tAt5YH92OOMO3WK114GzOXBHIJmvVCSsAvSlCEyu6oGALPe+ZY5udc+gTk6kaRM2B7ZXUN9u3c8wZxnJ48al5rEZoOD+ZreoZG4ICqGkb/Vdn/u4ZbshBn2kgm91IN2vRxNCph1IzpucoD5joAkdEVTf8c6g6MHmC0YQ8DcPwC4AObowaLMNOlZwExg1g+ikyxgXiUGi0oWUnxLdvOrTsAVGIe2cw2MT5Ggf212cRQD8/3UmU55APQnogLMI4HZbcFtEieX/pKBip0Zzw3m23qiM/UohySzend6NwXLZsVrmRIvMk1KfyieQTpTssbStZcHrMEMmP3BbCbEU3dCyu/Pmzdmq2x2MN/QOCmW5G46YE5BswVzNFR1IkkPMPeheQ3M2epmm8UzZZryYL6md4jmOGo7bz5K25bvBDA7MAesSA2a0Gu+nOUAszT8DGA2M4cBNTBbGuD38vDz7UB8wOw3Y756KDxJn3E63yJfIZjd2djnNe2c0JMsEavFekU/PH5KubZ6AK0fPAo/6WC+bbf4f8ixuuQzcATM+QdcAWA2yXpyHPORBCrSllWfZTMux4L5mi03c5zj6IYrIeJKdIwYN5OfRwNlnI4uE7TRN0l/Iv1P6QDM5cHsi2Z3hC5bWSZdN7f5USbX3bG5SDBf1QAyCyh/5WjfuwLm2NwMFxMbRowZVPuQdpKSH2Lbe0md6N8cx8iEgLxPaUMZwfxA567JdMRWFnlk0lqe64B5/Qxz3mLq0bN/UtLDnak0UE0D8z03mE8Dc358yRYNz/MWBpbtYPbfYpY/W6N+SMybN/o8agYwrxIkpIP5wiRHFYnB+sogtUbUA+tJzpVxeVjocjvq77rz+Q4wG2C+pncfnDTPpOPOuXPFbKvTD5gZYK4ezGZwmzE3hulrVL+pV3FU+353etcdI9gA81X5/+Rn7IrP+zyovJB48rGu9T0+mJPOjbsJ6hiMxST0SW4P8+XxEFgGzNWC2U34Z76fm5OufsWCWfcrgmybBfk4a+4fWZkOPzO7y2DWZ29jVknld+R3M4LZjG0yovlCwjL9d09fupxBtgpCF5ivyhhMT0zr32t+zJ64ed58dOWjAPNG6IY5Eir0QFgNrvVK1PF51t4UMOutpPMmB5gfl9re685bhDzE18EcfiYrPottSAKpHGDWv3O8zAHmKhKDyb21WbvON2IfWIOUijM1L890Z104caCA3W1hyjAwBMwRA65AMLuyMGel7y17nKDJOZDuqrN5YLN5p4I5sgZz1prMcl/FACxqy6WumVr9SvhQWAbMnmjeAPPMHNUrO15d71cGeK3GJYvdFTDnQLO+5rKTJ2JXgaxOCzwzglkvnqX3YYHtz1RXWcUgCZrny2M9QWDHoID5MphnQzWESwm9JB28SzaUCOYLJYvSwHyUO7Nn23mLmNnviCQmD4oPJl1He9I8c/WxU8HsMpFnAPMqMdgYNcfl3orNoptYouHn0VfWM00uyb0LmCcHZpct9vfpt8FlY7e8zXKAOaG++qUswtHfrxqIxm5xHjyz90C1lwcqJwWY08DsIHU2+X5FdmFJMtW4+2MfwBx/nGPevPHN5O8JZj0eld0I1VdlSUi66eqXA+aWcPUSBysvtZ7QSwqOJ4J5ZraV5wDzTT1xMEyGQz2LFDNgCZ4xHxpOcn1PTr/KCWa5dhnA7FL7Px4sMZisSql7K6QMy4VIyDhpk5uc7EIH7oOH3AMHwByO5i1g1juYas5g79MO7Ba4WYVglr7tTWxehdgty7GZvWPbwVC1lwHz8GDuQ3MLmGf26MXHyT7f5stjOc6my3XuIJhT0bwG5rg8S4vmS8jYKwDMM5u86/ddgbLZRXH68p7N2wSY+8Ecnc49KaFXKphdYq80MF+151KGn7FcLN+GdiTZa/KWWxn8IKsyucAsv5MJzOdn04t3eqdPo7GcDmbzOY+bV1OcEZXz564DB8yTBrOtpxoHu1EnbAzUrrqdPbnAnFJOKtfKrat7HRMJg+io/ApD1F4euKQUYE4Hs0vo9/3Enmv/mJwgdsy6w2D2qXnsGddiFjmk/9bI9YhAMNujrNNekFidV9Ztz4zRAbM/mPPUHQtJ6BUJZl2H8hw/KWB+MmpZLYX00LMWIWiq4YbWiWmkbnUGMLtyDhnAvKpVpx9eJXZX6HvpdDYymPV3p7ejT2qLtk6CMQPMdYG5D80dYD4/f1hjGcMtg0bZJXNvIytppWAO30WkBkmxWA65J7dtIdcD8gprLwPm8cDcheYeMBucHZ8+ncSKn0KfXkQ4blZj1oSJr30Cs9lREDhOC32GB4LZlcysqiJLWEWU5WuzYGh2rgLmcDDPNCAyJvTSMzFtGA4E83pirkQw369mm6B0BFIKxSMiMpN+qWMAuvx71RYygNluNc8BZgfKWzqzc6aVWINws52oEjC7e+FZ6IB16AGFzrDsyix4Ds5LDByKgnleLM5878fY10gEs1sVejPU0Zfg0i5S8kNyAJyY/ic3mAtd9xeBk5jPXX30mEjZQq53cwXWXpdB6hCRCwqe8ZvngsMX32Mprf1j2iTcl4DFkS+xr5MIZlsLefldnc+15otNsHfVjG/SwGyxs3UiJnkyVVZyba3gHJERzME7VGyyrNJgNm1v0Xw7lZ18On+UzumztEdSAXMKmM2MXcKsyXpCLweeFDBvy2QdCebbtW3h0ed9PbOiykMjIB7VeFZCb7UVzGcAs3zOgzxgNlvGJUlRwqq8meVW986xLXpfH5ht/cjmeVVw1tA7fWkyUZ5nqx0TzHpCrRBsS0Fc13j0XGFMGewngtnVPL1ra5j+U8kg4kc9aF3YIx+FwOxboiswbnjDRt1rMmmRMnhNrR/tm3l4yNrLGmZxde9j4yffezX1nPsgfYrdDZDyWolg1v/dZuc/rmmhQM7SynNY+pJNMF+4h3NAsH2i64PfZL/qk/WYK09kBnNQzgYZy4VOBkaCeS1hsPJFhZPBbhFAXHCwGg8D5lxgNiuUZiXgzPfhJg+B1QWxGE4Fc1vpp0Awl9t6mxqy6idozB/PKt4O0giQdH3DbGBucoDZ/K5qw7r+sO9gXu4RycpoJwIqB7P+jPa7fzbmTgsZOMuAQgbR8l2Zh1IYmCNWyLwGDrISdqT7qPyRcwZ/I7yO1ISc7doWmcCs73M9SSVJXUYYZJiVGgVlk0HfDBymCWbvxDgyYZk6eE2tH+1blUOuzVBYNsnMmiHj6yHuVZ0wMy1eDbUbIBOY3TjiQdAzPHcSJQUnnXRqbkpkeoDZ+9nU1SY6jgC8HmL3Sc7dKO3HOvzGLDp/S2B7TwSzM8gd3cdV4g1zZEcfW7gwZgbMecG8SoolWyHMltXmg615+dnUYG1+lQe1dP7SSI7WL0gimFcZltPB/Kzm8y0hHVSJB/LYZwXtNuEsYJZrnwnMehXAlHxovjbF4ZtfNYzlTL6uz9h80FvA1L1h75HVVvOJgNmu7usH+h15oA51vlRvd1bt3m6jM1tVI8EclSSp70Gm2mXqKlxXlEKTfJ+9fZ3UTY+sC74eGcGs/ymTJrrPGiCDvayEyeDeJm5Z9Q2lwZzUF/THnb6VW2kbMqmX0q/oHCKJbUdnTu+7B+X/DziulCOGysRt42rf6q0uZ6bui5TJiRzv0ycbtfTpOUp/ZQSzfobLDgVdCmiIZ5veubN8oVeL7XikDcxtzyafe7irTXQe0evZVSbXMHX7/xChJ9j7P8vvch1inqMZwKz/XR8/ksS7suNh4AlhPQ6YN29sacetY2bAXAbMphHMz8Ghz0RokDZ20GMaSQ4wO+BkAPPDSSQ6kvNnnls5A2dsv5lSpj5d7ikDmKUNuwdHBjDrdqd/z7b5w9UsbrPKGLu6R6YLZvOZFnarrEzimO2yeZJZ6EkGPdn2Wv99u3VsNcgZFsyCoa/aHmDymeUhUwrLhcE8Mzt8Wq6bTHKq+ywDeEqAebX6Liu+tnLBe9/tu71nK9Xfkj5RJ91ZmL50BeXdALNr12edtaQTsZwJzKaWbhuadTm+00dDYnkEMNtkjC2Qs/dq6mp+jvfZV8LJbPX8z50cr1UAzAY5Cz2mfGCqRjQfcuR3MUfM5Pih7EbS23EvjUUDwWwqm7TcF3rCS903nX1M171rxsS/t55dVte5dixbMJs8RG39h3q2S18Y+wzNCGbjKjPGuamrpsjCY4HJG72TQpI5yllq9dklmfChfaYB5h0E82ZirgQw39GZmadTjw8wr50bNQ+1DGBW38H6BAxg9gaz+by2Q5UZeo0s2UWiV9TlbK8+A/ub3Wnyt9ttYmfY3+vzebI9WHYPmOyW533Hu9NZBWA2tefnzfc2gYo8bH6Th41efZ2fzSYMZvNwlu9froe+RuZB6pLuTQDM5n/bJGF6oCfn7vVnktn65qPe3WR2O33RSXVk18d5GzyWn5Xfkd81icZM/6mfK7sLZpOnQz67nCeVAb2sYqp/l2uvP0M9YDbJFmWAp0tO6oRrn+Tf9argYlgsjwRmc1xMdvcYxH3W34HqZ22/O6sEzGYr7PHpS9enmBWs5bEtz6jb3wTAbLbe2goZl/oV9d379CvyXJNxiqv8cjQ/x1IGMK9y7ejvWN6DvL563fUdWZFg1s8Ggzb9t81Etq1iY6/zVMA8s1vev7NjkS+rHa8yEXVyOqsMzCuUSlt04ypd/1i2b9tx1Won47YJfX3fqc8oC4HmOfi9XDuZXLQ7CMy2fPXZTQlWwLxzYNadzJZM1hFgvqHPXNeSGRowJ2SZXv6gS1FlALNrc4A5GszmAbH6vGt1WN134n7XDhiO3JnaE/P3KgXzagB2MHftp7FYmzyYzfe/ukbnn22CYF49ew4X5+3vYNFcyAp7sNEGDxfn96h5zb0Bs/nsC3t20d6L8hkrBLMZ4C1chl/z7xo5+wPm83wtC9PG7631uxWB2Q7+7f1m70XzbJwkmC/3K4ulV78izzX5W258UQDMto+z4w3bLtaflwlgPj+u6J7Ldnw+QTCf14W339OB7V8mAGbTzo7Nc2b9ubYa828mLHWfcf05eGzGq85rgHlHwXxoYZIBzJIE4MUUa6EB5p4Mk25VLAOY3cMMMANmwAyYATNgBsyAGTADZsAMmKsG83mHkgzmx0MkiQHMo9Yw/Ky3negtJ+lgdgN4wAyYATNgBsyAGTADZsAMmAEzYK4KzPp13p3mAHNSvVzAPMFt2rKDQH1XOmtnIpgdkgAzYAbMgBkwA2bADJgBM2AGzIB5l8B8UycJGaG2HmCupfi6ZBi8XFMuBsyrhxdgBsyAGTADZsAMmAEzYAbMgBkwjwVmN1BMAPNVU6OzjkLggLmOYuymhE4amN3ABTADZsAMmAEzYAbMgBkwA2bADJgHBfPmQDESzE8GKToPmCe6Vbs50TX5EsC8GsAAZsAMmAEzYAbMgBkwA2bADJgB8xBg3jZQDATzA12bcNfRB5hzFW3/XtfWTQCzwyRgBsyAGTADZsAMmAEzYAbMgBkwFwNz20DRE8y6aPu+YA8wZ82o/UW14bf6rHskmCUAM2AGzIAZMANmwAyYATNgBsyAOTuY+waKPWC+JuWD1N//a6+QB5iLlKKSz6/bVASY1wcKgBkwA2bADJgBM2AGzIAZMANmwJwMZp+BYgeYn6mL+fte4g4wl0wM9rtqs89VQ78SA2aXnR0wA2bADJgBM2AGzIAZMANmwAyYo8AcMlDcAuZH6p8f9xp2gHkIOP8iyeNiwLw62wyYATNgBsyAGTADZsAMmAEzYAbMvmCOGSiugfnGXp1TBsy1fNfHqhO4FQPm1eABMANmwAyYATNgBsyAGTADZsAMmNvAnDJQtGC+q1f8ABxgHuf7PlMdxeNYMF/Ipg2YATNgBsyAGTADZsAMmAEzYAbMh4lQXgPznb09qwyYq8qmLWhOAfNqMAGYATNgBsyAGTADZsAMmAEzYN5vMGcaKF5Tf/8TYAPMldRu/ktqfeccAAFmwAyYATNgBsyAGTADZsAMmHcUzKVDXbw3QA0w17XSvPykOoyrQw+UQhEOmAEzYAbMgBkwA2bADJgBM2DebTDfkW2wIA0w1xbyPdX+gADMgBkwA2bADJgBM2AGzIAZMI/0woducFs23oIzwFxrrWap0wyYATNgBsyAGTADZsAMmAEzYAbMlyK1Q/YJEn0B5qrRfHL6lXQyNQdgBsyAGTADZsAMmAEzYAbMgHk3wXxzYhmUP6uG9BowB6LzePmDukE/TvQs89uBdlpEB2AGzIAZMANmwAyYATNgBsyAeYSIGXAGxtFEsib/oxrMd6qR3FKN7zpgDgv10PjaPryeqpv614mt8r/3vQZjBmAGzIAZMANmwAyYATNgBsyAeegVZnUDF44HUwCTahz3Vw9xwBwF5iP78JLM0+qfL9UN2UwDzM1vKwRWHIAZMANmwAyYATNgBsyAGTADZsA8ZMKnX1SjenI4P3+I284FMKeB2dXyvq63ty+az3Un/mp+PVh1RnUHYAbMgBkwA2bADJgBM2AGzIB5yC3Zx8vScb/CFeUzWQHVK6FukH98YcsrYI4E85HDmAGz61xuqRv5W/UZ/q61HnPtZ5hDzzIDZsAMmAEzYAbMgBkwA2bADJinUYf5TkVQ/lsSPJlEZHYlFDAPAWbTKbw7vatu1h9rA7N6sP4kD9epBGAGzIAZMANmwAyYATNgBsyAeaAoOTC0cU0SatWAIgGbdDyu8a6DeaNzAcwJYHZbs7eAWd+sepu+JNqqBs2nL3XHNpEAzIAZMANmwAyYATNgBsyAGTDvDphno+Jo3nxUjeSRHsTrwftlMG/pXABzIpiP7PfaAmbzsD05/Upvhx57MmV+djRAtvisAZgBM2AGzIAZMANmwAyYATNgHiAGWhV7OkJCr99Vw3iuPuQVaSSAuUowS8O/oh5Az3Sm6rG2Y08My4AZMANmwAyYATNgBsyAGTAD5uFeeIi4ojNSD1NP+S/JzGwyNDerQXgbmFs6F8CcAcxH9gHXA2YHuaumlrMkZBvufcv28AEyxWcPwAyYATNgBsyAGTADZsAMmAHz7oBZLtSj4lg+Xv4gScYO7JlkwDw+mI/szekBZv2z6ga9oW70NzLxMUB27LdTxDJgBsyAGTADZsAMmAEzYAbMgHn3wCwX91Wh7dc/y0rhwfH54N8HzB2dC2AeD8z6Rlcdym11A39XKmGceh8fVKfyr83OcUoBmAEzYAbMgBkwA2bADJgBM2DeLTDPdD3efAm9fpPz0dIQTEfkD+aeQQFgzglmeyMHgtkMqiQhl2Q4z/udv5eV7CljGTADZsAMmAEzYAbMgBkwA2bAvJtgntmzqn/Hb6VtPgsIpWSVawiAuW4wH82jwWxqD8+XD2VVOPV9yqq1nJfe1jECZsAMmAEzYAbMgBkwA2bADJgBcw1glotxP7jclEK2rFCr370lDdc1yFAwewwKAHN9YDYPt3nzRLbgx2zbF3Tfs50EYAbMgBkwA2bADJgBM2AGzIAZMNcMZjuIWT5UF/Z7dfGajuRMn3Tm68V/7riBXyyYPQcFgLkAmI9sB5MIZne9H0i76SpHJaXFZIJFr07bvwGYATNgBsyAGTADZsAMmAEzYAbMUwLzeUdoMlw/1nWb580TgY5qaDcP7QPVNUTAPF0wH+UD8wpuesfB4vSRbjtr7ebADsDcAwIwA2bADJgBM2AGzIAZMANmwAyYpwzmVSM6tIMdN/jLAeaAQQFgnhaYbUewvNBuADNgBsyAGTADZsAMmAEzYAbMgBkwe4A5cFAAmAuC2Q2GATNgBsyAGTADZsAMmAEzYAbMgBkwA2bAvO08M2AGzIAZMANmwAyYATNgBsyAGTAD5pHBHD4oAMyAGTADZsAMmAEzYAbMgBkwA2bADJgBM2AeB8xH9voAZsAMmAEzYAbMgBkwA2bADJgBM2AeAcyRgwLADJgBM2AGzIAZMANmwAyYATNgBsyAeXfBnBCAeSAw64ExYAbMgBkwA2bADJgBM2AGzIAZMANmwAyYtwdgBsyAGTADZsAMmAEzYAbMgBkwA2bADJgBM2AGzIAZMANmwAyYATNgBsyAGTCPA+YMgwLAPDCYXQBmwAyYATNgBsyAGTADZsAMmAEzYAbMgBkwA2bADJgBM2AGzIAZMANmwAyYAfOAYP73n4AZMANmwAyYATNgBsyAGTADZsAMmAEzYF4Hc8aH2dWhoKka73N34/WFL6xtvBgSzOoh8kwDKUcAZsAMmAEzYAbMgBkwA2bADJgBM2CuFszSOD8Pg83Tp/rz+oSDil88GRLM6vo8dvjIEYAZMANmwAyYATNgBsyAGTADZsAMmHNuyXYDhTzx8xDQVJ/xoYNcXwQOSu4PusL87vRuzsELYAbMgBkwA2bADJgBM2AGzIAZMAPmTGAOXH31iTdDQFN9vpshD8CQQYn6DL8Nsrq8WP6Se/ACmAEzYAbMgBkwA2bADJgBM2AGzIA5A5ilEyoQDwaA5s+hD8BDhxG/eDvQduzXObdjH6wNTAEzYAbMgBkwA2bADJgBM2AGzIAZMNcHZmlYH6o5v3x8GjOIuqNusi9FP8Oi+axu/tvSAZQIwAyYATNgBsyAGTADZsAMmAEzYAbMCWD2PQMcEQ/LlZNqPqrv5Ur49xg2iCq9tVzKV5XCMmAGzIAZMANmwAyYATNgBsyAGTAD5nrBXGZb86L5rBrpUdT3GFNTWuG81JZydQ2ulcQFYAbMgBkwA2bADJgBM2AGzIAZMAPmSDAP8N6vqPd5nPG87z+qQX8ljXQgMMvNeTt3AjB14/4qCctKwgIwA2bADJgBM2AGzIAZMANmwAyYAXPdYJbXuaY6358yYPkvObcsDXpgMM902afF8lOu7eRyPlquDWAGzIAZMANmwAyYATNgBsyAGTAD5v0Gs+581ft/JSvEsSuypjby6WwkMGv4q+/1+6Qzy4vmW3WTXdWDY8AMmAEzYAbMgBkwA2bADJgBM2AGzIDZglle+37QavN8eSaJsfQq9bFtuOOB2QHzfug2c3WT/Sjnrt0gEjADZsAMmAEzYAbMgBkwA2bADJgBM2DeBLMB3OI/d9Tn+FrgKavHst1arz4rIOsty/Pld+qfT/RqrH2vFYFZf/dytlndPM8Fw/Ke1ftv1H//W91Yv5t/b36U/1/9/C03oATMgBkwA2bADJgBM2AGzIAZMAPmvQEzQRAEQRAEQRAEQdQcfAkEQRAEQRAEQRAEAZgJgiAIgiAIgiAIAjATBEEQBEEQBEEQBGAmCIIgCIIgCIIgCMBMEARBEARBEARBEICZIAiCIAiCIAiCIAAzQRAEQRAEQRAEQQBmgiAIgiAIgiAIggDMBEEQBEEQBEEQBAGYCYIgCIIgCIIgCAIwEwRBEARBEARBEARgJgiCIAiCIAiCIAjATBAEQRAEQRAEQRCAmSAIgiAIgiAIgiAIwEwQBEEQBEEQBEEQgJkgCIIgCIIgCIIgADNBEARBEARBEARBAGaCIAiCIAiCIAiCAMwEQRAEQRAEQRAEAZgJgiAIgiAIgiAIAjATBEEQBEEQBEEQBGAmCIIgCIIgCIIgCMBMEARBEARBEARBEBOM/x9wwBKWqhr/gAAAAABJRU5ErkJggg==;imageBackground=#FFFFFF;imageBorder=none;shadow=1;container=0;" vertex="1" parent="8e7B-ONYr-sdzbZyXvUv-136">
          <mxGeometry x="987.1506622516557" y="169.884" width="134.4953642384106" height="35.42251655629139" as="geometry" />
        </mxCell>
        <mxCell id="8e7B-ONYr-sdzbZyXvUv-16" value="" style="fontColor=#ffffff;verticalAlign=top;verticalLabelPosition=bottom;labelPosition=center;align=center;html=1;outlineConnect=0;fillColor=#0080F0;strokeColor=#FDFFED;gradientDirection=north;strokeWidth=2;shape=mxgraph.networks.storage;shadow=1;gradientColor=none;container=0;" vertex="1" parent="8e7B-ONYr-sdzbZyXvUv-136">
          <mxGeometry x="830.6937086092715" y="305.4" width="46.35761589403974" height="60.00000000000001" as="geometry" />
        </mxCell>
        <mxCell id="8e7B-ONYr-sdzbZyXvUv-17" value="&lt;b&gt;&lt;font color=&quot;#fdffed&quot; style=&quot;font-size: 10px;&quot;&gt;RAW&lt;/font&gt;&lt;/b&gt;" style="text;strokeColor=none;align=center;fillColor=none;html=1;verticalAlign=middle;whiteSpace=wrap;rounded=0;container=0;" vertex="1" parent="8e7B-ONYr-sdzbZyXvUv-136">
          <mxGeometry x="807.5149006622516" y="289.20000000000005" width="92.71523178807948" height="48" as="geometry" />
        </mxCell>
        <mxCell id="8e7B-ONYr-sdzbZyXvUv-28" value="" style="fontColor=#ffffff;verticalAlign=top;verticalLabelPosition=bottom;labelPosition=center;align=center;html=1;outlineConnect=0;fillColor=#0080F0;strokeColor=#FFFFFF;gradientDirection=north;strokeWidth=2;shape=mxgraph.networks.storage;shadow=1;container=0;" vertex="1" parent="8e7B-ONYr-sdzbZyXvUv-136">
          <mxGeometry x="1166.7864238410596" y="301.20000000000005" width="46.35761589403974" height="60.00000000000001" as="geometry" />
        </mxCell>
        <mxCell id="8e7B-ONYr-sdzbZyXvUv-29" value="&lt;b&gt;&lt;font color=&quot;#fdffed&quot; style=&quot;font-size: 10px;&quot;&gt;Stage&lt;/font&gt;&lt;/b&gt;" style="text;strokeColor=none;align=center;fillColor=none;html=1;verticalAlign=middle;whiteSpace=wrap;rounded=0;container=0;" vertex="1" parent="8e7B-ONYr-sdzbZyXvUv-136">
          <mxGeometry x="1175.478476821192" y="301.20000000000005" width="28.973509933774835" height="16.2" as="geometry" />
        </mxCell>
        <mxCell id="8e7B-ONYr-sdzbZyXvUv-31" value="&lt;b&gt;11&lt;/b&gt;" style="ellipse;whiteSpace=wrap;html=1;aspect=fixed;fillColor=#0050ef;fontColor=#ffffff;strokeColor=#001DBC;container=0;" vertex="1" parent="8e7B-ONYr-sdzbZyXvUv-136">
          <mxGeometry x="1152.299668874172" y="300" width="21.192052980132452" height="21.192052980132452" as="geometry" />
        </mxCell>
        <mxCell id="8e7B-ONYr-sdzbZyXvUv-115" value="" style="sketch=0;outlineConnect=0;fillColor=#1ba1e2;strokeColor=#006EAF;dashed=0;verticalLabelPosition=bottom;verticalAlign=top;align=center;html=1;fontSize=12;fontStyle=0;aspect=fixed;pointerEvents=1;shape=mxgraph.aws4.iot_analytics_pipeline;fontColor=#ffffff;" vertex="1" parent="8e7B-ONYr-sdzbZyXvUv-136">
          <mxGeometry x="677.7135761589404" y="309.90000000000003" width="82.64900662251655" height="44.50331125827814" as="geometry" />
        </mxCell>
        <mxCell id="8e7B-ONYr-sdzbZyXvUv-40" value="" style="fontColor=#ffffff;verticalAlign=top;verticalLabelPosition=bottom;labelPosition=center;align=center;html=1;outlineConnect=0;fillColor=#0080F0;strokeColor=#FFFFFF;gradientDirection=north;strokeWidth=2;shape=mxgraph.networks.storage;shadow=1;container=0;" vertex="1" parent="8e7B-ONYr-sdzbZyXvUv-136">
          <mxGeometry x="1502.879139072848" y="303.59999999999997" width="46.35761589403974" height="60.00000000000001" as="geometry" />
        </mxCell>
        <mxCell id="8e7B-ONYr-sdzbZyXvUv-41" value="&lt;b&gt;&lt;font color=&quot;#ffffff&quot; style=&quot;font-size: 10px;&quot;&gt;EDW&lt;/font&gt;&lt;/b&gt;" style="text;strokeColor=none;align=center;fillColor=none;html=1;verticalAlign=middle;whiteSpace=wrap;rounded=0;container=0;" vertex="1" parent="8e7B-ONYr-sdzbZyXvUv-136">
          <mxGeometry x="1511.5711920529802" y="303.59999999999997" width="28.973509933774835" height="16.2" as="geometry" />
        </mxCell>
        <mxCell id="8e7B-ONYr-sdzbZyXvUv-44" value="" style="rounded=0;whiteSpace=wrap;html=1;shadow=1;fillColor=#eeeeee;strokeColor=#36393d;container=0;" vertex="1" parent="8e7B-ONYr-sdzbZyXvUv-136">
          <mxGeometry x="233.83940397350992" y="156.00000000000003" width="266.5562913907285" height="240.00000000000003" as="geometry" />
        </mxCell>
        <mxCell id="8e7B-ONYr-sdzbZyXvUv-45" value="" style="edgeStyle=orthogonalEdgeStyle;rounded=0;orthogonalLoop=1;jettySize=auto;html=1;shadow=1;entryX=0.5;entryY=0;entryDx=0;entryDy=0;entryPerimeter=0;flowAnimation=1;" edge="1" parent="8e7B-ONYr-sdzbZyXvUv-136" source="8e7B-ONYr-sdzbZyXvUv-46" target="8e7B-ONYr-sdzbZyXvUv-56">
          <mxGeometry relative="1" as="geometry">
            <mxPoint x="309.1705298013245" y="312.00000000000006" as="targetPoint" />
          </mxGeometry>
        </mxCell>
        <mxCell id="8e7B-ONYr-sdzbZyXvUv-46" value="" style="outlineConnect=0;dashed=0;verticalLabelPosition=bottom;verticalAlign=top;align=center;html=1;shape=mxgraph.aws3.iam;fillColor=#759C3E;gradientColor=none;shadow=1;container=0;" vertex="1" parent="8e7B-ONYr-sdzbZyXvUv-136">
          <mxGeometry x="291.7864238410596" y="192" width="34.7682119205298" height="60.00000000000001" as="geometry" />
        </mxCell>
        <mxCell id="8e7B-ONYr-sdzbZyXvUv-47" value="&lt;b&gt;IAM Role&lt;/b&gt;" style="text;strokeColor=none;align=center;fillColor=none;html=1;verticalAlign=middle;whiteSpace=wrap;rounded=0;shadow=1;container=0;" vertex="1" parent="8e7B-ONYr-sdzbZyXvUv-136">
          <mxGeometry x="407.68046357615896" y="169.20000000000002" width="69.5364238410596" height="36" as="geometry" />
        </mxCell>
        <mxCell id="8e7B-ONYr-sdzbZyXvUv-48" value="&lt;b&gt;IAM Policy&lt;/b&gt;" style="text;strokeColor=none;align=center;fillColor=none;html=1;verticalAlign=middle;whiteSpace=wrap;rounded=0;shadow=1;container=0;" vertex="1" parent="8e7B-ONYr-sdzbZyXvUv-136">
          <mxGeometry x="261.65397350993373" y="162" width="104.3046357615894" height="36" as="geometry" />
        </mxCell>
        <mxCell id="8e7B-ONYr-sdzbZyXvUv-49" value="" style="edgeStyle=orthogonalEdgeStyle;rounded=0;orthogonalLoop=1;jettySize=auto;html=1;entryX=0.92;entryY=0.5;entryDx=0;entryDy=0;entryPerimeter=0;shadow=1;flowAnimation=1;" edge="1" parent="8e7B-ONYr-sdzbZyXvUv-136" source="8e7B-ONYr-sdzbZyXvUv-50" target="8e7B-ONYr-sdzbZyXvUv-46">
          <mxGeometry relative="1" as="geometry" />
        </mxCell>
        <mxCell id="8e7B-ONYr-sdzbZyXvUv-50" value="" style="outlineConnect=0;dashed=0;verticalLabelPosition=bottom;verticalAlign=top;align=center;html=1;shape=mxgraph.aws3.role;fillColor=#759C3E;gradientColor=none;shadow=1;container=0;" vertex="1" parent="8e7B-ONYr-sdzbZyXvUv-136">
          <mxGeometry x="410.57781456953643" y="201.00000000000003" width="55.049668874172184" height="42" as="geometry" />
        </mxCell>
        <mxCell id="8e7B-ONYr-sdzbZyXvUv-59" value="" style="edgeStyle=orthogonalEdgeStyle;rounded=0;orthogonalLoop=1;jettySize=auto;html=1;shadow=1;exitX=1;exitY=0.5;exitDx=0;exitDy=0;flowAnimation=1;" edge="1" parent="8e7B-ONYr-sdzbZyXvUv-136" source="8e7B-ONYr-sdzbZyXvUv-113" target="8e7B-ONYr-sdzbZyXvUv-57">
          <mxGeometry relative="1" as="geometry">
            <mxPoint x="220.19867549668874" y="333.6" as="sourcePoint" />
          </mxGeometry>
        </mxCell>
        <mxCell id="8e7B-ONYr-sdzbZyXvUv-63" value="&lt;b&gt;2&lt;/b&gt;" style="ellipse;whiteSpace=wrap;html=1;aspect=fixed;fillColor=#0050ef;fontColor=#ffffff;strokeColor=#001DBC;container=0;" vertex="1" parent="8e7B-ONYr-sdzbZyXvUv-136">
          <mxGeometry x="401.88576158940396" y="204.60000000000002" width="21.192052980132452" height="21.192052980132452" as="geometry" />
        </mxCell>
        <mxCell id="8e7B-ONYr-sdzbZyXvUv-64" value="&lt;b&gt;5&lt;/b&gt;" style="ellipse;whiteSpace=wrap;html=1;aspect=fixed;fillColor=#0050ef;fontColor=#ffffff;strokeColor=#001DBC;container=0;" vertex="1" parent="8e7B-ONYr-sdzbZyXvUv-136">
          <mxGeometry x="664.9652317880796" y="298.80000000000007" width="21.192052980132452" height="21.192052980132452" as="geometry" />
        </mxCell>
        <mxCell id="8e7B-ONYr-sdzbZyXvUv-65" value="&lt;b&gt;7&lt;/b&gt;" style="ellipse;whiteSpace=wrap;html=1;aspect=fixed;fillColor=#0050ef;fontColor=#ffffff;strokeColor=#001DBC;container=0;" vertex="1" parent="8e7B-ONYr-sdzbZyXvUv-136">
          <mxGeometry x="814.4685430463577" y="296.4" width="21.192052980132452" height="21.192052980132452" as="geometry" />
        </mxCell>
        <mxCell id="8e7B-ONYr-sdzbZyXvUv-52" value="" style="outlineConnect=0;dashed=0;verticalLabelPosition=bottom;verticalAlign=top;align=center;html=1;shape=mxgraph.aws3.internet_gateway;fillColor=#F58536;gradientColor=none;shadow=1;container=0;" vertex="1" parent="8e7B-ONYr-sdzbZyXvUv-136">
          <mxGeometry x="210.66059602649005" y="132" width="57.94701986754967" height="60.00000000000001" as="geometry" />
        </mxCell>
        <mxCell id="8e7B-ONYr-sdzbZyXvUv-53" value="&lt;b&gt;&lt;font color=&quot;#ffffff&quot;&gt;AWS&lt;/font&gt;&lt;/b&gt;" style="text;strokeColor=none;align=center;fillColor=none;html=1;verticalAlign=middle;whiteSpace=wrap;rounded=0;shadow=1;container=0;" vertex="1" parent="8e7B-ONYr-sdzbZyXvUv-136">
          <mxGeometry x="214.43974949611288" y="149.5" width="50.38871292830407" height="25.000000000000007" as="geometry" />
        </mxCell>
        <mxCell id="8e7B-ONYr-sdzbZyXvUv-56" value="" style="outlineConnect=0;dashed=0;verticalLabelPosition=bottom;verticalAlign=top;align=center;html=1;shape=mxgraph.aws3.bucket;fillColor=#E05243;gradientColor=none;shadow=1;container=0;" vertex="1" parent="8e7B-ONYr-sdzbZyXvUv-136">
          <mxGeometry x="285.9917218543046" y="304.8" width="46.35761589403974" height="48" as="geometry" />
        </mxCell>
        <mxCell id="8e7B-ONYr-sdzbZyXvUv-122" value="" style="edgeStyle=orthogonalEdgeStyle;rounded=0;orthogonalLoop=1;jettySize=auto;html=1;entryX=0;entryY=0.5;entryDx=0;entryDy=0;entryPerimeter=0;flowAnimation=1;" edge="1" parent="8e7B-ONYr-sdzbZyXvUv-136" source="8e7B-ONYr-sdzbZyXvUv-57" target="8e7B-ONYr-sdzbZyXvUv-114">
          <mxGeometry relative="1" as="geometry" />
        </mxCell>
        <mxCell id="8e7B-ONYr-sdzbZyXvUv-57" value="&lt;b&gt;&lt;font color=&quot;#ffffff&quot;&gt;S3&lt;/font&gt;&lt;/b&gt;" style="text;strokeColor=none;align=center;fillColor=none;html=1;verticalAlign=middle;whiteSpace=wrap;rounded=0;shadow=1;container=0;" vertex="1" parent="8e7B-ONYr-sdzbZyXvUv-136">
          <mxGeometry x="285.9917218543046" y="315.6" width="46.35761589403974" height="36" as="geometry" />
        </mxCell>
        <mxCell id="8e7B-ONYr-sdzbZyXvUv-58" value="&lt;b&gt;1&lt;/b&gt;" style="ellipse;whiteSpace=wrap;html=1;aspect=fixed;fillColor=#0050ef;fontColor=#ffffff;strokeColor=#001DBC;container=0;" vertex="1" parent="8e7B-ONYr-sdzbZyXvUv-136">
          <mxGeometry x="274.4023178807947" y="297.6" width="21.192052980132452" height="21.192052980132452" as="geometry" />
        </mxCell>
        <mxCell id="8e7B-ONYr-sdzbZyXvUv-113" value="" style="shape=image;verticalLabelPosition=bottom;labelBackgroundColor=default;verticalAlign=top;aspect=fixed;imageAspect=0;image=data:image/jpeg,/9j/4AAQSkZJRgABAQAAAQABAAD/2wCEAAoHCBEPDxERDxESDxAREhISEQ8SERgRGBARGBgZGRgYGRgcIS4lHCErIRgYJjomKy80NTU1GiQ7QDs0Py40NTEBDAwMBgYGEAYGEDEdFh0xMTExMTExMTExMTExMTExMTExMTExMTExMTExMTExMTExMTExMTExMTExMTExMTExMf/AABEIAIsBaQMBIgACEQEDEQH/xAAcAAEAAwEBAQEBAAAAAAAAAAAAAQcIBgUEAwL/xABCEAACAQMBBQUEBwYFAwUAAAABAgMABBEFBgcSITETQVFhcRQiMoE1UnKRobGzCDNCc4KyFSNidMEk0eFDU5Kiwv/EABQBAQAAAAAAAAAAAAAAAAAAAAD/xAAUEQEAAAAAAAAAAAAAAAAAAAAA/9oADAMBAAIRAxEAPwC5aUpQKUpQfyTgZPIDmfIVTu3G9pld7fSuEhSVa9YBw3L/ANIdMZ/iOc45Dvrot8uvNZ6aIY2KyXjGPI6iJQDJ9+VX+qqD0nT5Lu4it4F4pJnCIPM9SfIDJPkKD0bja/U5Dl7+6PPi5TMoz6KQPlXraJvL1WzcM1wbqPI4op/fDDIzhviU48Djn0NWVo+52wjiAu3luZiPeZXMSqf9Kjny8yfSuE3ibuzpKi4t3aa0Z+EhwOOAn4QxHJgemeXdQXJsftdbaxAZIMpImBNbsctETnB5dVODg/keVdJWWdgtefTtSt5VJ4HdYpkBwHic4OfTIYea1qagmopSgUpSgmopSgUpSgUpSgUpSgUpSgUpSgUpSgUpSgUpSgUpSgUpSgUpSgUpSgUpSgUpSgVNRSgUpSgUpSgp39oFDwaccHhDXIJ7gSIsfkfurid015FBrVs0xChw8as2AFkdSF5nxPL51eG8LZz/ABTTpIEx2yESwE/+4oPu57uIEr86zHPDJBIyOrxSxthlYFWRh5dQaDYlcdvUvoYNGuhMRmZRFEp5lpCcjA8sE/Kqq0Le5qFrF2cypeYGEklJV18OJh8Xz5+dcttLtTd6rKHu5OILns4lHCkYPXhX5dTk0HkW8Rd0RerMqr6k4FbDjBCqD1AAPris87pdkmvrxbqVP+ktWDEsDiWUfCq+ODhj6Ad9aJoFK8TajaW20qAz3LkZ5RxLzeVvqqP+TyFUvr293ULhsWgWxjHQBVldufezjHTHICg0HSs2WO9PWInDNcrOo6xyRR8JHqqgj76tPYjeXb6o4t5l9lumzwIW4km6nCtjkcD4T8s0FgUpSgUpSgUpSgUpSgUpSgUpSgUpSgUpSgUpSgmopSgUpSgUpU0EUpSgUpSgUpSgUpSgUpU0EUpSgVyG127+y1XLupguMYFxGBxHHTjXo/z5+Yrr6+PUNSgtU47maOBOnHJIEBPgMnmaDLm1+gHS76S0aQTGMIe0ClOIMoYcsnHXxrvd3u7CC9tob67mdopOIrbRjgyFcrhnznB4egA9a5PebqcF7q089tIJYmWJVcAgEqiqcZA7watjdXtLYjS7S0N1ElynGrQu/AxZndgF4scXIjpmg7uwsYraJYbeNYok5KiLwgD/AL+ffX1Z8eVTXyann2afh+LspMY8eE4oMy7ebRvqmoTSliYUZo7dAcqsSnAI82xxH18hXqbDbup9XQztILa1DcIkKcbSEfEEXI6dM56+OK4WtS7uSn+C2HZ/D2C5+3z4/wD7ZoK12g3MyRRNJY3BuGVSewkQIz47lYHGfIgetVSC8UnLijkRvNWRwfvBBFbGrK+8AxHWL42+Oz7dscPTjwOPH9XFQaD2A146lpkFw/70Axzcsf5icicd2Rg/Oulqrtwgb/DrrPw+1nHr2aZ/4q0aBSlcxvD1mbTtLmurYqJUaIKWXiGGdVPL0JoOnpVB6HvU1We8tYZGg4JbiGNsQgHhd1U4OeXI1ftBFKmlBFKmlBFKmlBFKmlBFK/iRwqlmICqCSScAAcyTVIbWb37h5Xj0wJFCCVW4dQ7yY/iVW91R4ZBP5UF5UqjN2u2Oo32sQxXV08sTLKWj4URSQhI5Ko766/evtbd6SLQ2bRr2xmD8cfHng4MY8PiNBYlKqDdtvA1DU9SW3umiMRikchIwhyoGOefOrgoIpU0oIpU0oIpU1FApU0oIpU1FAqaipoIpSlApSvzmlVFZ2OFVSzHwUDJNBx28LbiPR4giBZbyUHs4ieSL07R/LPQd5z4EjPWr6zc30plu5nmkJ6seS9OSqOSjkOQFfttPrT6jfTXUmcyseFc54IxyRR6DHzzXQ7tth21iVnmLR2cJAd1+KRzzCKe7lzJ7sjxoOHpWrLHY7TLdeCOxt8YAJeJZGI82bJNcvtjuts7uJnsY1tLkKxRU92OVu5WXouemRj50HAbBbyp7BlgvGe4s2IGSeJ7cE82U9WHP4fu8D7+1++HIeHSkwCMe2SLz9UjYfi33VUE8LRO8bqVdGZXU9VZTgg+hBrtN2ex0OsTzCeZkS3CO0cY5yhiR8R+EcvDPPuoOHJyc+NdpsRvBudIVogourZjxCBn4DG56lGwcZ7xgjv8c3he7E6dNZGx9mSOHPEpQcLRyYwHDdS3mc56Gqq1vc3exufYpI7mI/CHYROvkQfdPqD8qD9df3yXE8LR2lsLRmHCZzL2rLnrwjhAB8+dVhHG8rhVVpJHbAVQWZ2J6ADmSTXdWe6PV5GAkSGBSebvMrYHjhck1aOxG7i10oiZz7TdgcpWHCsWRg8C9xwep5+lB6+wWgnTdMgt2x2uDJNg5/zXOWGfLkv9NdHSlArht8f0Fc/bt/1Vrua4bfH9BXP27f8AVWgoLZb6Ssf93bfqLWtqyTst9JWP+7tv1FrVGr6nDY273Fw4jijGWY9/gAO8k4AFB9xNRxDxH31l7bHbK51W6Mpd4YUyIIFcjs08TjqxwCT/ANq7/dXsRK/Z6hqDScPJ7a2ct731ZGBPTvA9D4UFyV/DuFBJIAHUk4ArxdrNo4dKtGuZuZ+GKMHBlkIJVR4dMk9wBrOW0+197qkha4lIjyeC3QlY0Hhjv9Tk0Gj5NqtNQ8LahZhhyIN1FkHz97lXp2t3FOgeGRJkPR43DqfmpxWQoLSSXPZRvJjrwIXx64FfZpOsXWnTCS2keCVDzXmAfJlPI+hFBrfIqQay1thtS+pXQuVLws0MSuisQokUYYrz6HrVj7hJmdL/AI3Z8NBjiYtjk/jQdzvDuey0a/YHB9ndBg4I48J/+qy9bx8ciITjiZVz4ZIFd1vS0+9/xO+l7K49l4oz2nA/Z44EGc/DjP41wSgkgDJJPIDrmg1foOzVlp8aLbQRqyAAy8ILucYLM3Uk8/vqtv2gfg077Vx+UdePut0rUItXge6gu0iCS5eVJAgJQ4yW5V7H7QPwad9q4/KOg5fcn9NJ/Im/IVoys57k/ppP5E35Crq2x2oh0m0aeQgyMGWCHODLJjkOXQDlk91B0BIoCPGsmX2sXl/dNI8kjzTuAqIxGWYgKiqPkAKvjdvsY2nQrcXbPJeyqOJWbiFsp6ovMjPifLA8w72vnubmOFC80iRIOrSOEUfMnFcfvG25TR4ljjAkvJVJjQ/DGnTjbyznA7yD4VnzV9aub6RpbuZ5nJz7ze6vkq9FHkBQagG1mmE4Go2RPQD2qLmf/lXro6uAVIZTzDKcgjyIrH6WcrqXWKRkGcuqEqMdeYGK97ZHbK70qZWidngyO0tmbKOPLPwnn1H40GpOIeI++prIuo6m8lxM6SSKjySOo42GFZiQMZ8DWhd0bs2iWxYliWmyWJJP+Y3eaDtamlRQTUUpQKmopQK8DbpiukagVJBFrNgjlj3DXv182oWq3EEsLjKyxvG3oykH86DHtaU3QRquhWpXGWadmPi3auOfyAHyrO2qWL2txLbzLwyQu0bDzU4yPI9fnVmbn9t47Ti0+8cJC7cVvK3JY5D8SMe4E4IPcc+PIL0pX8qwIBBBB5gjmCK8Larai20q3Mtw47Qg9lBn35W7gB3DOMnoKChN68KJrl4I8YJjdgO52jQt+Jz869zcQ7DVZlBPC1nISO4kSRYP4n76r/VtQkvLma4lOZJpGkbnkDJzgZ7gMAeQrvdzOsWdldz+1yiGSaNI4WdfdPvEsC/8OcL1wDjr0oNA0r8Lm6jhjaWV1SJFLtIxAVVHPJPhVba1vlsoXZLWGW74SR2nEIkb0JBYj5CgtClVDZ77oSwE9i6KTzdJg5A+yVGfvqxNnNprTU4jJaSh+H44yOF4yfrKenr0oPapSlArht8f0Fc/bt/1Vrua4bfH9BXP27f9VaDP+z06xX1pJI3CkdzC7sf4VV1Yn7ga6HeJto+r3GE4ks4iRDGeXGenaMPrHw7h865fTLQ3FxDAGCmaVIwxGQpdgoJHzr+9T0+WzuJLedeCWFyrKeYyOhGeoPIjxBoLK3VbvjcNHqF+g9nHvW8DD98e6Rh9Qdw7+R6dbzrkN3W1keq2Sn3VuYAiXESgAA4wrKO5Wx8uY7q7Cgzxvq1drjVDbhsx2kaoF547RwHY+uCo+Vfjus2MXVLhprgH2S3K8Sjl20h5hM+GOZ+Q768TeIrDWtQDZz7Q55/VOCv4Yq29xJQ6VMF+IXb8fnlI+H8KCxbS1jgjWOFFijQYVEUKqjyA6V5G1Oy1pqsJjuEHHwkR3AUdpEe4q3hnu6GvfqKDImuaXJY3U1rNjtIXKMR0I6hh5EEH51bX7P8A8Gofbg/J643fA6NrlzwYyqQh8DGX7Nc/gRXZfs//ALvUPtQfk9B2+876Dv8A+Uv961maw/fxfzI/7hWmd530Hf8A8pf71rM1h+/i/mR/3Cg2HVOftA/Bp32rj8o6uOqc/aB+DTvtXH5R0HC7tdag03UDc3DEIlvNhQMl3IHCq+Z8687abaG51e7M02SzHghhXLCNSfdRR3nz6k1+WzmhS6lM8EBHarDJKiEfvCgzwDnyJ8a/LRdQewvYbgIC9vKGMbjqQcFSD0PUeRoLu3Ybvhp6reXihr1x7iEA+yqQQR9sg4J7s48c2SzAAknAAyT4CvN0HWYdQtY7m3OUkGcHqrDkynwIPKvp1IE28wHUxSY9eE4oMsbXasb/AFG6uS3EryuI/KJTwoB/SBVl7othYZYV1G9jE3Gx9mhYBlAQlS7A8ieIEAHpjPfypqtV7CvG2kaeYvg9liH9QXD58+INnzoPfAAGAMAdwrg94mwUGpQPNBGsV8gZ1kRQO3IHwPjrnHI9QfLNd9UUGNSMVpTdB9BWv2pv1GrO2rOjXNw0YxG00rIPBCxKj7sVondB9BWv2pv1GoO3pSlBFKUoJqKUoFKUoKq3r7AteH2+yTiuFXFxCoAMyKOTL4sAMY7xjw50WykEgggg4IPIg+FbJrldpNgdO1Is80PZztnNxCeBycAZbuY8h8QNBm+z1u8t14ILq5hX6sc7xj7lIr4553kYvI7SMerOxYn1J517m2+gJpeoSWiSNKsaxsHYAE8ShsED1qwt3m7SyvLKC9u2llMoc9gGEaLwuy8yPePw+I60Fe7JbJ3OrTiO3XEYI7adh7sKnvP1j4KOZ8hzr1drd299pvFIq+12q8/aI1wVHLm8eSV69RkcutaK0/T4bWNYreJIIhnEaKFAJ5k8up86/rUZSkEzr8SRyMPUKSKDJsmr3LW4tWuJWt1biEDOSgPdgHp6dK+jQNnLzUnMdnA0xXHG2QqoCf4mJAHp1ryCc8zzJrT27Kwjt9Gs+zABliE0hHVnfmcny5D5UFF67u/1OwiM09vxRLzeSN1kCDxYDmB54xXi6Jq89hcpc2z8EiHl4MverDvB7xWt3QMpVgCCCCCMgg9QR31lXbfTUs9VvLeLlGkp4B9VWAYL8uLHyoNMbN6ymo2UF3HyEyZK5zwODhlJ8iCK9aqw3D3DNpk6McrHdNw+QZEJH35Pzqz6CK4ffH9BXP27f9VK7iuM3r2sk+jXEcMbzOzwcKRoXY4kUnAXn0oM+bLfSVj/ALu2/UWrs3ubF+3Qe2WyZurdffVRznhHUebL1HlkeFVRs3s7frf2bvZXSKt1bszNbyKFUSKSSSOQArUVBk3ZXaCbS7yO5g58PuyRk4EsZ+JD/wAHuIBrUOi6rDf20dzbsHjkXI8VPQqw7iDkEeVUrvP2AlguvadPgeWC4ZmeKKMuYJTzI4VyeFuZHLA5jwr+91t7qOmXIgns7v2K4bD5tpP8mQ4CyD3enIA+XPuoPw336I8N+t4q/wCTcoqswGAJkGCD5lQp+R8K8XdztkdHuW7QM9pPhZlXmUI6SKOhIzzHePlWg9odEg1K1e2uFyj/AAsPijcfCynuI/8AFZ92n3cahp7MRE11bg+7PCvH7v8AqQe8p/DzoNA6ZtHY3adpb3UMi9/vhSPIqcEfMV4e1e8Gx06J+CWO4uQvuW8bcWXI5cbDko8e+s0OhU4YEEdQRgive2e2Pv8AUnC21u3B/FM4McaDzY9fQZPlQeTqF69zNJPMxaSV2dmPPLMc9/dVwfs//u9Q+1B+T1xe2Ow1xZ3SwWltc3Mawxcc6QyOskpGXIIBA593dXfbjtNuLZL4XMEsBZoeESxNHxYD5xxAZ6ig63ed9B3/APKX+9azNYfv4v5kf9wrTu8S3eXR72OJHkdo1Coil2Y8anAA5ms8WWzWoCaMmxuwBIhJNtJyHEP9NBq0VTn7QPwad9q4/KOrjqp9+Om3Fyth7NBLccLT8fZRtJw5CYzwg46H7qDjNyf00n8ib8hXu75Ni+yY6lap7kh/6tFAARzjEgA7mOeLz595r4t0Oi3dvq6vPbXEMfYSjjkheNckDAywxV53tqlxFJDKoeORGR1PMMpGCKDOm7DbA6Vd8EzH2O4IWYEnETdFkA8uh8vQVo+ORXUMpDKwBDA5DKRkEHvGKzTtVsFe2N5JFDbz3MBJaGWKJpAUJ5BuEHDDoQfDNWXuk1W+SP8Aw+/trmNY1zbTSQSIvAOsbMVwMd2T5eFBU23mivYancwleFGkaWHlgGF2JXHpzX+k12W6veDFYx+w3zFLfiJgmwSIyxyysB0Ukk57smrL262Nh1iDhbEdzGD2E+M8J68LeKnw7utZ/wBe2P1DTnK3Nu4XJ4ZkHaRsB4OOnocHyoNOQaxaSIJEuYHQjIcSqQR65qut4u8q3it3ttOlWe4lVo2mjJKQIRglWHJm7hg8uvkaKVCTgAk9MAZOfSu12O3dXupSI0sTW1pnLzuOFmUdRGp5knxxgfgQ4itK7oPoK1+1N+o1UXqWyt8lxMsVjdmNZZFjIt5GBQMQuDw8+WOdXzurtZINGt45keJ1abKSIUYZkYjIPMUHZUpUUCpqKmgilKUClKUCvO1jWbaxj7W7mSBO4uebHwVerHyFfjtNrcem2c11LzEa+6ne7nkqj1JH41mDaDXLjUrhp7py7MeSgnhjHcqgnkKD1N4uswajqk1zbFmhdYlVmXhJ4UCk4PPGRVpbrNsbBdPtrGS4WG4j414JPcDFpGKhWPIn3hyzmqb03Zu+u0L21rNKirxFwhwR5E8j07q865tpIWKSo8TjBKOpRgD05HnQbFr+JIw6srDKsCpHiCMGqZ3QbcyGVNNvHZ1YEWsjZZlYZJjZiemOnhjHhi6aDI+0WkPYXk9rICDE7KCf4k6q3zUg/OrK3abyYLS2Wy1AskcZxBcKpYBSSeBwBkYPQjPXyzXcbwdhItYjDoRDeRjEcpHuyL9STHPHgeo8+lULrOy99YyNHcW0i8HMyBS6EZIBDLywcetBd20G9fTraJvZpDeTkHgRFZVB7uNyBgeQyeVZ/v7x7iaSaVuOSV2d2PezHJ61/VtptxMcRQSykYyEjZ8Z8cCrW2C3VSdolzqqhVRgUs8hi5HQy45Beh4c8+/HQh2m6bRWstIi7ReCS4drhlIIIDABQQeh4VX767agqaCKUqaCKVNKCKmlKBSlKD8Hto2OWjRm+sUBP34r9hU0oFKUoFKUoFKUoIpU0oFKUoIpU0oPwFrGDxBEDfWCKD9+K/elKBUVNKCKVNRQTUVNKCKUpQKUpQVDv+u3WCxhBwkjzO6+LIEC/dxtVdbutETUdVt4JucQ4pJF+uqDPD6E4B8s1aO/XSWmsbe6TmLWRxIB3JLwji+TIo/qqn9ldbfTb6C6QcXZt76/XjPJl9cE488UGroolRQiKFVQAqqAAoHQADpXB73dnorvTZbkgLcWa9okmObR595Ce8Ecx4Eete/om2Gn30Paw3MS8stHI6xvH4hlY/j0qut6u8C3mt3sLGQTcZAuJ15pwDnwK38WTjJHLlj0Co9PuTBPFKpIMUiSAjkcqwPL7q1+j5UHxAP31kvZvTGvb62tkHEZZVUg9AoOWJ8goY/KtbKMDA6DkKCaVNRQAMUpSgUpU0EUpU0EVNRSgmoqaUEVNKUCoqaigmlKUClKUCoqaUCoqaUEVNKUEVNKUEUqaigmlKUEVNKUClKUCopSgUpSg+e9tEuInhmUPHIhR1PRlIwRWdtuN3dzpjvJAj3NlklZVHE0a4ziQAcsc/exjl3VpGlBjSvt0zTZ7uVYraJ55GxhUXOMnGSeijn1PKtWTaDZS85LS2c54stAhPF45xX0w2kUA4YY44lJ5hECA/cKDid2uwY0lDPcEPeyrwtwkMsCZzwqccyeWT5YHn39KUE0qKUCpqKUCpqKmgUqKmgUqKmgUqKmgUpSgUqKmgippUUE0pUUE0pUUE0pUUE0pSgUqKmgUqKmgUpUUE0qKmgVFTSg/9k=;" vertex="1" parent="8e7B-ONYr-sdzbZyXvUv-136">
          <mxGeometry x="81.12582781456955" y="310.20000000000005" width="110.07152317880794" height="42.384105960264904" as="geometry" />
        </mxCell>
        <mxCell id="8e7B-ONYr-sdzbZyXvUv-84" value="&lt;b&gt;On - Premise&lt;/b&gt;&lt;div&gt;&lt;b&gt;Data Center&lt;/b&gt;&lt;/div&gt;" style="image;aspect=fixed;html=1;points=[];align=center;fontSize=12;image=img/lib/azure2/other/Modular_Data_Center.svg;container=0;" vertex="1" parent="8e7B-ONYr-sdzbZyXvUv-136">
          <mxGeometry x="46.35761589403974" y="348.00000000000006" width="65.6953642384106" height="65.6953642384106" as="geometry" />
        </mxCell>
        <mxCell id="8e7B-ONYr-sdzbZyXvUv-121" value="" style="edgeStyle=orthogonalEdgeStyle;rounded=0;orthogonalLoop=1;jettySize=auto;html=1;entryX=-0.043;entryY=0.492;entryDx=0;entryDy=0;entryPerimeter=0;flowAnimation=1;" edge="1" parent="8e7B-ONYr-sdzbZyXvUv-136" source="8e7B-ONYr-sdzbZyXvUv-114" target="8e7B-ONYr-sdzbZyXvUv-115">
          <mxGeometry relative="1" as="geometry" />
        </mxCell>
        <mxCell id="8e7B-ONYr-sdzbZyXvUv-114" value="" style="outlineConnect=0;dashed=0;verticalLabelPosition=bottom;verticalAlign=top;align=center;html=1;shape=mxgraph.aws3.sqs;fillColor=#D9A741;gradientColor=none;" vertex="1" parent="8e7B-ONYr-sdzbZyXvUv-136">
          <mxGeometry x="407.68046357615896" y="306.00000000000006" width="50.10099337748345" height="55.2" as="geometry" />
        </mxCell>
        <mxCell id="8e7B-ONYr-sdzbZyXvUv-18" value="&lt;b&gt;6&lt;/b&gt;" style="ellipse;whiteSpace=wrap;html=1;aspect=fixed;fillColor=#0050ef;fontColor=#ffffff;strokeColor=#001DBC;container=0;" vertex="1" parent="8e7B-ONYr-sdzbZyXvUv-136">
          <mxGeometry x="444.7665562913907" y="301.20000000000005" width="21.192052980132452" height="21.192052980132452" as="geometry" />
        </mxCell>
        <mxCell id="8e7B-ONYr-sdzbZyXvUv-116" value="&lt;b&gt;14&lt;/b&gt;" style="ellipse;whiteSpace=wrap;html=1;aspect=fixed;fillColor=#0050ef;fontColor=#ffffff;strokeColor=#001DBC;container=0;" vertex="1" parent="8e7B-ONYr-sdzbZyXvUv-136">
          <mxGeometry x="1358.0115894039736" y="294.6" width="21.192052980132452" height="21.192052980132452" as="geometry" />
        </mxCell>
        <mxCell id="8e7B-ONYr-sdzbZyXvUv-79" value="" style="html=1;verticalLabelPosition=bottom;align=center;labelBackgroundColor=#ffffff;verticalAlign=top;strokeWidth=2;strokeColor=#0080F0;shadow=1;dashed=0;shape=mxgraph.ios7.icons.clock;container=0;fillColor=none;" vertex="1" parent="8e7B-ONYr-sdzbZyXvUv-136">
          <mxGeometry x="1371.9188741721855" y="301.20000000000005" width="64.90066225165563" height="66" as="geometry" />
        </mxCell>
        <mxCell id="8e7B-ONYr-sdzbZyXvUv-78" value="" style="html=1;verticalLabelPosition=bottom;align=center;labelBackgroundColor=#ffffff;verticalAlign=top;strokeWidth=2;strokeColor=#0080F0;shadow=1;dashed=0;shape=mxgraph.ios7.icons.clock;container=0;fillColor=none;" vertex="1" parent="8e7B-ONYr-sdzbZyXvUv-136">
          <mxGeometry x="1034.6672185430464" y="297.00000000000006" width="64.90066225165563" height="66" as="geometry" />
        </mxCell>
        <mxCell id="8e7B-ONYr-sdzbZyXvUv-118" value="&lt;b&gt;Stage To EDW&lt;/b&gt;" style="text;html=1;align=center;verticalAlign=middle;resizable=0;points=[];autosize=1;strokeColor=none;fillColor=none;" vertex="1" parent="8e7B-ONYr-sdzbZyXvUv-136">
          <mxGeometry x="1349.157284768212" y="360.00000000000006" width="100" height="30" as="geometry" />
        </mxCell>
        <mxCell id="8e7B-ONYr-sdzbZyXvUv-120" value="&lt;b&gt;Amazon&lt;/b&gt;&lt;div&gt;&lt;b&gt;SQS&lt;/b&gt;&lt;/div&gt;" style="text;html=1;align=center;verticalAlign=middle;resizable=0;points=[];autosize=1;strokeColor=none;fillColor=none;" vertex="1" parent="8e7B-ONYr-sdzbZyXvUv-136">
          <mxGeometry x="396.091059602649" y="349.80000000000007" width="70" height="40" as="geometry" />
        </mxCell>
        <mxCell id="8e7B-ONYr-sdzbZyXvUv-73" value="" style="edgeStyle=orthogonalEdgeStyle;rounded=0;orthogonalLoop=1;jettySize=auto;html=1;shadow=1;flowAnimation=1;" edge="1" parent="8e7B-ONYr-sdzbZyXvUv-136" source="8e7B-ONYr-sdzbZyXvUv-11" target="8e7B-ONYr-sdzbZyXvUv-50">
          <mxGeometry relative="1" as="geometry" />
        </mxCell>
        <mxCell id="8e7B-ONYr-sdzbZyXvUv-123" value="" style="sketch=0;pointerEvents=1;shadow=0;dashed=0;html=1;strokeColor=#0080F0;fillColor=none;labelPosition=center;verticalLabelPosition=bottom;verticalAlign=top;outlineConnect=0;align=center;shape=mxgraph.office.concepts.settings_office_365;" vertex="1" parent="8e7B-ONYr-sdzbZyXvUv-136">
          <mxGeometry x="1269.793046357616" y="315.3" width="35.9271523178808" height="37.2" as="geometry" />
        </mxCell>
        <mxCell id="8e7B-ONYr-sdzbZyXvUv-128" value="&lt;b&gt;7&lt;/b&gt;" style="ellipse;whiteSpace=wrap;html=1;aspect=fixed;fillColor=#0050ef;fontColor=#ffffff;strokeColor=#001DBC;container=0;" vertex="1" parent="8e7B-ONYr-sdzbZyXvUv-136">
          <mxGeometry x="1427.5480132450332" y="498" width="21.192052980132452" height="21.192052980132452" as="geometry" />
        </mxCell>
        <mxCell id="8e7B-ONYr-sdzbZyXvUv-129" value="&lt;b&gt;Call SP to&lt;/b&gt;&lt;div&gt;&lt;b&gt;&amp;nbsp;MERGE into&lt;/b&gt;&lt;/div&gt;" style="text;html=1;align=left;verticalAlign=middle;resizable=0;points=[];autosize=1;strokeColor=none;fillColor=none;container=0;" vertex="1" parent="8e7B-ONYr-sdzbZyXvUv-136">
          <mxGeometry x="1453.044701986755" y="494.4" width="100" height="40" as="geometry" />
        </mxCell>
        <mxCell id="8e7B-ONYr-sdzbZyXvUv-133" value="&lt;b&gt;0&lt;/b&gt;" style="ellipse;whiteSpace=wrap;html=1;aspect=fixed;fillColor=#0050ef;fontColor=#ffffff;strokeColor=#001DBC;container=0;" vertex="1" parent="8e7B-ONYr-sdzbZyXvUv-136">
          <mxGeometry x="118.21192052980133" y="297.6" width="21.192052980132452" height="21.192052980132452" as="geometry" />
        </mxCell>
        <mxCell id="8e7B-ONYr-sdzbZyXvUv-134" value="&lt;b&gt;0&lt;/b&gt;" style="ellipse;whiteSpace=wrap;html=1;aspect=fixed;fillColor=#0050ef;fontColor=#ffffff;strokeColor=#001DBC;container=0;" vertex="1" parent="8e7B-ONYr-sdzbZyXvUv-136">
          <mxGeometry x="217.74172185430464" y="501.6" width="21.192052980132452" height="21.192052980132452" as="geometry" />
        </mxCell>
        <mxCell id="8e7B-ONYr-sdzbZyXvUv-135" value="&lt;b&gt;On-prem&lt;/b&gt;&lt;div&gt;&lt;b&gt;Kafka&lt;/b&gt;&lt;/div&gt;&lt;div&gt;&lt;b&gt;cluster&lt;/b&gt;&lt;/div&gt;&lt;div&gt;&lt;b&gt;streams&lt;/b&gt;&lt;/div&gt;&lt;div&gt;&lt;b&gt;topics&lt;/b&gt;&lt;/div&gt;" style="text;html=1;align=left;verticalAlign=middle;resizable=0;points=[];autosize=1;strokeColor=none;fillColor=none;container=0;" vertex="1" parent="8e7B-ONYr-sdzbZyXvUv-136">
          <mxGeometry x="242.07947019867552" y="494.4" width="70" height="90" as="geometry" />
        </mxCell>
        <mxCell id="8e7B-ONYr-sdzbZyXvUv-30" value="&lt;b&gt;10&lt;/b&gt;" style="ellipse;whiteSpace=wrap;html=1;aspect=fixed;fillColor=#0050ef;fontColor=#ffffff;strokeColor=#001DBC;container=0;" vertex="1" parent="8e7B-ONYr-sdzbZyXvUv-136">
          <mxGeometry x="1021.9188741721854" y="300" width="21.192052980132452" height="21.192052980132452" as="geometry" />
        </mxCell>
      </root>
    </mxGraphModel>
  </diagram>
</mxfile>
